<svg width="151" height="150" viewBox="0 0 151 150" fill="none" xmlns="http://www.w3.org/2000/svg">
<rect x="1" y="0.5" width="149" height="149" rx="74.5" fill="#DEFCE4" stroke="#04A42A"/>
<g clip-path="url(#clip0_1_4973)">
<path d="M30.5 74.7621C30.751 73.3583 30.8595 71.908 31.2809 70.5569C32.1734 67.6874 33.196 64.855 34.231 62.032C35.2846 59.15 36.4157 56.2991 37.5158 53.4327C37.6181 53.1662 37.7327 52.9059 37.866 52.5867C38.839 52.9585 39.7594 53.3087 40.7572 53.6899C40.6425 54.0307 40.5558 54.3282 40.4473 54.6164C38.6407 59.401 36.7659 64.1578 35.0429 68.9703C32.9729 74.7528 33.2797 80.5166 35.5449 86.1968C35.6844 86.547 35.8207 86.9003 35.9881 87.331C35.0305 87.7308 34.1009 88.1212 33.103 88.5396C32.0432 86.0791 31.2313 83.6279 30.8564 81.0434C30.7386 80.2408 30.6178 79.4351 30.5 78.6294C30.5 77.3403 30.5 76.0512 30.5 74.7621Z" fill="#333333"/>
<path d="M120.499 111.682H117.391V97.4424H120.499V111.682Z" fill="#333333"/>
<path d="M120.5 118.01H117.336C117.336 117.449 117.336 116.937 117.336 116.423C117.336 115.909 117.336 115.444 117.336 114.843H120.5V118.006V118.01Z" fill="#333333"/>
<path d="M65.1554 94.9294V98.9332C66.5158 99.4878 66.7141 99.7822 66.7141 101.239C66.7141 105.047 66.7141 108.856 66.7141 112.664C66.7141 114.083 66.4941 114.403 65.1275 114.923V119.547H61.9945V114.895H46.1904V119.531H43.014V114.898C41.5762 114.641 41.3717 113.643 41.384 112.413C41.4243 108.753 41.3995 105.091 41.3995 101.428C41.3995 99.5901 41.6939 99.2368 43.5439 98.9362C43.0822 97.8176 42.6236 96.7175 42.1712 95.6112C40.9161 92.5557 39.5929 89.525 38.4246 86.4355C35.927 79.8194 36.1222 73.2003 38.623 66.6214C41.5948 58.8061 44.579 50.9939 47.5632 43.1817C48.8988 39.68 51.6567 38.2948 55.2607 39.2461C55.5644 39.3267 56.0354 39.1501 56.2957 38.9332C58.8058 36.8352 61.5266 35.0937 64.5325 33.7953C71.319 30.8575 78.31 30.2378 85.4931 31.9266C90.5629 33.1197 95.0965 35.416 99.0599 38.7999C99.6022 39.2616 100.048 39.3794 100.761 39.1625C103.457 38.3351 106.413 39.5746 107.52 42.1653C109.001 45.6298 110.287 49.1811 111.629 52.7045C113.566 57.7866 115.558 62.8501 117.377 67.9725C119.732 74.6072 119.345 81.2015 116.683 87.6843C115.152 91.4153 113.597 95.134 112.016 98.9455C112.261 98.9796 112.444 99.0044 112.627 99.0292C113.615 99.1749 114.154 99.7203 114.158 100.74C114.176 104.871 114.17 109.001 114.161 113.132C114.161 114.139 113.556 114.669 112.59 114.889V119.525H109.463V114.917H93.6307V119.541H90.4947V114.898C89.0723 114.641 88.8337 113.69 88.8461 112.478C88.8833 108.76 88.8833 105.038 88.8461 101.316C88.8337 100.126 89.1188 99.2306 90.4203 98.9796V94.9387C82.0069 98.2266 73.6152 98.2483 65.1523 94.9294H65.1554ZM54.3218 57.0429C58.7314 57.548 60.3862 59.4135 60.3862 63.7364C60.3862 67.1637 60.4141 70.591 60.3738 74.0184C60.3552 75.7227 60.6589 77.3217 61.3964 78.8619C63.1783 82.5836 64.3589 86.4882 64.8083 90.6003C64.8672 91.1302 65.0655 91.4618 65.6171 91.6942C73.7516 95.1495 81.8706 95.1463 89.9958 91.6725C90.4947 91.4587 90.7085 91.1643 90.7643 90.6468C91.2136 86.4758 92.4253 82.5216 94.2319 78.7441C94.9291 77.2877 95.2142 75.7692 95.1987 74.1547C95.1647 70.4051 95.1801 66.6555 95.1925 62.9059C95.1987 60.4888 96.2338 58.6481 98.4494 57.6316C99.2706 57.2567 100.225 57.1792 101.186 56.9499C101.102 56.7268 101.012 56.4572 100.904 56.1969C99.6704 53.287 98.4216 50.3865 97.213 47.4705C96.9248 46.7764 96.5932 46.0171 96.6149 45.2982C96.649 44.0215 96.9403 42.7509 97.1448 41.3379C84.9601 30.6313 67.3029 32.8904 58.1953 41.6478C59.1126 43.2251 59.3264 44.8892 58.7035 46.6183C58.3875 47.4984 58.0001 48.3537 57.6375 49.2152C56.5467 51.7965 55.4528 54.3747 54.3218 57.046V57.0429ZM93.6772 98.9734C93.8043 98.9889 93.9158 99.0168 94.0243 99.0168C98.6819 99.0168 103.339 99.0075 107.997 99.0354C108.542 99.0354 108.688 98.7503 108.849 98.3537C110.526 94.3004 112.233 90.2595 113.879 86.1938C116.113 80.6716 116.534 75.0038 114.505 69.3794C111.437 60.8823 108.143 52.4658 104.932 44.0215C104.3 42.3543 102.775 41.6601 101.282 42.2923C99.8253 42.9059 99.3357 44.3747 100.045 46.0574C101.787 50.1789 103.522 54.3035 105.286 58.4156C105.955 59.9744 106.274 61.5827 106.268 63.2777C106.252 69.0478 106.262 74.821 106.262 80.591V81.5672H103.098C103.098 81.1984 103.098 80.8823 103.098 80.5632C103.098 74.7342 103.092 68.9022 103.104 63.0732C103.104 62.1405 102.893 61.3162 102.112 60.7553C101.372 60.2223 100.535 60.1262 99.7014 60.5291C98.7624 60.9846 98.3534 61.7841 98.3534 62.8098C98.3534 66.6462 98.3348 70.4857 98.3596 74.3221C98.372 76.2898 98.0311 78.1646 97.151 79.931C94.1792 85.9118 93.2589 92.2737 93.6741 98.9734H93.6772ZM61.9697 99.0199C61.9697 97.8548 61.9573 96.829 61.9697 95.8033C62.041 90.3865 60.9626 85.2145 58.5982 80.3338C57.6189 78.3134 57.1789 76.2124 57.2068 73.9688C57.2564 70.3059 57.2285 66.6431 57.2161 62.9803C57.2099 61.2697 56.0788 60.1696 54.5418 60.34C53.2682 60.4795 52.481 61.4959 52.4779 63.0484C52.4717 68.9084 52.4779 74.7683 52.4779 80.6282C52.4779 80.9381 52.4779 81.248 52.4779 81.5455H49.314C49.314 81.155 49.314 80.8328 49.314 80.5136C49.314 74.917 49.3357 69.3205 49.3016 63.724C49.2892 61.7252 49.6611 59.8504 50.4606 58.0128C52.2176 53.9936 53.8972 49.9403 55.614 45.9025C56.0354 44.9108 56.0354 43.9564 55.3444 43.0887C54.7122 42.2923 53.8538 41.9514 52.8529 42.0971C51.6567 42.2737 50.9843 43.0639 50.5691 44.1578C47.5601 52.0878 44.5325 60.0085 41.5204 67.9384C39.3233 73.7271 39.1715 79.5591 41.4026 85.3509C43.107 89.7698 45.0066 94.1144 46.7853 98.5055C46.9961 99.0199 47.3184 99.023 47.7429 99.0199C52.2238 99.0137 56.7079 99.0168 61.1888 99.0168C61.415 99.0168 61.6413 99.0168 61.9635 99.0168L61.9697 99.0199ZM63.4882 111.638V102.255H44.6131V111.638H63.4882ZM110.969 102.249H92.0968V111.629H110.969V102.249Z" fill="#333333"/>
<path d="M39.6386 47.8361C40.6272 48.211 41.5444 48.5612 42.5764 48.9516C42.2727 49.7635 41.9845 50.5352 41.6622 51.3935C40.6737 51.0186 39.7347 50.6591 38.709 50.2718C39.0251 49.4444 39.3195 48.6697 39.6386 47.8361Z" fill="#333333"/>
<path d="M63.4864 111.638H44.6113V102.255H63.4864V111.638Z" fill="#04A42A"/>
<path d="M110.968 102.249V111.629H92.0957V102.249H110.968Z" fill="#04A42A"/>
<path d="M77.4451 77.0797V81.4708C76.4535 81.5576 75.4805 81.6413 74.3432 81.7404C74.306 80.6837 74.1603 79.6673 74.2626 78.6788C74.4175 77.1882 74.0581 76.3577 72.5056 75.7008C69.292 74.3373 67.8542 71.4646 67.2592 68.1829C65.9887 61.1671 69.4377 55.4962 75.059 52.2827C80.0327 49.4411 85.3348 49.4814 90.7051 51.0215C91.9416 51.3748 92.3816 52.4098 91.6968 53.4789C90.2775 55.6946 89.9831 58.1489 89.8622 60.6899C89.7414 63.2279 89.7197 65.8061 89.2208 68.279C88.0773 73.9654 83.9496 77.3648 77.9874 77.0767C77.8449 77.0705 77.6992 77.0767 77.4451 77.0767V77.0797ZM88.0742 53.5378C87.1972 53.4169 86.4504 53.2744 85.6974 53.2124C81.5728 52.8684 77.786 53.7082 74.5539 56.4476C70.6029 59.7974 69.2022 64.4395 70.7888 69.1436C71.4024 70.9657 72.4529 72.4501 74.4702 73.1504C75.0249 68.1705 76.2118 63.4355 78.2508 58.8523C79.2239 59.283 80.1442 59.689 81.1142 60.1197C79.227 64.5635 78.0153 69.0785 77.6063 73.8476C79.416 74.0119 81.0925 73.8383 82.6388 72.9118C85.0683 71.4584 86.0661 69.1281 86.3729 66.4848C86.5991 64.5449 86.6084 62.574 86.6549 60.6155C86.7138 58.2263 87.1693 55.9208 88.068 53.5378H88.0742Z" fill="#04A42A"/>
<path d="M89.5461 40.0237C89.0875 40.9657 88.6567 41.8551 88.1671 42.8591C82.4032 40.1972 76.4813 39.7665 70.3797 41.6413C70.1008 40.8015 69.8498 40.0609 69.6081 39.3171C69.5461 39.1281 69.5151 38.9298 69.4531 38.6478C76.3481 36.5034 83.0013 36.9837 89.5492 40.0206L89.5461 40.0237Z" fill="#333333"/>
<path d="M64.4264 44.5637C63.8221 43.6774 63.2643 42.8593 62.6445 41.9483C63.7601 41.2975 64.8292 40.6715 66.0006 39.9867C66.4871 40.9845 66.9302 41.8894 67.3889 42.8283C66.4003 43.4078 65.4521 43.9625 64.4264 44.5637Z" fill="#333333"/>
</g>
<defs>
<clipPath id="clip0_1_4973">
<rect width="90" height="88.5435" fill="white" transform="translate(30.5 31)"/>
</clipPath>
</defs>
</svg>
