<svg width="1040" height="160" viewBox="0 0 1040 160" fill="none" xmlns="http://www.w3.org/2000/svg">
<path d="M7.61992 121V46.5H39.0199C43.9533 46.5 48.1533 47.3667 51.6199 49.1C55.1533 50.7667 57.8533 53.1667 59.7199 56.3C61.6533 59.3667 62.6199 63.1 62.6199 67.5C62.6199 70.9 61.6866 74.1 59.8199 77.1C58.0199 80.0333 55.1199 82.4667 51.1199 84.4V78.1C54.7866 79.5 57.6866 81.2333 59.8199 83.3C61.9533 85.3667 63.4533 87.6667 64.3199 90.2C65.1866 92.7333 65.6199 95.4 65.6199 98.2C65.6199 105.333 63.2533 110.933 58.5199 115C53.8533 119 47.3533 121 39.0199 121H7.61992ZM21.2199 109H40.4199C43.9533 109 46.7533 108.033 48.8199 106.1C50.9533 104.1 52.0199 101.467 52.0199 98.2C52.0199 94.9333 50.9533 92.3 48.8199 90.3C46.7533 88.3 43.9533 87.3 40.4199 87.3H21.2199V109ZM21.2199 75.4H39.7199C42.5199 75.4 44.7533 74.6 46.4199 73C48.0866 71.3333 48.9199 69.2 48.9199 66.6C48.9199 64 48.0866 61.9333 46.4199 60.4C44.7533 58.8667 42.5199 58.1 39.7199 58.1H21.2199V75.4ZM75.6605 121V66.6H87.9605V78.7L86.9605 76.9C88.2272 72.8333 90.1939 70 92.8605 68.4C95.5939 66.8 98.8605 66 102.661 66H105.861V77.6H101.161C97.4272 77.6 94.4272 78.7667 92.1605 81.1C89.8939 83.3667 88.7605 86.5667 88.7605 90.7V121H75.6605ZM139.663 122.2C134.33 122.2 129.463 120.967 125.063 118.5C120.73 116.033 117.263 112.667 114.663 108.4C112.13 104.133 110.863 99.2667 110.863 93.8C110.863 88.3333 112.13 83.4667 114.663 79.2C117.263 74.9333 120.73 71.5667 125.063 69.1C129.396 66.6333 134.263 65.4 139.663 65.4C144.996 65.4 149.83 66.6333 154.163 69.1C158.496 71.5667 161.93 74.9333 164.463 79.2C167.063 83.4 168.363 88.2667 168.363 93.8C168.363 99.2667 167.063 104.133 164.463 108.4C161.863 112.667 158.396 116.033 154.063 118.5C149.73 120.967 144.93 122.2 139.663 122.2ZM139.663 110.2C142.596 110.2 145.163 109.5 147.363 108.1C149.63 106.7 151.396 104.767 152.663 102.3C153.996 99.7667 154.663 96.9333 154.663 93.8C154.663 90.6 153.996 87.8 152.663 85.4C151.396 82.9333 149.63 81 147.363 79.6C145.163 78.1333 142.596 77.4 139.663 77.4C136.663 77.4 134.03 78.1333 131.763 79.6C129.496 81 127.696 82.9333 126.363 85.4C125.096 87.8 124.463 90.6 124.463 93.8C124.463 96.9333 125.096 99.7667 126.363 102.3C127.696 104.767 129.496 106.7 131.763 108.1C134.03 109.5 136.663 110.2 139.663 110.2ZM191.021 121L172.321 66.6H186.121L199.821 107.9L195.021 107.8L209.621 66.6H221.221L235.721 107.8L230.921 107.9L244.621 66.6H258.421L239.721 121H228.021L213.221 77.9H217.621L202.621 121H191.021ZM286.302 122.2C280.502 122.2 275.435 120.833 271.102 118.1C266.835 115.3 263.902 111.533 262.302 106.8L272.102 102.1C273.502 105.167 275.435 107.567 277.902 109.3C280.435 111.033 283.235 111.9 286.302 111.9C288.702 111.9 290.602 111.367 292.002 110.3C293.402 109.233 294.102 107.833 294.102 106.1C294.102 105.033 293.802 104.167 293.202 103.5C292.669 102.767 291.902 102.167 290.902 101.7C289.969 101.167 288.935 100.733 287.802 100.4L278.902 97.9C274.302 96.5667 270.802 94.5333 268.402 91.8C266.069 89.0667 264.902 85.8333 264.902 82.1C264.902 78.7667 265.735 75.8667 267.402 73.4C269.135 70.8667 271.502 68.9 274.502 67.5C277.569 66.1 281.069 65.4 285.002 65.4C290.135 65.4 294.669 66.6333 298.602 69.1C302.535 71.5667 305.335 75.0333 307.002 79.5L297.002 84.2C296.069 81.7333 294.502 79.7667 292.302 78.3C290.102 76.8333 287.635 76.1 284.902 76.1C282.702 76.1 280.969 76.6 279.702 77.6C278.435 78.6 277.802 79.9 277.802 81.5C277.802 82.5 278.069 83.3667 278.602 84.1C279.135 84.8333 279.869 85.4333 280.802 85.9C281.802 86.3667 282.935 86.8 284.202 87.2L292.902 89.8C297.369 91.1333 300.802 93.1333 303.202 95.8C305.669 98.4667 306.902 101.733 306.902 105.6C306.902 108.867 306.035 111.767 304.302 114.3C302.569 116.767 300.169 118.7 297.102 120.1C294.035 121.5 290.435 122.2 286.302 122.2ZM342.769 122.2C337.169 122.2 332.269 120.933 328.069 118.4C323.869 115.867 320.602 112.433 318.269 108.1C315.936 103.767 314.769 98.9667 314.769 93.7C314.769 88.2333 315.936 83.4 318.269 79.2C320.669 74.9333 323.902 71.5667 327.969 69.1C332.102 66.6333 336.702 65.4 341.769 65.4C346.036 65.4 349.769 66.1 352.969 67.5C356.236 68.9 359.002 70.8333 361.269 73.3C363.536 75.7667 365.269 78.6 366.469 81.8C367.669 84.9333 368.269 88.3333 368.269 92C368.269 92.9333 368.202 93.9 368.069 94.9C368.002 95.9 367.836 96.7667 367.569 97.5H325.569V87.5H360.169L353.969 92.2C354.569 89.1333 354.402 86.4 353.469 84C352.602 81.6 351.136 79.7 349.069 78.3C347.069 76.9 344.636 76.2 341.769 76.2C339.036 76.2 336.602 76.9 334.469 78.3C332.336 79.6333 330.702 81.6333 329.569 84.3C328.502 86.9 328.102 90.0667 328.369 93.8C328.102 97.1333 328.536 100.1 329.669 102.7C330.869 105.233 332.602 107.2 334.869 108.6C337.202 110 339.869 110.7 342.869 110.7C345.869 110.7 348.402 110.067 350.469 108.8C352.602 107.533 354.269 105.833 355.469 103.7L366.069 108.9C365.002 111.5 363.336 113.8 361.069 115.8C358.802 117.8 356.102 119.367 352.969 120.5C349.902 121.633 346.502 122.2 342.769 122.2ZM433.773 122.2C428.306 122.2 423.206 121.233 418.473 119.3C413.74 117.367 409.606 114.667 406.073 111.2C402.54 107.733 399.773 103.667 397.773 99C395.84 94.2667 394.873 89.1667 394.873 83.7C394.873 78.1667 395.84 73.0667 397.773 68.4C399.706 63.7333 402.44 59.6667 405.973 56.2C409.506 52.7333 413.64 50.0667 418.373 48.2C423.106 46.2667 428.24 45.3 433.773 45.3C439.306 45.3 444.44 46.2667 449.173 48.2C453.906 50.1333 458.04 52.8333 461.573 56.3C465.106 59.7 467.84 63.7333 469.773 68.4C471.773 73.0667 472.773 78.1667 472.773 83.7C472.773 89.1667 471.773 94.2667 469.773 99C467.773 103.667 465.006 107.733 461.473 111.2C457.94 114.667 453.806 117.367 449.073 119.3C444.406 121.233 439.306 122.2 433.773 122.2ZM433.773 109.8C437.44 109.8 440.806 109.167 443.873 107.9C446.94 106.567 449.606 104.733 451.873 102.4C454.206 100.067 455.973 97.3 457.173 94.1C458.44 90.9 459.073 87.4333 459.073 83.7C459.073 79.9667 458.44 76.5333 457.173 73.4C455.973 70.2 454.206 67.4333 451.873 65.1C449.606 62.7 446.94 60.8667 443.873 59.6C440.806 58.3333 437.44 57.7 433.773 57.7C430.173 57.7 426.84 58.3333 423.773 59.6C420.706 60.8667 418.006 62.7 415.673 65.1C413.406 67.4333 411.64 70.2 410.373 73.4C409.106 76.5333 408.473 79.9667 408.473 83.7C408.473 87.4333 409.106 90.9 410.373 94.1C411.64 97.3 413.406 100.067 415.673 102.4C418.006 104.733 420.706 106.567 423.773 107.9C426.84 109.167 430.173 109.8 433.773 109.8ZM503.166 122.2C498.966 122.2 495.299 121.267 492.166 119.4C489.099 117.533 486.733 114.933 485.066 111.6C483.466 108.267 482.666 104.367 482.666 99.9V66.6H495.766V98.8C495.766 101.067 496.199 103.067 497.066 104.8C497.999 106.467 499.299 107.8 500.966 108.8C502.699 109.733 504.633 110.2 506.766 110.2C508.899 110.2 510.799 109.733 512.466 108.8C514.133 107.8 515.433 106.433 516.366 104.7C517.299 102.967 517.766 100.9 517.766 98.5V66.6H530.866V121H518.466V110.3L519.566 112.2C518.299 115.533 516.199 118.033 513.266 119.7C510.399 121.367 507.033 122.2 503.166 122.2ZM543.043 121V66.6H555.343V78.7L554.343 76.9C555.61 72.8333 557.577 70 560.243 68.4C562.977 66.8 566.243 66 570.043 66H573.243V77.6H568.543C564.81 77.6 561.81 78.7667 559.543 81.1C557.277 83.3667 556.143 86.5667 556.143 90.7V121H543.043ZM599.319 121V46.5H627.119C632.186 46.5 636.652 47.4333 640.519 49.3C644.452 51.1 647.519 53.7667 649.719 57.3C651.919 60.7667 653.019 65 653.019 70C653.019 74.9333 651.886 79.1667 649.619 82.7C647.419 86.1667 644.386 88.8333 640.519 90.7C636.652 92.5667 632.186 93.5 627.119 93.5H612.919V121H599.319ZM612.919 81.5H627.319C629.786 81.5 631.919 81.0333 633.719 80.1C635.519 79.1 636.919 77.7333 637.919 76C638.919 74.2667 639.419 72.2667 639.419 70C639.419 67.6667 638.919 65.6667 637.919 64C636.919 62.2667 635.519 60.9333 633.719 60C631.919 59 629.786 58.5 627.319 58.5H612.919V81.5ZM663.063 121V66.6H675.363V78.7L674.363 76.9C675.63 72.8333 677.596 70 680.263 68.4C682.996 66.8 686.263 66 690.063 66H693.263V77.6H688.563C684.83 77.6 681.83 78.7667 679.563 81.1C677.296 83.3667 676.163 86.5667 676.163 90.7V121H663.063ZM727.065 122.2C721.732 122.2 716.865 120.967 712.465 118.5C708.132 116.033 704.665 112.667 702.065 108.4C699.532 104.133 698.265 99.2667 698.265 93.8C698.265 88.3333 699.532 83.4667 702.065 79.2C704.665 74.9333 708.132 71.5667 712.465 69.1C716.799 66.6333 721.665 65.4 727.065 65.4C732.399 65.4 737.232 66.6333 741.565 69.1C745.899 71.5667 749.332 74.9333 751.865 79.2C754.465 83.4 755.765 88.2667 755.765 93.8C755.765 99.2667 754.465 104.133 751.865 108.4C749.265 112.667 745.799 116.033 741.465 118.5C737.132 120.967 732.332 122.2 727.065 122.2ZM727.065 110.2C729.999 110.2 732.565 109.5 734.765 108.1C737.032 106.7 738.799 104.767 740.065 102.3C741.399 99.7667 742.065 96.9333 742.065 93.8C742.065 90.6 741.399 87.8 740.065 85.4C738.799 82.9333 737.032 81 734.765 79.6C732.565 78.1333 729.999 77.4 727.065 77.4C724.065 77.4 721.432 78.1333 719.165 79.6C716.899 81 715.099 82.9333 713.765 85.4C712.499 87.8 711.865 90.6 711.865 93.8C711.865 96.9333 712.499 99.7667 713.765 102.3C715.099 104.767 716.899 106.7 719.165 108.1C721.432 109.5 724.065 110.2 727.065 110.2ZM791 122.2C785.733 122.2 781.033 120.967 776.9 118.5C772.766 115.967 769.5 112.533 767.1 108.2C764.7 103.867 763.5 99.0667 763.5 93.8C763.5 88.4667 764.7 83.6667 767.1 79.4C769.5 75.1333 772.766 71.7333 776.9 69.2C781.1 66.6667 785.766 65.4 790.9 65.4C795.033 65.4 798.7 66.2333 801.9 67.9C805.166 69.5 807.733 71.7667 809.6 74.7L807.6 77.4V45.3H820.7V121H808.3V110.5L809.7 113.1C807.833 116.033 805.233 118.3 801.9 119.9C798.566 121.433 794.933 122.2 791 122.2ZM792.4 110.2C795.4 110.2 798.033 109.5 800.3 108.1C802.566 106.7 804.333 104.767 805.6 102.3C806.933 99.8333 807.6 97 807.6 93.8C807.6 90.6667 806.933 87.8667 805.6 85.4C804.333 82.8667 802.566 80.9 800.3 79.5C798.033 78.1 795.4 77.4 792.4 77.4C789.466 77.4 786.833 78.1333 784.5 79.6C782.166 81 780.333 82.9333 779 85.4C777.733 87.8 777.1 90.6 777.1 93.8C777.1 97 777.733 99.8333 779 102.3C780.333 104.767 782.166 106.7 784.5 108.1C786.833 109.5 789.466 110.2 792.4 110.2ZM852.287 122.2C848.087 122.2 844.42 121.267 841.287 119.4C838.22 117.533 835.854 114.933 834.187 111.6C832.587 108.267 831.787 104.367 831.787 99.9V66.6H844.887V98.8C844.887 101.067 845.32 103.067 846.187 104.8C847.12 106.467 848.42 107.8 850.087 108.8C851.82 109.733 853.754 110.2 855.887 110.2C858.02 110.2 859.92 109.733 861.587 108.8C863.254 107.8 864.554 106.433 865.487 104.7C866.42 102.967 866.887 100.9 866.887 98.5V66.6H879.987V121H867.587V110.3L868.687 112.2C867.42 115.533 865.32 118.033 862.387 119.7C859.52 121.367 856.154 122.2 852.287 122.2ZM918.364 122.2C912.964 122.2 908.098 120.967 903.764 118.5C899.498 115.967 896.131 112.567 893.664 108.3C891.198 103.967 889.964 99.1 889.964 93.7C889.964 88.3 891.198 83.4667 893.664 79.2C896.131 74.9333 899.498 71.5667 903.764 69.1C908.098 66.6333 912.964 65.4 918.364 65.4C922.231 65.4 925.831 66.1 929.164 67.5C932.498 68.8333 935.364 70.7 937.764 73.1C940.231 75.4333 941.998 78.2333 943.064 81.5L931.564 86.5C930.564 83.7667 928.864 81.5667 926.464 79.9C924.131 78.2333 921.431 77.4 918.364 77.4C915.498 77.4 912.931 78.1 910.664 79.5C908.464 80.9 906.731 82.8333 905.464 85.3C904.198 87.7667 903.564 90.6 903.564 93.8C903.564 97 904.198 99.8333 905.464 102.3C906.731 104.767 908.464 106.7 910.664 108.1C912.931 109.5 915.498 110.2 918.364 110.2C921.498 110.2 924.231 109.367 926.564 107.7C928.898 106.033 930.564 103.8 931.564 101L943.064 106.2C941.998 109.267 940.264 112.033 937.864 114.5C935.464 116.9 932.598 118.8 929.264 120.2C925.931 121.533 922.298 122.2 918.364 122.2ZM977.804 121.6C971.671 121.6 966.904 119.933 963.504 116.6C960.171 113.2 958.504 108.433 958.504 102.3V78.3H949.104V66.6H950.104C952.771 66.6 954.838 65.9 956.304 64.5C957.771 63.1 958.504 61.0667 958.504 58.4V54.2H971.604V66.6H984.104V78.3H971.604V101.6C971.604 103.4 971.904 104.933 972.504 106.2C973.171 107.467 974.171 108.433 975.504 109.1C976.904 109.767 978.671 110.1 980.804 110.1C981.271 110.1 981.804 110.067 982.404 110C983.071 109.933 983.704 109.867 984.304 109.8V121C983.371 121.133 982.304 121.267 981.104 121.4C979.904 121.533 978.804 121.6 977.804 121.6ZM1015.01 122.2C1009.21 122.2 1004.15 120.833 999.813 118.1C995.546 115.3 992.613 111.533 991.013 106.8L1000.81 102.1C1002.21 105.167 1004.15 107.567 1006.61 109.3C1009.15 111.033 1011.95 111.9 1015.01 111.9C1017.41 111.9 1019.31 111.367 1020.71 110.3C1022.11 109.233 1022.81 107.833 1022.81 106.1C1022.81 105.033 1022.51 104.167 1021.91 103.5C1021.38 102.767 1020.61 102.167 1019.61 101.7C1018.68 101.167 1017.65 100.733 1016.51 100.4L1007.61 97.9C1003.01 96.5667 999.513 94.5333 997.113 91.8C994.78 89.0667 993.613 85.8333 993.613 82.1C993.613 78.7667 994.446 75.8667 996.113 73.4C997.846 70.8667 1000.21 68.9 1003.21 67.5C1006.28 66.1 1009.78 65.4 1013.71 65.4C1018.85 65.4 1023.38 66.6333 1027.31 69.1C1031.25 71.5667 1034.05 75.0333 1035.71 79.5L1025.71 84.2C1024.78 81.7333 1023.21 79.7667 1021.01 78.3C1018.81 76.8333 1016.35 76.1 1013.61 76.1C1011.41 76.1 1009.68 76.6 1008.41 77.6C1007.15 78.6 1006.51 79.9 1006.51 81.5C1006.51 82.5 1006.78 83.3667 1007.31 84.1C1007.85 84.8333 1008.58 85.4333 1009.51 85.9C1010.51 86.3667 1011.65 86.8 1012.91 87.2L1021.61 89.8C1026.08 91.1333 1029.51 93.1333 1031.91 95.8C1034.38 98.4667 1035.61 101.733 1035.61 105.6C1035.61 108.867 1034.75 111.767 1033.01 114.3C1031.28 116.767 1028.88 118.7 1025.81 120.1C1022.75 121.5 1019.15 122.2 1015.01 122.2Z" fill="#04A42A" fill-opacity="0.05"/>
<path d="M212.572 64V19.3H231.412C234.372 19.3 236.892 19.82 238.972 20.86C241.092 21.86 242.712 23.3 243.832 25.18C244.992 27.02 245.572 29.26 245.572 31.9C245.572 33.94 245.012 35.86 243.892 37.66C242.812 39.42 241.072 40.88 238.672 42.04V38.26C240.872 39.1 242.612 40.14 243.892 41.38C245.172 42.62 246.072 44 246.592 45.52C247.112 47.04 247.372 48.64 247.372 50.32C247.372 54.6 245.952 57.96 243.112 60.4C240.312 62.8 236.412 64 231.412 64H212.572ZM220.732 56.8H232.252C234.372 56.8 236.052 56.22 237.292 55.06C238.572 53.86 239.212 52.28 239.212 50.32C239.212 48.36 238.572 46.78 237.292 45.58C236.052 44.38 234.372 43.78 232.252 43.78H220.732V56.8ZM220.732 36.64H231.832C233.512 36.64 234.852 36.16 235.852 35.2C236.852 34.2 237.352 32.92 237.352 31.36C237.352 29.8 236.852 28.56 235.852 27.64C234.852 26.72 233.512 26.26 231.832 26.26H220.732V36.64ZM253.396 64V31.36H260.776V38.62L260.176 37.54C260.936 35.1 262.116 33.4 263.716 32.44C265.356 31.48 267.316 31 269.596 31H271.516V37.96H268.696C266.456 37.96 264.656 38.66 263.296 40.06C261.936 41.42 261.256 43.34 261.256 45.82V64H253.396ZM291.798 64.72C288.598 64.72 285.678 63.98 283.038 62.5C280.438 61.02 278.358 59 276.798 56.44C275.278 53.88 274.518 50.96 274.518 47.68C274.518 44.4 275.278 41.48 276.798 38.92C278.358 36.36 280.438 34.34 283.038 32.86C285.638 31.38 288.558 30.64 291.798 30.64C294.998 30.64 297.898 31.38 300.498 32.86C303.098 34.34 305.158 36.36 306.678 38.92C308.238 41.44 309.018 44.36 309.018 47.68C309.018 50.96 308.238 53.88 306.678 56.44C305.118 59 303.038 61.02 300.438 62.5C297.838 63.98 294.958 64.72 291.798 64.72ZM291.798 57.52C293.558 57.52 295.098 57.1 296.418 56.26C297.778 55.42 298.838 54.26 299.598 52.78C300.398 51.26 300.798 49.56 300.798 47.68C300.798 45.76 300.398 44.08 299.598 42.64C298.838 41.16 297.778 40 296.418 39.16C295.098 38.28 293.558 37.84 291.798 37.84C289.998 37.84 288.418 38.28 287.058 39.16C285.698 40 284.618 41.16 283.818 42.64C283.058 44.08 282.678 45.76 282.678 47.68C282.678 49.56 283.058 51.26 283.818 52.78C284.618 54.26 285.698 55.42 287.058 56.26C288.418 57.1 289.998 57.52 291.798 57.52ZM322.612 64L311.392 31.36H319.672L327.892 56.14L325.012 56.08L333.772 31.36H340.732L349.432 56.08L346.552 56.14L354.772 31.36H363.052L351.832 64H344.812L335.932 38.14H338.572L329.572 64H322.612ZM379.781 64.72C376.301 64.72 373.261 63.9 370.661 62.26C368.101 60.58 366.341 58.32 365.381 55.48L371.261 52.66C372.101 54.5 373.261 55.94 374.741 56.98C376.261 58.02 377.941 58.54 379.781 58.54C381.221 58.54 382.361 58.22 383.201 57.58C384.041 56.94 384.461 56.1 384.461 55.06C384.461 54.42 384.281 53.9 383.921 53.5C383.601 53.06 383.141 52.7 382.541 52.42C381.981 52.1 381.361 51.84 380.681 51.64L375.341 50.14C372.581 49.34 370.481 48.12 369.041 46.48C367.641 44.84 366.941 42.9 366.941 40.66C366.941 38.66 367.441 36.92 368.441 35.44C369.481 33.92 370.901 32.74 372.701 31.9C374.541 31.06 376.641 30.64 379.001 30.64C382.081 30.64 384.801 31.38 387.161 32.86C389.521 34.34 391.201 36.42 392.201 39.1L386.201 41.92C385.641 40.44 384.701 39.26 383.381 38.38C382.061 37.5 380.581 37.06 378.941 37.06C377.621 37.06 376.581 37.36 375.821 37.96C375.061 38.56 374.681 39.34 374.681 40.3C374.681 40.9 374.841 41.42 375.161 41.86C375.481 42.3 375.921 42.66 376.481 42.94C377.081 43.22 377.761 43.48 378.521 43.72L383.741 45.28C386.421 46.08 388.481 47.28 389.921 48.88C391.401 50.48 392.141 52.44 392.141 54.76C392.141 56.72 391.621 58.46 390.581 59.98C389.541 61.46 388.101 62.62 386.261 63.46C384.421 64.3 382.261 64.72 379.781 64.72ZM413.661 64.72C410.301 64.72 407.361 63.96 404.841 62.44C402.321 60.92 400.361 58.86 398.961 56.26C397.561 53.66 396.861 50.78 396.861 47.62C396.861 44.34 397.561 41.44 398.961 38.92C400.401 36.36 402.341 34.34 404.781 32.86C407.261 31.38 410.021 30.64 413.061 30.64C415.621 30.64 417.861 31.06 419.781 31.9C421.741 32.74 423.401 33.9 424.761 35.38C426.121 36.86 427.161 38.56 427.881 40.48C428.601 42.36 428.961 44.4 428.961 46.6C428.961 47.16 428.921 47.74 428.841 48.34C428.801 48.94 428.701 49.46 428.541 49.9H403.341V43.9H424.101L420.381 46.72C420.741 44.88 420.641 43.24 420.081 41.8C419.561 40.36 418.681 39.22 417.441 38.38C416.241 37.54 414.781 37.12 413.061 37.12C411.421 37.12 409.961 37.54 408.681 38.38C407.401 39.18 406.421 40.38 405.741 41.98C405.101 43.54 404.861 45.44 405.021 47.68C404.861 49.68 405.121 51.46 405.801 53.02C406.521 54.54 407.561 55.72 408.921 56.56C410.321 57.4 411.921 57.82 413.721 57.82C415.521 57.82 417.041 57.44 418.281 56.68C419.561 55.92 420.561 54.9 421.281 53.62L427.641 56.74C427.001 58.3 426.001 59.68 424.641 60.88C423.281 62.08 421.661 63.02 419.781 63.7C417.941 64.38 415.901 64.72 413.661 64.72ZM468.264 64.72C464.984 64.72 461.924 64.14 459.084 62.98C456.244 61.82 453.764 60.2 451.644 58.12C449.524 56.04 447.864 53.6 446.664 50.8C445.504 47.96 444.924 44.9 444.924 41.62C444.924 38.3 445.504 35.24 446.664 32.44C447.824 29.64 449.464 27.2 451.584 25.12C453.704 23.04 456.184 21.44 459.024 20.32C461.864 19.16 464.944 18.58 468.264 18.58C471.584 18.58 474.664 19.16 477.504 20.32C480.344 21.48 482.824 23.1 484.944 25.18C487.064 27.22 488.704 29.64 489.864 32.44C491.064 35.24 491.664 38.3 491.664 41.62C491.664 44.9 491.064 47.96 489.864 50.8C488.664 53.6 487.004 56.04 484.884 58.12C482.764 60.2 480.284 61.82 477.444 62.98C474.644 64.14 471.584 64.72 468.264 64.72ZM468.264 57.28C470.464 57.28 472.484 56.9 474.324 56.14C476.164 55.34 477.764 54.24 479.124 52.84C480.524 51.44 481.584 49.78 482.304 47.86C483.064 45.94 483.444 43.86 483.444 41.62C483.444 39.38 483.064 37.32 482.304 35.44C481.584 33.52 480.524 31.86 479.124 30.46C477.764 29.02 476.164 27.92 474.324 27.16C472.484 26.4 470.464 26.02 468.264 26.02C466.104 26.02 464.104 26.4 462.264 27.16C460.424 27.92 458.804 29.02 457.404 30.46C456.044 31.86 454.984 33.52 454.224 35.44C453.464 37.32 453.084 39.38 453.084 41.62C453.084 43.86 453.464 45.94 454.224 47.86C454.984 49.78 456.044 51.44 457.404 52.84C458.804 54.24 460.424 55.34 462.264 56.14C464.104 56.9 466.104 57.28 468.264 57.28ZM509.9 64.72C507.38 64.72 505.18 64.16 503.3 63.04C501.46 61.92 500.04 60.36 499.04 58.36C498.08 56.36 497.6 54.02 497.6 51.34V31.36H505.46V50.68C505.46 52.04 505.72 53.24 506.24 54.28C506.8 55.28 507.58 56.08 508.58 56.68C509.62 57.24 510.78 57.52 512.06 57.52C513.34 57.52 514.48 57.24 515.48 56.68C516.48 56.08 517.26 55.26 517.82 54.22C518.38 53.18 518.66 51.94 518.66 50.5V31.36H526.52V64H519.08V57.58L519.74 58.72C518.98 60.72 517.72 62.22 515.96 63.22C514.24 64.22 512.22 64.72 509.9 64.72ZM533.826 64V31.36H541.206V38.62L540.606 37.54C541.366 35.1 542.546 33.4 544.146 32.44C545.786 31.48 547.746 31 550.026 31H551.946V37.96H549.126C546.886 37.96 545.086 38.66 543.726 40.06C542.366 41.42 541.686 43.34 541.686 45.82V64H533.826ZM567.591 64V19.3H584.271C587.311 19.3 589.991 19.86 592.311 20.98C594.671 22.06 596.511 23.66 597.831 25.78C599.151 27.86 599.811 30.4 599.811 33.4C599.811 36.36 599.131 38.9 597.771 41.02C596.451 43.1 594.631 44.7 592.311 45.82C589.991 46.94 587.311 47.5 584.271 47.5H575.751V64H567.591ZM575.751 40.3H584.391C585.871 40.3 587.151 40.02 588.231 39.46C589.311 38.86 590.151 38.04 590.751 37C591.351 35.96 591.651 34.76 591.651 33.4C591.651 32 591.351 30.8 590.751 29.8C590.151 28.76 589.311 27.96 588.231 27.4C587.151 26.8 585.871 26.5 584.391 26.5H575.751V40.3ZM605.838 64V31.36H613.218V38.62L612.618 37.54C613.378 35.1 614.558 33.4 616.158 32.44C617.798 31.48 619.758 31 622.038 31H623.958V37.96H621.138C618.898 37.96 617.098 38.66 615.738 40.06C614.378 41.42 613.698 43.34 613.698 45.82V64H605.838ZM644.239 64.72C641.039 64.72 638.119 63.98 635.479 62.5C632.879 61.02 630.799 59 629.239 56.44C627.719 53.88 626.959 50.96 626.959 47.68C626.959 44.4 627.719 41.48 629.239 38.92C630.799 36.36 632.879 34.34 635.479 32.86C638.079 31.38 640.999 30.64 644.239 30.64C647.439 30.64 650.339 31.38 652.939 32.86C655.539 34.34 657.599 36.36 659.119 38.92C660.679 41.44 661.459 44.36 661.459 47.68C661.459 50.96 660.679 53.88 659.119 56.44C657.559 59 655.479 61.02 652.879 62.5C650.279 63.98 647.399 64.72 644.239 64.72ZM644.239 57.52C645.999 57.52 647.539 57.1 648.859 56.26C650.219 55.42 651.279 54.26 652.039 52.78C652.839 51.26 653.239 49.56 653.239 47.68C653.239 45.76 652.839 44.08 652.039 42.64C651.279 41.16 650.219 40 648.859 39.16C647.539 38.28 645.999 37.84 644.239 37.84C642.439 37.84 640.859 38.28 639.499 39.16C638.139 40 637.059 41.16 636.259 42.64C635.499 44.08 635.119 45.76 635.119 47.68C635.119 49.56 635.499 51.26 636.259 52.78C637.059 54.26 638.139 55.42 639.499 56.26C640.859 57.1 642.439 57.52 644.239 57.52ZM682.6 64.72C679.44 64.72 676.62 63.98 674.14 62.5C671.66 60.98 669.7 58.92 668.26 56.32C666.82 53.72 666.1 50.84 666.1 47.68C666.1 44.48 666.82 41.6 668.26 39.04C669.7 36.48 671.66 34.44 674.14 32.92C676.66 31.4 679.46 30.64 682.54 30.64C685.02 30.64 687.22 31.14 689.14 32.14C691.1 33.1 692.64 34.46 693.76 36.22L692.56 37.84V18.58H700.42V64H692.98V57.7L693.82 59.26C692.7 61.02 691.14 62.38 689.14 63.34C687.14 64.26 684.96 64.72 682.6 64.72ZM683.44 57.52C685.24 57.52 686.82 57.1 688.18 56.26C689.54 55.42 690.6 54.26 691.36 52.78C692.16 51.3 692.56 49.6 692.56 47.68C692.56 45.8 692.16 44.12 691.36 42.64C690.6 41.12 689.54 39.94 688.18 39.1C686.82 38.26 685.24 37.84 683.44 37.84C681.68 37.84 680.1 38.28 678.7 39.16C677.3 40 676.2 41.16 675.4 42.64C674.64 44.08 674.26 45.76 674.26 47.68C674.26 49.6 674.64 51.3 675.4 52.78C676.2 54.26 677.3 55.42 678.7 56.26C680.1 57.1 681.68 57.52 683.44 57.52ZM719.372 64.72C716.852 64.72 714.652 64.16 712.772 63.04C710.932 61.92 709.512 60.36 708.512 58.36C707.552 56.36 707.072 54.02 707.072 51.34V31.36H714.932V50.68C714.932 52.04 715.192 53.24 715.712 54.28C716.272 55.28 717.052 56.08 718.052 56.68C719.092 57.24 720.252 57.52 721.532 57.52C722.812 57.52 723.952 57.24 724.952 56.68C725.952 56.08 726.732 55.26 727.292 54.22C727.852 53.18 728.132 51.94 728.132 50.5V31.36H735.992V64H728.552V57.58L729.212 58.72C728.452 60.72 727.192 62.22 725.432 63.22C723.712 64.22 721.692 64.72 719.372 64.72ZM759.019 64.72C755.779 64.72 752.859 63.98 750.259 62.5C747.699 60.98 745.679 58.94 744.199 56.38C742.719 53.78 741.979 50.86 741.979 47.62C741.979 44.38 742.719 41.48 744.199 38.92C745.679 36.36 747.699 34.34 750.259 32.86C752.859 31.38 755.779 30.64 759.019 30.64C761.339 30.64 763.499 31.06 765.499 31.9C767.499 32.7 769.219 33.82 770.659 35.26C772.139 36.66 773.199 38.34 773.839 40.3L766.939 43.3C766.339 41.66 765.319 40.34 763.879 39.34C762.479 38.34 760.859 37.84 759.019 37.84C757.299 37.84 755.759 38.26 754.399 39.1C753.079 39.94 752.039 41.1 751.279 42.58C750.519 44.06 750.139 45.76 750.139 47.68C750.139 49.6 750.519 51.3 751.279 52.78C752.039 54.26 753.079 55.42 754.399 56.26C755.759 57.1 757.299 57.52 759.019 57.52C760.899 57.52 762.539 57.02 763.939 56.02C765.339 55.02 766.339 53.68 766.939 52L773.839 55.12C773.199 56.96 772.159 58.62 770.719 60.1C769.279 61.54 767.559 62.68 765.559 63.52C763.559 64.32 761.379 64.72 759.019 64.72ZM794.683 64.36C791.003 64.36 788.143 63.36 786.103 61.36C784.103 59.32 783.103 56.46 783.103 52.78V38.38H777.463V31.36H778.063C779.663 31.36 780.903 30.94 781.783 30.1C782.663 29.26 783.103 28.04 783.103 26.44V23.92H790.963V31.36H798.463V38.38H790.963V52.36C790.963 53.44 791.143 54.36 791.503 55.12C791.903 55.88 792.503 56.46 793.303 56.86C794.143 57.26 795.203 57.46 796.483 57.46C796.763 57.46 797.083 57.44 797.443 57.4C797.843 57.36 798.223 57.32 798.583 57.28V64C798.023 64.08 797.383 64.16 796.663 64.24C795.943 64.32 795.283 64.36 794.683 64.36ZM817.008 64.72C813.528 64.72 810.488 63.9 807.888 62.26C805.328 60.58 803.568 58.32 802.608 55.48L808.488 52.66C809.328 54.5 810.488 55.94 811.968 56.98C813.488 58.02 815.168 58.54 817.008 58.54C818.448 58.54 819.588 58.22 820.428 57.58C821.268 56.94 821.688 56.1 821.688 55.06C821.688 54.42 821.508 53.9 821.148 53.5C820.828 53.06 820.368 52.7 819.768 52.42C819.208 52.1 818.588 51.84 817.908 51.64L812.568 50.14C809.808 49.34 807.708 48.12 806.268 46.48C804.868 44.84 804.168 42.9 804.168 40.66C804.168 38.66 804.668 36.92 805.668 35.44C806.708 33.92 808.128 32.74 809.928 31.9C811.768 31.06 813.868 30.64 816.228 30.64C819.308 30.64 822.028 31.38 824.388 32.86C826.748 34.34 828.428 36.42 829.428 39.1L823.428 41.92C822.868 40.44 821.928 39.26 820.608 38.38C819.288 37.5 817.808 37.06 816.168 37.06C814.848 37.06 813.808 37.36 813.048 37.96C812.288 38.56 811.908 39.34 811.908 40.3C811.908 40.9 812.068 41.42 812.388 41.86C812.708 42.3 813.148 42.66 813.708 42.94C814.308 43.22 814.988 43.48 815.748 43.72L820.968 45.28C823.648 46.08 825.708 47.28 827.148 48.88C828.628 50.48 829.368 52.44 829.368 54.76C829.368 56.72 828.848 58.46 827.808 59.98C826.768 61.46 825.328 62.62 823.488 63.46C821.648 64.3 819.488 64.72 817.008 64.72Z" fill="#04A42A"/>
</svg>
