<svg width="51" height="50" viewBox="0 0 51 50" fill="none" xmlns="http://www.w3.org/2000/svg">
<path d="M8.9649 39.1144C10.8128 41.1887 13.0554 42.9188 15.5263 44.1661C18.6226 45.7291 21.9644 46.5216 25.4594 46.5216C31.3524 46.5216 36.8921 44.2286 41.0589 40.0646C45.2258 35.9006 47.5204 30.3648 47.5204 24.476C47.5204 21.1695 46.8062 17.991 45.3977 15.0281L45.4878 14.9852L45.3976 15.0281C45.2105 14.6343 45.3782 14.1635 45.7722 13.9765M8.9649 39.1144L46.7339 14.3936L46.8242 14.3507C46.6371 13.957 46.1657 13.7895 45.7722 13.9765M8.9649 39.1144L11.3362 39.9043C11.7498 40.0421 12.1971 39.8187 12.3351 39.4051C12.473 38.9915 12.2493 38.5447 11.8356 38.4068L6.939 36.7758L6.93897 36.7758C6.67942 36.6894 6.39348 36.7432 6.18337 36.9186C5.97334 37.0939 5.86897 37.3653 5.90762 37.6361L5.90762 37.6361L6.72372 43.3448L6.82271 43.3307L6.72372 43.3448C6.78007 43.7386 7.11789 44.0224 7.50464 44.0224C7.54183 44.0224 7.57934 44.0198 7.61705 44.0145L7.61717 44.0145C8.04888 43.9528 8.34894 43.5531 8.28722 43.1216L7.8789 40.2654L8.9649 39.1144ZM45.7722 13.9765L45.815 14.0669L45.7721 13.9766C45.7721 13.9765 45.7722 13.9765 45.7722 13.9765Z" fill="#333333" stroke="#333333" stroke-width="0.2"/>
<path d="M43.3964 6.08452L43.3823 5.98563C43.813 5.92419 44.214 6.22361 44.2757 6.65527L44.1767 6.66942L44.2757 6.65527L45.0918 12.364C45.1304 12.6348 45.0261 12.9062 44.816 13.0815L44.816 13.0815C44.6718 13.2017 44.4922 13.2648 44.3099 13.2648C44.2262 13.2648 44.1419 13.2514 44.0604 13.2243L44.0603 13.2243L39.1637 11.5932C38.75 11.4554 38.5265 11.0085 38.6643 10.595C38.8022 10.1815 39.2492 9.95779 39.6632 10.0958C39.6632 10.0958 39.6632 10.0958 39.6632 10.0958L42.0336 10.8854C37.8424 6.16293 31.9032 3.47836 25.5399 3.47836C19.647 3.47836 14.1073 5.77136 9.94045 9.93538C5.77355 14.0994 3.479 19.6352 3.479 25.524C3.479 28.8307 4.19317 32.0092 5.60173 34.9719L5.51142 35.0148L5.60174 34.9719C5.78886 35.3657 5.6212 35.8365 5.22731 36.0234M43.3964 6.08452L5.18443 35.9331M43.3964 6.08452L43.3823 5.98564C42.9506 6.04728 42.6505 6.44698 42.7123 6.87848L43.12 9.73045M43.3964 6.08452L43.2403 9.86543C43.2003 9.82026 43.1602 9.77527 43.12 9.73045M5.22731 36.0234L5.18443 35.9331M5.22731 36.0234C5.22732 36.0234 5.22733 36.0234 5.22734 36.0234L5.18443 35.9331M5.22731 36.0234C5.11809 36.0753 5.00263 36.1 4.88898 36.1C4.59384 36.1 4.31048 35.9338 4.17522 35.6493C2.66535 32.4732 1.89969 29.0662 1.89969 25.524C1.89969 19.214 4.35889 13.2812 8.82372 8.81923L8.82372 8.81922C13.2887 4.35748 19.2256 1.9 25.5399 1.9C32.3107 1.9 38.6344 4.73616 43.12 9.73045M5.18443 35.9331C5.08889 35.9785 4.98811 36 4.88898 36C4.63096 36 4.3836 35.8547 4.26553 35.6063C2.76209 32.4437 1.99969 29.0515 1.99969 25.524C1.99969 19.2405 4.44834 13.3331 8.8944 8.88996C13.3407 4.44696 19.2521 2 25.5399 2C32.3327 2 38.6731 4.86648 43.1455 9.90928L43.12 9.73045" fill="#333333" stroke="#333333" stroke-width="0.2"/>
<path d="M22.6313 32.7789H15.3769C15.7055 30.319 17.471 28.6467 19.3672 26.8563L19.3809 26.8433C21.3687 24.9664 23.4638 22.9883 23.4638 20.0148C23.4638 17.5477 21.2549 15.5567 18.5606 15.5567C15.8663 15.5567 13.6575 17.5477 13.6575 20.0148C13.6575 20.4746 14.0302 20.8473 14.4899 20.8473C14.9496 20.8473 15.3224 20.4746 15.3224 20.0148C15.3224 18.4877 16.7611 17.2216 18.5606 17.2216C20.3601 17.2216 21.7989 18.4877 21.7989 20.0148C21.7989 21.1366 21.3722 22.1045 20.7104 23.0133C20.0472 23.9241 19.153 24.7688 18.2242 25.6458L18.2141 25.6554C16.0952 27.656 13.6575 29.9576 13.6575 33.6113C13.6575 34.071 14.0302 34.4438 14.4899 34.4438H22.6313C23.0911 34.4438 23.4638 34.071 23.4638 33.6113C23.4638 33.1516 23.0911 32.7789 22.6313 32.7789Z" fill="#333333" stroke="#333333" stroke-width="0.2"/>
<path d="M27.9516 15.571L27.9517 15.571C28.4035 15.6557 28.7012 16.0908 28.6164 16.5427M27.9516 15.571L26.3511 28.0819H26.4529M27.9516 15.571C27.5003 15.4868 27.065 15.7838 26.9802 16.2358L26.9802 16.2358L24.6317 28.761L24.6317 28.761C24.5861 29.0044 24.6511 29.2554 24.8093 29.446C24.9675 29.6366 25.2022 29.7468 25.4498 29.7468H32.4456V33.6113C32.4456 34.071 32.8183 34.4437 33.2781 34.4437C33.7379 34.4437 34.1105 34.0709 34.1105 33.6112V29.7467H34.8437C35.3035 29.7467 35.6761 29.374 35.6761 28.9143C35.6761 28.4545 35.3035 28.0818 34.8437 28.0818H34.1105V16.3892C34.1105 15.9294 33.7379 15.5567 33.2781 15.5567C32.8182 15.5567 32.4456 15.9294 32.4456 16.3892V28.0819M27.9516 15.571L32.4456 28.0819M28.6164 16.5427L28.5181 16.5242L28.6164 16.5426L28.6164 16.5427ZM28.6164 16.5427L26.4529 28.0819M26.4529 28.0819H32.4456M26.4529 28.0819L26.4341 28.1819L32.4456 28.0819" fill="#333333" stroke="#333333" stroke-width="0.2"/>
<path d="M24.7321 4.9C24.2724 4.9 23.8997 5.2727 23.8997 5.73242V8.86367C23.8997 9.32339 24.2724 9.69609 24.7321 9.69609C25.1919 9.69609 25.5645 9.32338 25.5645 8.86367V5.73242C25.5645 5.27271 25.1919 4.9 24.7321 4.9Z" fill="#333333" stroke="#333333" stroke-width="0.2"/>
<path d="M24.7321 39.9C24.2724 39.9 23.8997 40.2727 23.8997 40.7324V43.8637C23.8997 44.3234 24.2724 44.6961 24.7321 44.6961C25.1919 44.6961 25.5645 44.3234 25.5645 43.8637V40.7324C25.5645 40.2727 25.1919 39.9 24.7321 39.9Z" fill="#333333" stroke="#333333" stroke-width="0.2"/>
<path d="M45.0196 24.9H41.8884C41.4285 24.9 41.0559 25.2727 41.0559 25.7324C41.0559 26.1921 41.4285 26.5648 41.8884 26.5648H45.0196C45.4794 26.5648 45.852 26.1921 45.852 25.7324C45.852 25.2727 45.4794 24.9 45.0196 24.9Z" fill="#333333" stroke="#333333" stroke-width="0.2"/>
<path d="M8.86337 24.9H5.73212C5.2724 24.9 4.89969 25.2727 4.89969 25.7324C4.89969 26.1921 5.2724 26.5648 5.73212 26.5648H8.86337C9.32309 26.5648 9.69579 26.1921 9.69579 25.7324C9.69579 25.2727 9.32309 24.9 8.86337 24.9Z" fill="#333333" stroke="#333333" stroke-width="0.2"/>
</svg>
