<svg width="65" height="39" viewBox="0 0 65 39" fill="none" xmlns="http://www.w3.org/2000/svg">
<path d="M14.2968 30.5869C13.2273 30.5869 12.3573 31.4569 12.3573 32.5264C12.3573 33.5959 13.2273 34.4659 14.2968 34.4659C15.3663 34.4659 16.2363 33.5959 16.2363 32.5264C16.2363 31.4569 15.3663 30.5869 14.2968 30.5869Z" fill="#333333"/>
<path d="M54.3779 30.5869C53.3084 30.5869 52.4384 31.4569 52.4384 32.5264C52.4384 33.5959 53.3084 34.4659 54.3779 34.4659C55.4474 34.4659 56.3174 33.5959 56.3174 32.5264C56.3174 31.4569 55.4474 30.5869 54.3779 30.5869Z" fill="#333333"/>
<path d="M62.322 18.1537L55.104 15.7477L51.7303 6.4705C51.3092 5.31237 50.1983 4.53425 48.966 4.53425H40.285V2.46562C40.285 1.39612 39.415 0.526123 38.3455 0.526123H2.27284C1.20334 0.526123 0.333344 1.39625 0.333344 2.46575V29.5202C0.333344 30.5897 1.20334 31.4597 2.27284 31.4597H8.44709C8.38409 31.806 8.34947 32.1621 8.34947 32.5262C8.34947 35.8057 11.0176 38.4739 14.2971 38.4739C17.5766 38.4739 20.2447 35.8057 20.2447 32.5262C20.2447 32.162 20.2101 31.806 20.1471 31.4597H48.528C48.465 31.806 48.4303 32.1621 48.4303 32.5262C48.4303 35.8057 51.0985 38.4739 54.378 38.4739C57.6575 38.4739 60.3256 35.8057 60.3256 32.5262C60.3256 32.063 60.2706 31.6125 60.17 31.1795L62.1538 30.1876C63.4981 29.5152 64.3333 28.1636 64.3333 26.6602V20.9444C64.3333 19.6764 63.5251 18.5549 62.322 18.1537ZM2.20834 2.46575C2.20834 2.43012 2.23722 2.40112 2.27284 2.40112H38.3455C38.3811 2.40112 38.41 2.43 38.41 2.46562V22.5705H2.20834V2.46575ZM14.297 36.5989C12.0513 36.5989 10.2243 34.7719 10.2243 32.5262C10.2243 30.2806 12.0513 28.4536 14.297 28.4536C16.5426 28.4536 18.3696 30.2806 18.3696 32.5262C18.3697 34.7719 16.5427 36.5989 14.297 36.5989ZM38.41 29.5846H19.4631C18.4377 27.791 16.5068 26.5786 14.297 26.5786C12.0871 26.5786 10.1563 27.791 9.13097 29.5846H2.27284C2.23722 29.5846 2.20834 29.5557 2.20834 29.5201V24.4455H38.41V29.5846ZM51.1706 10.4174L53.0393 15.5565H51.0263L49.1576 10.4174H51.1706ZM40.285 6.40925H48.966C49.4128 6.40925 49.8156 6.69137 49.9683 7.11125L50.4887 8.54225H40.285V6.40925ZM40.285 10.4174H47.1625L49.0312 15.5565H40.285V10.4174ZM54.3777 36.5989C52.1321 36.5989 50.3051 34.7719 50.3051 32.5262C50.3051 30.2806 52.1321 28.4536 54.3777 28.4536C56.6233 28.4536 58.4503 30.2806 58.4503 32.5262C58.4503 34.7719 56.6233 36.5989 54.3777 36.5989ZM62.4583 22.5704H61.3918C60.8741 22.5704 60.4543 22.9901 60.4543 23.5079C60.4543 24.0256 60.8741 24.4454 61.3918 24.4454H62.4583V26.6601C62.4583 27.4489 62.0202 28.1577 61.315 28.5105L59.4591 29.4384C58.4141 27.725 56.5273 26.5786 54.3777 26.5786C52.1678 26.5786 50.2371 27.791 49.2117 29.5846H40.285V24.4455H57.3838C57.9016 24.4455 58.3213 24.0257 58.3213 23.508C58.3213 22.9902 57.9016 22.5705 57.3838 22.5705H40.285V17.4314H54.2256L61.7291 19.9325C62.1653 20.0779 62.4583 20.4845 62.4583 20.9442V22.5704Z" fill="#333333"/>
<path d="M31.7966 11.6718L24.7824 7.66382C24.333 7.40695 23.7603 7.5632 23.5033 8.0127C23.2464 8.46232 23.4025 9.03495 23.8522 9.29182L27.8012 11.5484H9.28705C8.7693 11.5484 8.34955 11.9682 8.34955 12.4859C8.34955 13.0037 8.7693 13.4233 9.28705 13.4233H27.8012L23.8522 15.6799C23.4027 15.9368 23.2464 16.5094 23.5033 16.9591C23.6763 17.2618 23.9927 17.4316 24.3182 17.4316C24.4759 17.4316 24.6358 17.3917 24.7824 17.3078L31.7966 13.2998C32.0886 13.1329 32.2689 12.8223 32.2689 12.4858C32.2689 12.1493 32.0887 11.8388 31.7966 11.6718Z" fill="#333333"/>
</svg>
