<svg width="44" height="46" viewBox="0 0 44 46" fill="none" xmlns="http://www.w3.org/2000/svg">
<mask id="path-1-outside-1_1_1982" maskUnits="userSpaceOnUse" x="-0.559616" y="-1" width="45" height="48" fill="black">
<rect fill="white" x="-0.559616" y="-1" width="45" height="48"/>
<path d="M43.1788 10.1498L22.293 0.0669785C22.1078 -0.0223262 21.8922 -0.0223262 21.7071 0.0669785L0.821232 10.1498C0.588357 10.2622 0.440384 10.498 0.440384 10.7566V35.2434C0.440384 35.502 0.588357 35.7378 0.821232 35.8502L21.707 45.933C21.7996 45.9777 21.8998 46 22 46C22.1002 46 22.2004 45.9777 22.293 45.933L43.1788 35.8502C43.4117 35.7378 43.5596 35.502 43.5596 35.2434V10.7567C43.5596 10.4979 43.4116 10.2623 43.1788 10.1498ZM22 1.42209L41.3359 10.7566L35.7308 13.4625C35.6953 13.4355 35.6579 13.4105 35.6167 13.3906L16.4122 4.11965L22 1.42209ZM14.8904 4.88153L34.1982 14.2025L30.2437 16.1115L10.9439 6.79439L14.8904 4.88153ZM34.6499 15.4808V22.5376L30.9562 24.3208V17.264L34.6499 15.4808ZM42.212 34.8206L22.6738 44.2526V21.2623L27.3343 19.0124C27.6694 18.8506 27.8099 18.4478 27.6481 18.1126C27.4863 17.7776 27.0835 17.6369 26.7483 17.7988L22 20.0912L20.1316 19.1891C19.7964 19.0272 19.3936 19.1679 19.2318 19.503C19.07 19.8381 19.2105 20.2409 19.5457 20.4028L21.3262 21.2623V44.2526L1.78804 34.8204V11.8301L16.6662 19.0127C16.7606 19.0583 16.8604 19.0799 16.9586 19.0799C17.2091 19.0799 17.4497 18.9396 17.5659 18.6989C17.7277 18.3637 17.5872 17.9609 17.252 17.7991L2.66411 10.7566L9.35792 7.52509L29.5992 17.2968C29.6021 17.3009 29.6055 17.3046 29.6085 17.3086V25.3945C29.6085 25.6264 29.7277 25.8419 29.9241 25.9652C30.0332 26.0337 30.1576 26.0683 30.2824 26.0683C30.3823 26.0683 30.4825 26.0461 30.5753 26.0013L35.6167 23.5675C35.8496 23.4551 35.9976 23.2194 35.9976 22.9607V14.8303L42.212 11.8302V34.8206Z"/>
</mask>
<path d="M43.1788 10.1498L22.293 0.0669785C22.1078 -0.0223262 21.8922 -0.0223262 21.7071 0.0669785L0.821232 10.1498C0.588357 10.2622 0.440384 10.498 0.440384 10.7566V35.2434C0.440384 35.502 0.588357 35.7378 0.821232 35.8502L21.707 45.933C21.7996 45.9777 21.8998 46 22 46C22.1002 46 22.2004 45.9777 22.293 45.933L43.1788 35.8502C43.4117 35.7378 43.5596 35.502 43.5596 35.2434V10.7567C43.5596 10.4979 43.4116 10.2623 43.1788 10.1498ZM22 1.42209L41.3359 10.7566L35.7308 13.4625C35.6953 13.4355 35.6579 13.4105 35.6167 13.3906L16.4122 4.11965L22 1.42209ZM14.8904 4.88153L34.1982 14.2025L30.2437 16.1115L10.9439 6.79439L14.8904 4.88153ZM34.6499 15.4808V22.5376L30.9562 24.3208V17.264L34.6499 15.4808ZM42.212 34.8206L22.6738 44.2526V21.2623L27.3343 19.0124C27.6694 18.8506 27.8099 18.4478 27.6481 18.1126C27.4863 17.7776 27.0835 17.6369 26.7483 17.7988L22 20.0912L20.1316 19.1891C19.7964 19.0272 19.3936 19.1679 19.2318 19.503C19.07 19.8381 19.2105 20.2409 19.5457 20.4028L21.3262 21.2623V44.2526L1.78804 34.8204V11.8301L16.6662 19.0127C16.7606 19.0583 16.8604 19.0799 16.9586 19.0799C17.2091 19.0799 17.4497 18.9396 17.5659 18.6989C17.7277 18.3637 17.5872 17.9609 17.252 17.7991L2.66411 10.7566L9.35792 7.52509L29.5992 17.2968C29.6021 17.3009 29.6055 17.3046 29.6085 17.3086V25.3945C29.6085 25.6264 29.7277 25.8419 29.9241 25.9652C30.0332 26.0337 30.1576 26.0683 30.2824 26.0683C30.3823 26.0683 30.4825 26.0461 30.5753 26.0013L35.6167 23.5675C35.8496 23.4551 35.9976 23.2194 35.9976 22.9607V14.8303L42.212 11.8302V34.8206Z" fill="#333333"/>
<path d="M43.1788 10.1498L43.3093 9.87967L43.3092 9.87962L43.1788 10.1498ZM22.293 0.0669785L22.4234 -0.203187L22.4233 -0.203237L22.293 0.0669785ZM21.7071 0.0669785L21.5767 -0.203212L21.5767 -0.203187L21.7071 0.0669785ZM0.821232 10.1498L0.95163 10.42L0.951656 10.4199L0.821232 10.1498ZM0.821232 35.8502L0.951656 35.5801L0.95163 35.58L0.821232 35.8502ZM21.707 45.933L21.5766 46.2032L21.5767 46.2032L21.707 45.933ZM22.293 45.933L22.4233 46.2033L22.4234 46.2032L22.293 45.933ZM43.1788 35.8502L43.0484 35.58L43.0484 35.5801L43.1788 35.8502ZM43.5596 10.7567H43.2596H43.5596ZM22 1.42209L22.1304 1.15193L22 1.08896L21.8696 1.15193L22 1.42209ZM41.3359 10.7566L41.4663 11.0268L42.026 10.7566L41.4663 10.4864L41.3359 10.7566ZM35.7308 13.4625L35.549 13.7011L35.6954 13.8127L35.8613 13.7327L35.7308 13.4625ZM35.6167 13.3906L35.4863 13.6608L35.4864 13.6608L35.6167 13.3906ZM16.4122 4.11965L16.2818 3.84948L15.7221 4.11965L16.2818 4.38982L16.4122 4.11965ZM14.8904 4.88153L15.0208 4.61136L14.8901 4.54827L14.7596 4.61157L14.8904 4.88153ZM34.1982 14.2025L34.3286 14.4726L34.8882 14.2025L34.3286 13.9323L34.1982 14.2025ZM30.2437 16.1115L30.1133 16.3817L30.2437 16.4447L30.3741 16.3817L30.2437 16.1115ZM10.9439 6.79439L10.8131 6.52443L10.255 6.79493L10.8135 7.06455L10.9439 6.79439ZM34.6499 15.4808H34.9499V15.0028L34.5195 15.2106L34.6499 15.4808ZM34.6499 22.5376L34.7803 22.8078L34.9499 22.7259V22.5376H34.6499ZM30.9562 24.3208H30.6562V24.7988L31.0866 24.591L30.9562 24.3208ZM30.9562 17.264L30.8257 16.9938L30.6562 17.0757V17.264H30.9562ZM22.6738 44.2526H22.3738V44.7305L22.8043 44.5227L22.6738 44.2526ZM22.6738 21.2623L22.5434 20.9921L22.3738 21.074V21.2623H22.6738ZM27.3343 19.0124L27.4647 19.2826L27.4647 19.2826L27.3343 19.0124ZM27.6481 18.1126L27.9183 17.9822L27.9183 17.9822L27.6481 18.1126ZM26.7483 17.7988L26.8788 18.069L26.8788 18.069L26.7483 17.7988ZM22 20.0912L21.8696 20.3613L22 20.4243L22.1304 20.3613L22 20.0912ZM20.1316 19.1891L20.0011 19.4593L20.0012 19.4593L20.1316 19.1891ZM19.5457 20.4028L19.4152 20.6729L19.4152 20.6729L19.5457 20.4028ZM21.3262 21.2623H21.6262V21.074L21.4566 20.9921L21.3262 21.2623ZM21.3262 44.2526L21.1958 44.5227L21.6262 44.7305V44.2526H21.3262ZM1.78804 34.8204H1.48804V35.0087L1.65762 35.0906L1.78804 34.8204ZM1.78804 11.8301L1.91847 11.56L1.48804 11.3522V11.8301H1.78804ZM16.6662 19.0127L16.7967 18.7426L16.7966 18.7425L16.6662 19.0127ZM17.5659 18.6989L17.2957 18.5684L17.2957 18.5685L17.5659 18.6989ZM17.252 17.7991L17.3825 17.5289L17.3825 17.5289L17.252 17.7991ZM2.66411 10.7566L2.53368 10.4864L1.97406 10.7566L2.53368 11.0268L2.66411 10.7566ZM9.35792 7.52509L9.48834 7.25492L9.35792 7.19196L9.22749 7.25492L9.35792 7.52509ZM29.5992 17.2968L29.8429 17.1219L29.7984 17.0598L29.7296 17.0266L29.5992 17.2968ZM29.6085 17.3086H29.9085V17.208L29.8479 17.1278L29.6085 17.3086ZM29.9241 25.9652L29.7646 26.2193L29.7647 26.2193L29.9241 25.9652ZM30.5753 26.0013L30.4449 25.7311L30.4448 25.7311L30.5753 26.0013ZM35.6167 23.5675L35.4863 23.2973L35.4863 23.2973L35.6167 23.5675ZM35.9976 14.8303L35.8672 14.5601L35.6976 14.642V14.8303H35.9976ZM42.212 11.8302H42.512V11.3523L42.0816 11.5601L42.212 11.8302ZM43.3092 9.87962L22.4234 -0.203187L22.1626 0.337144L43.0484 10.4199L43.3092 9.87962ZM22.4233 -0.203237C22.1558 -0.332245 21.8442 -0.332272 21.5767 -0.203212L21.8375 0.337169C21.9402 0.28762 22.0598 0.287593 22.1627 0.337194L22.4233 -0.203237ZM21.5767 -0.203187L0.690807 9.87962L0.951656 10.4199L21.8375 0.337144L21.5767 -0.203187ZM0.690833 9.87961C0.354209 10.0421 0.140384 10.3829 0.140384 10.7566H0.740384C0.740384 10.6131 0.822504 10.4823 0.95163 10.42L0.690833 9.87961ZM0.140384 10.7566V35.2434H0.740384V10.7566H0.140384ZM0.140384 35.2434C0.140384 35.6171 0.354208 35.9579 0.690833 36.1204L0.95163 35.58C0.822506 35.5177 0.740384 35.3869 0.740384 35.2434H0.140384ZM0.690807 36.1204L21.5766 46.2032L21.8375 45.6629L0.951656 35.5801L0.690807 36.1204ZM21.5767 46.2032C21.7103 46.2677 21.8552 46.3 22 46.3V45.7C21.9445 45.7 21.8888 45.6876 21.8374 45.6628L21.5767 46.2032ZM22 46.3C22.1449 46.3 22.2896 46.2677 22.4233 46.2033L22.1627 45.6628C22.1111 45.6877 22.0555 45.7 22 45.7V46.3ZM22.4234 46.2032L43.3092 36.1204L43.0484 35.5801L22.1626 45.6629L22.4234 46.2032ZM43.3092 36.1204C43.6458 35.9579 43.8596 35.6171 43.8596 35.2434H43.2596C43.2596 35.3869 43.1775 35.5177 43.0484 35.58L43.3092 36.1204ZM43.8596 35.2434V10.7567H43.2596V35.2434H43.8596ZM43.8596 10.7567C43.8596 10.3827 43.6456 10.0422 43.3093 9.87967L43.0483 10.4199C43.1775 10.4824 43.2596 10.6131 43.2596 10.7567H43.8596ZM21.8696 1.69226L41.2055 11.0268L41.4663 10.4864L22.1304 1.15193L21.8696 1.69226ZM41.2055 10.4864L35.6004 13.1923L35.8613 13.7327L41.4663 11.0268L41.2055 10.4864ZM35.9127 13.2239C35.8675 13.1895 35.8124 13.152 35.7471 13.1204L35.4864 13.6608C35.5033 13.669 35.5232 13.6815 35.549 13.7011L35.9127 13.2239ZM35.7472 13.1205L16.5426 3.84948L16.2818 4.38982L35.4863 13.6608L35.7472 13.1205ZM16.5426 4.38982L22.1304 1.69226L21.8696 1.15193L16.2818 3.84948L16.5426 4.38982ZM14.76 5.15169L34.0678 14.4726L34.3286 13.9323L15.0208 4.61136L14.76 5.15169ZM34.0678 13.9323L30.1133 15.8414L30.3741 16.3817L34.3286 14.4726L34.0678 13.9323ZM30.3741 15.8414L11.0744 6.52422L10.8135 7.06455L30.1133 16.3817L30.3741 15.8414ZM11.0748 7.06435L15.0213 5.15148L14.7596 4.61157L10.8131 6.52443L11.0748 7.06435ZM34.3499 15.4808V22.5376H34.9499V15.4808H34.3499ZM34.5195 22.2675L30.8257 24.0507L31.0866 24.591L34.7803 22.8078L34.5195 22.2675ZM31.2562 24.3208V17.264H30.6562V24.3208H31.2562ZM31.0866 17.5341L34.7803 15.7509L34.5195 15.2106L30.8257 16.9938L31.0866 17.5341ZM42.0816 34.5504L22.5434 43.9824L22.8043 44.5227L42.3424 35.0908L42.0816 34.5504ZM22.9738 44.2526V21.2623H22.3738V44.2526H22.9738ZM22.8043 21.5325L27.4647 19.2826L27.2039 18.7423L22.5434 20.9921L22.8043 21.5325ZM27.4647 19.2826C27.9491 19.0487 28.1521 18.4666 27.9183 17.9822L27.378 18.243C27.4677 18.4291 27.3898 18.6525 27.2039 18.7423L27.4647 19.2826ZM27.9183 17.9822C27.6845 17.4981 27.1024 17.2946 26.6179 17.5287L26.8788 18.069C27.0647 17.9792 27.2882 18.0571 27.378 18.2431L27.9183 17.9822ZM26.6179 17.5286L21.8696 19.821L22.1304 20.3613L26.8788 18.069L26.6179 17.5286ZM22.1304 19.821L20.2621 18.919L20.0012 19.4593L21.8696 20.3613L22.1304 19.821ZM20.2622 18.919C19.7776 18.6849 19.1955 18.8883 18.9617 19.3725L19.502 19.6334C19.5918 19.4474 19.8153 19.3695 20.0011 19.4593L20.2622 18.919ZM18.9617 19.3725C18.7278 19.8569 18.9309 20.4391 19.4152 20.6729L19.6761 20.1326C19.4902 20.0428 19.4122 19.8193 19.502 19.6334L18.9617 19.3725ZM19.4152 20.6729L21.1958 21.5325L21.4566 20.9921L19.6761 20.1326L19.4152 20.6729ZM21.0262 21.2623V44.2526H21.6262V21.2623H21.0262ZM21.4566 43.9824L1.91846 34.5503L1.65762 35.0906L21.1958 44.5227L21.4566 43.9824ZM2.08804 34.8204V11.8301H1.48804V34.8204H2.08804ZM1.65762 12.1003L16.5357 19.2829L16.7966 18.7425L1.91847 11.56L1.65762 12.1003ZM16.5356 19.2828C16.6717 19.3486 16.8163 19.3799 16.9586 19.3799V18.7799C16.9046 18.7799 16.8495 18.7681 16.7967 18.7426L16.5356 19.2828ZM16.9586 19.3799C17.3198 19.3799 17.6679 19.1776 17.836 18.8293L17.2957 18.5685C17.2314 18.7016 17.0983 18.7799 16.9586 18.7799V19.3799ZM17.836 18.8293C18.0699 18.345 17.8668 17.7628 17.3825 17.5289L17.1216 18.0692C17.3075 18.159 17.3855 18.3825 17.2957 18.5684L17.836 18.8293ZM17.3825 17.5289L2.79453 10.4864L2.53368 11.0268L17.1216 18.0692L17.3825 17.5289ZM2.79453 11.0268L9.48834 7.79525L9.22749 7.25492L2.53368 10.4864L2.79453 11.0268ZM9.22749 7.79525L29.4688 17.5669L29.7296 17.0266L9.48834 7.25492L9.22749 7.79525ZM29.3554 17.4716C29.3628 17.4819 29.3695 17.4901 29.3713 17.4923C29.3716 17.4926 29.3718 17.493 29.372 17.4932C29.3722 17.4935 29.3724 17.4936 29.3725 17.4937C29.3727 17.494 29.3727 17.494 29.3725 17.4938C29.3722 17.4934 29.3709 17.4918 29.3692 17.4895L29.8479 17.1278C29.8446 17.1234 29.8418 17.1199 29.8399 17.1175C29.8389 17.1163 29.8381 17.1153 29.8375 17.1146C29.8372 17.1143 29.837 17.1139 29.8368 17.1137C29.8366 17.1135 29.8365 17.1133 29.8363 17.1132C29.8358 17.1125 29.8365 17.1133 29.8375 17.1146C29.8386 17.116 29.8405 17.1185 29.8429 17.1219L29.3554 17.4716ZM29.3085 17.3086V25.3945H29.9085V17.3086H29.3085ZM29.3085 25.3945C29.3085 25.7296 29.4809 26.0411 29.7646 26.2193L30.0837 25.7112C29.9746 25.6427 29.9085 25.5231 29.9085 25.3945H29.3085ZM29.7647 26.2193C29.9224 26.3183 30.1023 26.3683 30.2824 26.3683V25.7683C30.213 25.7683 30.144 25.7491 30.0836 25.7112L29.7647 26.2193ZM30.2824 26.3683C30.4268 26.3683 30.5716 26.3362 30.7058 26.2714L30.4448 25.7311C30.3934 25.756 30.3379 25.7683 30.2824 25.7683V26.3683ZM30.7057 26.2714L35.7472 23.8377L35.4863 23.2973L30.4449 25.7311L30.7057 26.2714ZM35.7471 23.8377C36.0837 23.6752 36.2976 23.3345 36.2976 22.9607H35.6976C35.6976 23.1042 35.6155 23.235 35.4863 23.2973L35.7471 23.8377ZM36.2976 22.9607V14.8303H35.6976V22.9607H36.2976ZM36.128 15.1004L42.3424 12.1004L42.0816 11.5601L35.8672 14.5601L36.128 15.1004ZM41.912 11.8302V34.8206H42.512V11.8302H41.912Z" fill="#333333" mask="url(#path-1-outside-1_1_1982)"/>
</svg>
