<svg width="50" height="50" viewBox="0 0 50 50" fill="none" xmlns="http://www.w3.org/2000/svg">
<g clip-path="url(#clip0_1_2031)">
<path d="M25.1961 -0.0719573L25.1961 -0.071946L48.7016 6.19122C49.0501 6.28401 49.2992 6.59068 49.3186 6.95073C49.3353 7.25814 49.6858 14.4431 46.9328 23.3846C45.3137 28.6431 42.9496 33.4059 39.9055 37.5403C36.0955 42.7147 31.2086 46.9076 25.3816 50.0027L25.3816 50.0028C25.2594 50.0676 25.1253 50.1 24.9912 50.1C24.8503 50.1 24.7096 50.0642 24.5829 49.993C18.7666 46.7195 13.8885 42.418 10.085 37.2074C7.04461 33.0422 4.68318 28.2935 3.06575 23.0936C0.31418 14.2473 0.664918 7.2494 0.681607 6.94959L25.1961 -0.0719573ZM25.1961 -0.0719573C25.0555 -0.109346 24.9077 -0.109351 24.7672 -0.0719523L24.7671 -0.0719359M25.1961 -0.0719573L24.7671 -0.0719359M24.7671 -0.0719359L1.29824 6.19133L1.29823 6.19134M24.7671 -0.0719359L1.29823 6.19134M1.29823 6.19134C0.950425 6.28423 0.701589 6.59008 0.681607 6.94958L1.29823 6.19134ZM41.4192 9.97382L41.5159 9.99957L41.4192 9.97383C41.3009 10.418 41.5649 10.8743 42.0094 10.9926L42.8356 11.2128C42.5292 14.9327 41.6397 20.3125 39.2098 25.9563C36.1193 33.135 31.36 38.8089 25.0591 42.8315C24.4423 42.4223 23.8357 41.996 23.2507 41.5604C22.8821 41.2858 22.3605 41.3621 22.0858 41.7309C21.8112 42.0996 21.8874 42.6212 22.2563 42.8958C22.8744 43.3562 23.5159 43.8051 24.1675 44.2366V47.823C19.1103 44.7717 14.8365 40.885 11.4497 36.2528C8.51872 32.2441 6.23817 27.6679 4.67172 22.6508C2.44788 15.5277 2.31025 9.50769 2.32929 7.63941L24.1675 1.81131V4.94991L6.0789 9.77736L6.07889 9.77736C5.69311 9.88036 5.43473 10.2427 5.46314 10.6411L5.46314 10.6411C5.6527 13.2937 6.18617 17.4204 7.65198 22.0186C10.0754 29.6208 14.1465 35.9655 19.753 40.8742C19.9109 41.0124 20.1066 41.0803 20.3012 41.0803C20.5327 41.0803 20.7632 40.9842 20.9279 40.7962L20.9279 40.7961C21.2308 40.4502 21.1959 39.9242 20.8499 39.6214C15.4764 34.917 11.5694 28.8252 9.23833 21.513C7.94299 17.4495 7.40125 13.7668 7.17831 11.2075L24.9829 6.4559L38.8433 10.1491L38.8434 10.1491C39.2876 10.2673 39.7438 10.0034 39.8621 9.55899C39.9804 9.11485 39.7164 8.65856 39.2719 8.54024L25.8326 4.95916V1.82073L47.6707 7.63974C47.6906 9.54033 47.558 15.7218 45.3264 22.944C43.7591 28.0163 41.4777 32.6033 38.5462 36.5783C35.1604 41.1691 30.8877 44.956 25.8327 47.8515V44.3106C32.4805 40.1008 37.4954 34.1491 40.7391 26.6147C43.4157 20.3979 44.2877 14.4973 44.5479 10.6421C44.5748 10.2448 44.3165 9.88409 43.9316 9.78164L42.438 9.3837C41.9939 9.26538 41.5376 9.52942 41.4192 9.97382Z" fill="#333333" stroke="#333333" stroke-width="0.2"/>
<path d="M34.3951 16.3412C35.0358 16.3412 35.6386 16.5909 36.0912 17.0442C36.5437 17.4964 36.7934 18.099 36.7934 18.7395C36.7934 19.3801 36.5436 19.9828 36.0906 20.4354C36.0906 20.4354 36.0906 20.4354 36.0905 20.4354L25.1301 31.3959C24.6777 31.8489 24.0751 32.0986 23.4342 32.0986C22.7934 32.0986 22.1908 31.8488 21.7381 31.3956L15.0166 24.674C14.5636 24.2213 14.3139 23.6189 14.3139 22.9783C14.3139 22.3376 14.5639 21.7351 15.0168 21.2823C15.4689 20.8295 16.0715 20.5798 16.7124 20.5798C17.3531 20.5798 17.9559 20.8296 18.4084 21.2827L34.3951 16.3412ZM34.3951 16.3412C33.7542 16.3412 33.1515 16.5908 32.6993 17.0438L34.3951 16.3412ZM23.4343 26.3083L18.4084 21.2828L23.4343 26.3083ZM23.4343 26.3083L32.6992 17.0438L23.4343 26.3083ZM34.9134 19.2578L34.9134 19.2578L23.9524 30.2189L23.9524 30.2189C23.8141 30.3573 23.6305 30.4334 23.4342 30.4334C23.238 30.4334 23.0544 30.3573 22.9158 30.2186L22.9158 30.2186L16.1937 23.4964L16.1937 23.4964C16.0551 23.3579 15.979 23.1743 15.979 22.9782C15.979 22.7821 16.0551 22.5985 16.1942 22.4593L16.1943 22.4593C16.3325 22.3209 16.5162 22.2448 16.7124 22.2448C16.9084 22.2448 17.092 22.3208 17.2308 22.4596L17.3015 22.3889L17.2308 22.4596L22.8458 28.0742C23.1709 28.3993 23.698 28.3991 24.023 28.0742L33.877 18.2206L33.8771 18.2205C34.0153 18.0821 34.199 18.006 34.3952 18.006C34.5913 18.006 34.7748 18.0821 34.9137 18.221L34.9137 18.2211C35.0523 18.3595 35.1285 18.5433 35.1285 18.7393C35.1285 18.9353 35.0522 19.1191 34.9134 19.2578Z" fill="#333333" stroke="#333333" stroke-width="0.2"/>
</g>
<defs>
<clipPath id="clip0_1_2031">
<rect width="50" height="50" fill="white"/>
</clipPath>
</defs>
</svg>
