<svg width="459" height="460" viewBox="0 0 459 460" fill="none" xmlns="http://www.w3.org/2000/svg">
<path d="M443.573 178.186C438.614 116.922 436.135 86.2894 424.594 66.4709C391.551 9.72435 295.479 -3.77228 234.803 1.40334C153.572 8.33041 60.6447 55.1242 19.7394 145.471C-17.4132 227.532 -0.281939 320.419 55.699 381.182C158.321 492.569 370.007 472.682 421.719 399.592C442.355 370.422 443.843 323.832 446.029 255.393C447.08 222.448 445.029 196.194 443.573 178.186Z" fill="#F4F7FA"/>
<path d="M404.647 37.8669C399.395 33.5129 391.429 31.1416 384.694 30.6627C336.958 27.273 329.992 127.261 337.309 149.607C344.625 171.953 339.884 179.29 302.288 190.981C264.692 202.672 282.728 225.182 287.311 238.345C291.893 251.509 300.968 262.629 273.561 275.709C246.153 288.789 255.678 296.894 255.678 296.894C255.678 296.894 306.221 348.701 303.429 332.115C300.637 315.529 305.696 290.484 351.011 288.58C370.53 287.76 400.42 278.43 407.038 257.487C408.58 252.609 409.652 245.161 408.48 240.113C406.853 233.111 402.268 227.594 399.721 221.003C393.787 205.645 408.671 194.398 417.237 184.132C421.71 178.773 426.179 173.278 429.603 167.167C436.713 154.481 434.051 140.876 426.308 129.182C422.595 123.575 417.437 117.625 415.816 110.936C414.077 103.751 415.594 93.9346 416.006 86.5434C416.33 80.7462 416.882 74.972 416.556 69.1601C415.954 58.353 413.427 45.1466 404.647 37.8669Z" fill="url(#paint0_linear_668_1316)"/>
<g opacity="0.8">
<g opacity="0.8">
<path opacity="0.8" d="M251.704 325.972C251.376 326.09 251.005 325.951 250.84 325.634C250.66 325.288 250.792 324.86 251.137 324.68C251.35 324.568 272.628 313.353 296.365 294.88C318.237 277.86 346.731 251.022 358.267 219.822C367.903 193.766 376.689 150.688 382.376 101.637C387.476 57.6529 388.281 25.1232 386.114 19.085C385.981 18.7176 386.173 18.3125 386.539 18.1797C386.906 18.0469 387.31 18.2387 387.443 18.6061C389.978 25.6709 388.369 62.2135 383.78 101.801C378.082 150.96 369.266 194.156 359.592 220.314C347.937 251.834 319.237 278.878 297.212 296.014C273.378 314.558 252.006 325.821 251.794 325.932C251.763 325.947 251.733 325.96 251.704 325.972Z" fill="white"/>
</g>
<g opacity="0.8">
<path opacity="0.8" d="M382.299 110.164C381.934 110.295 381.563 110.193 381.429 109.828C381.252 109.344 363.456 61.3676 340.509 50.5359C340.155 50.3702 340.013 49.9701 340.178 49.6159C340.345 49.2616 340.769 49.1223 341.121 49.2879C364.593 60.3673 382.019 107.337 382.751 109.336C382.885 109.703 382.669 110.031 382.302 110.162C382.301 110.164 382.299 110.164 382.299 110.164Z" fill="white"/>
</g>
<g opacity="0.8">
<path opacity="0.8" d="M373.619 165.801C373.348 165.899 373.03 165.822 372.835 165.585C372.588 165.283 372.631 164.837 372.932 164.589C373.063 164.481 386.165 153.711 402.331 144.674C424.174 132.463 440.914 129.053 452.085 134.542C452.435 134.714 452.579 135.138 452.407 135.489C452.235 135.839 451.813 135.984 451.463 135.812C425.759 123.184 374.344 165.253 373.829 165.68C373.765 165.734 373.693 165.775 373.619 165.801Z" fill="white"/>
</g>
<g opacity="0.8">
<path opacity="0.8" d="M316.578 279.526C316.506 279.552 316.431 279.565 316.35 279.567C315.961 279.574 315.64 279.262 315.634 278.87C315.63 278.665 315.267 258.081 310.968 236.391C307.025 216.505 298.885 191.596 282.494 185.856C282.125 185.727 281.931 185.323 282.06 184.956C282.188 184.587 282.592 184.392 282.958 184.522C296.627 189.307 306.516 206.672 312.356 236.135C316.678 257.948 317.041 278.642 317.044 278.849C317.051 279.16 316.854 279.426 316.578 279.526Z" fill="white"/>
</g>
<g opacity="0.8">
<path opacity="0.8" d="M345.746 246.269C345.46 246.373 345.129 246.281 344.939 246.023C344.707 245.709 344.774 245.266 345.087 245.035C347.36 243.35 400.979 203.849 421.889 207.621C422.274 207.69 422.528 208.059 422.459 208.443C422.39 208.828 422.023 209.084 421.639 209.013C401.321 205.348 346.478 245.763 345.926 246.171C345.871 246.215 345.808 246.246 345.746 246.269Z" fill="white"/>
</g>
</g>
<path d="M446.544 185.139C443.073 179.261 436.376 174.328 430.201 171.594C386.424 152.219 346.106 243.947 345.445 267.455C344.784 290.963 337.845 296.26 298.521 294.514C259.195 292.767 268.566 320.066 268.433 334.007C268.3 347.948 273.084 361.489 242.877 364.504C212.67 367.52 218.895 378.375 218.895 378.375C218.895 378.375 248.963 444.264 251.937 427.709C254.91 411.154 268.127 389.302 311.412 402.877C330.055 408.724 361.333 410.08 374.633 392.616C377.731 388.549 381.254 381.904 381.855 376.756C382.688 369.616 380.236 362.869 380.064 355.805C379.665 339.34 397.471 333.803 408.997 327.048C415.014 323.523 421.076 319.866 426.362 315.277C437.337 305.751 439.426 292.046 436.09 278.416C434.489 271.881 431.643 264.533 432.378 257.689C433.167 250.339 437.909 241.615 440.793 234.799C443.055 229.455 445.524 224.207 447.18 218.628C450.265 208.249 452.349 194.965 446.544 185.139Z" fill="url(#paint1_linear_668_1316)"/>
<g opacity="0.8">
<g opacity="0.8">
<path opacity="0.8" d="M205.336 404.387C204.989 404.387 204.686 404.13 204.637 403.775C204.584 403.388 204.855 403.031 205.241 402.978C205.478 402.946 229.288 399.607 257.862 390.272C284.19 381.672 320.067 366.078 341.458 340.632C359.324 319.378 382.139 281.822 404.052 237.593C423.702 197.933 435.444 167.594 435.444 161.177C435.444 160.787 435.76 160.47 436.149 160.47C436.539 160.47 436.855 160.787 436.855 161.177C436.855 168.685 423.001 202.526 405.315 238.223C383.353 282.549 360.471 320.208 342.536 341.543C320.926 367.251 284.786 382.968 258.274 391.625C229.584 400.994 205.67 404.346 205.431 404.379C205.401 404.386 205.368 404.387 205.336 404.387Z" fill="white"/>
</g>
<g opacity="0.8">
<path opacity="0.8" d="M401.102 245.737C400.714 245.737 400.398 245.442 400.397 245.053C400.393 244.538 399.848 193.322 381.912 175.348C381.635 175.073 381.635 174.628 381.912 174.353C382.187 174.077 382.634 174.079 382.91 174.354C401.258 192.74 401.794 242.915 401.809 245.044C401.812 245.434 401.498 245.737 401.107 245.737C401.104 245.737 401.102 245.737 401.102 245.737Z" fill="white"/>
</g>
<g opacity="0.8">
<path opacity="0.8" d="M374.148 295.006C373.858 295.006 373.586 294.825 373.483 294.536C373.352 294.169 373.542 293.764 373.91 293.631C374.069 293.574 390.035 287.882 408.301 284.859C432.978 280.774 449.882 283.244 458.542 292.196C458.814 292.477 458.806 292.924 458.526 293.197C458.246 293.469 457.799 293.461 457.528 293.18C437.604 272.583 375.017 294.737 374.387 294.963C374.306 294.992 374.226 295.006 374.148 295.006Z" fill="white"/>
</g>
<g opacity="0.8">
<path opacity="0.8" d="M282.068 382.68C281.993 382.68 281.916 382.667 281.839 382.642C281.471 382.516 281.273 382.114 281.401 381.743C281.466 381.548 288.076 362.056 291.354 340.187C294.359 320.138 295.11 293.938 281.623 282.978C281.32 282.732 281.275 282.286 281.52 281.983C281.766 281.68 282.211 281.632 282.513 281.88C293.76 291.017 297.203 310.713 292.747 340.415C289.449 362.407 282.803 382.004 282.736 382.201C282.636 382.494 282.361 382.68 282.068 382.68Z" fill="white"/>
</g>
<g opacity="0.8">
<path opacity="0.8" d="M320.744 361.275C320.44 361.275 320.16 361.077 320.068 360.772C319.955 360.398 320.168 360.003 320.541 359.891C323.248 359.078 387.044 340.088 405.446 350.727C405.784 350.923 405.9 351.355 405.705 351.693C405.51 352.031 405.078 352.148 404.741 351.952C386.859 341.614 321.603 361.049 320.947 361.246C320.88 361.266 320.811 361.275 320.744 361.275Z" fill="white"/>
</g>
</g>
<path d="M299.797 19.8936L299.293 23.5112C297.619 23.5883 295.973 23.8048 294.37 24.1656L293.006 20.7906C292.634 19.8706 291.582 19.4327 290.657 19.8148L284.869 22.2042C283.942 22.5863 283.491 23.6457 283.861 24.5674L285.232 27.985C283.829 28.8804 282.504 29.8939 281.27 31.0156L278.363 28.7557C277.578 28.1457 276.439 28.2966 275.819 29.0936L271.93 34.079C271.307 34.8776 271.439 36.0223 272.225 36.634L275.143 38.9069C274.365 40.3697 273.712 41.9145 273.185 43.5266L269.482 43.0395C268.487 42.9083 267.561 43.6152 267.413 44.6188L266.482 50.9063C266.333 51.9132 267.021 52.8381 268.017 52.9693L271.732 53.458C271.776 55.1554 271.961 56.8248 272.29 58.45L268.804 59.9062C267.865 60.2982 267.404 61.3822 267.773 62.3251L270.096 68.2387C270.467 69.1866 271.533 69.6343 272.475 69.2391L275.963 67.7763C276.84 69.2063 277.84 70.5543 278.949 71.8072L276.625 74.8312C275.997 75.6496 276.131 76.8205 276.927 77.4469L281.908 81.3631C282.705 81.9895 283.862 81.8321 284.489 81.0105L286.785 78.0062C288.251 78.7884 289.803 79.4394 291.421 79.9593L290.899 83.7082C290.757 84.7348 291.456 85.6745 292.461 85.8057L298.75 86.6322C299.756 86.765 300.684 86.0385 300.825 85.0119L301.332 81.2909C303.042 81.2171 304.723 80.9957 306.358 80.6268L307.738 84.0641C308.121 85.0185 309.193 85.4695 310.132 85.071L315.997 82.5799C316.935 82.1814 317.382 81.0876 316.997 80.1364L315.618 76.7237C317.05 75.7972 318.398 74.746 319.648 73.5833L322.516 75.8168C323.317 76.4417 324.466 76.2842 325.082 75.4659L328.923 70.3624C329.536 69.5474 329.384 68.3847 328.584 67.7631L325.743 65.5558C326.517 64.052 327.16 62.4629 327.671 60.8082L331.222 61.2756C332.219 61.4068 333.132 60.6934 333.261 59.6832L334.068 53.3793C334.197 52.374 333.495 51.4524 332.5 51.3212L328.959 50.8555C328.885 49.1368 328.669 47.451 328.306 45.8127L331.59 44.4351C332.513 44.0481 332.95 42.9789 332.567 42.0474L330.168 36.2355C329.785 35.3073 328.728 34.8678 327.805 35.2531L324.501 36.634C323.601 35.2187 322.583 33.8838 321.452 32.6489L323.635 29.7938C324.242 28.9985 324.093 27.862 323.304 27.2536L318.37 23.4538C317.581 22.8471 316.451 22.9963 315.842 23.7884L313.646 26.6468C312.189 25.8891 310.651 25.2594 309.045 24.7609L309.535 21.1711C309.669 20.1838 308.98 19.2769 307.993 19.1474L301.828 18.3373C300.846 18.211 299.935 18.9047 299.797 19.8936ZM278.062 49.1975C279.845 36.7734 291.223 28.0637 303.489 29.6757C315.755 31.2878 324.37 42.6263 322.722 55.0668C321.064 67.5844 309.661 76.4646 297.26 74.8362C284.86 73.2061 276.27 61.697 278.062 49.1975Z" fill="#D8DEE8"/>
<path d="M205.268 17.9319L204.489 23.5257C201.902 23.6438 199.355 23.9784 196.877 24.536L194.768 19.3177C194.192 17.8942 192.567 17.2186 191.138 17.809L182.188 21.5037C180.756 22.0957 180.057 23.7307 180.63 25.1591L182.751 30.443C180.583 31.8271 178.532 33.3932 176.625 35.1299L172.125 31.6352C170.912 30.6922 169.15 30.9268 168.191 32.1567L162.178 39.8644C161.214 41.0993 161.419 42.8687 162.633 43.815L167.145 47.331C165.944 49.5925 164.932 51.9818 164.117 54.4729L158.391 53.7202C156.854 53.5184 155.422 54.6106 155.192 56.162L153.753 65.8852C153.522 67.4431 154.586 68.8715 156.128 69.0732L161.87 69.8276C161.939 72.4515 162.224 75.0343 162.734 77.5467L157.345 79.7983C155.892 80.4051 155.179 82.0795 155.751 83.539L159.342 92.6816C159.916 94.1461 161.564 94.8398 163.021 94.2281L168.413 91.9666C169.768 94.1773 171.315 96.2616 173.032 98.1984L169.439 102.874C168.467 104.14 168.675 105.95 169.906 106.918L177.609 112.973C178.841 113.942 180.63 113.697 181.6 112.428L185.15 107.784C187.417 108.994 189.817 110.001 192.32 110.805L191.511 116.602C191.29 118.189 192.37 119.642 193.927 119.845L203.651 121.123C205.206 121.328 206.643 120.205 206.859 118.617L207.644 112.864C210.289 112.751 212.888 112.408 215.415 111.838L217.547 117.153C218.139 118.629 219.797 119.326 221.249 118.709L230.318 114.858C231.767 114.243 232.459 112.551 231.863 111.078L229.729 105.801C231.944 104.369 234.028 102.743 235.963 100.945L240.395 104.399C241.633 105.365 243.409 105.121 244.362 103.858L250.301 95.9681C251.248 94.7086 251.014 92.9096 249.777 91.9486L245.384 88.5375C246.582 86.2105 247.576 83.7539 248.365 81.1972L253.857 81.9188C255.398 82.1221 256.811 81.0184 257.01 79.4572L258.257 69.7095C258.457 68.1532 257.37 66.7297 255.834 66.528L250.358 65.8081C250.245 63.1514 249.911 60.5439 249.348 58.0119L254.428 55.8816C255.857 55.283 256.533 53.63 255.937 52.1901L252.227 43.2033C251.634 41.7683 249.999 41.0894 248.574 41.6847L243.466 43.8183C242.075 41.6289 240.499 39.5659 238.753 37.6587L242.128 33.244C243.067 32.0157 242.838 30.2577 241.615 29.3163L233.986 23.4421C232.767 22.5041 231.017 22.7353 230.076 23.9603L226.679 28.3799C224.425 27.209 222.047 26.2349 219.566 25.4625L220.324 19.9113C220.532 18.3846 219.465 16.9841 217.941 16.784L208.409 15.5311C206.888 15.331 205.481 16.4052 205.268 17.9319ZM171.662 63.2416C174.416 44.0314 192.01 30.5643 210.975 33.057C229.939 35.5497 243.259 53.0806 240.712 72.317C238.149 91.6698 220.519 105.403 201.347 102.882C182.173 100.363 168.889 82.5665 171.662 63.2416Z" fill="#D8DEE8"/>
<path d="M196.148 72.0988L154.455 419.361C153.83 424.568 157.411 429.235 162.428 429.733L336.084 448.839C346.722 449.501 352.546 444.055 353.204 438.518L396.977 69.3208C397.63 63.8155 392.411 58.8285 381.727 58.8285L206.492 62.5265C201.417 62.6135 196.769 66.9199 196.148 72.0988Z" fill="url(#paint2_linear_668_1316)"/>
<path d="M188.331 71.5023L146.41 420.501C145.781 425.734 149.375 430.426 154.409 430.928L334.441 448.89C340.086 449.452 345.259 445.361 345.918 439.796L389.936 68.6914C390.592 63.1567 386.447 58.7092 380.74 58.8059L198.712 61.8841C193.622 61.9677 188.956 66.2971 188.331 71.5023Z" fill="url(#paint3_linear_668_1316)"/>
<path d="M191.749 90.7514L152.892 414.343C152.305 419.231 155.671 423.607 160.383 424.066L329.697 440.559C334.944 441.07 339.752 437.251 340.367 432.07L381.047 89.2558C381.659 84.1032 377.81 79.9328 372.509 79.9902L201.456 81.8155C196.696 81.8647 192.333 85.8874 191.749 90.7514Z" fill="#D8DEE8"/>
<path d="M282.543 71.2609C282.321 73.1189 283.651 74.6063 285.517 74.5817C287.384 74.5588 289.08 73.0303 289.302 71.169C289.525 69.3077 288.189 67.8203 286.322 67.8482C284.455 67.876 282.764 69.4045 282.543 71.2609Z" fill="url(#paint4_linear_668_1316)"/>
<path d="M221.021 307.967C255.682 243.749 307.464 224.526 323.054 158.341C331.48 122.566 325.739 88.3245 316.069 59.8979L380.743 58.8041C386.45 58.7073 390.595 63.1565 389.939 68.6896L345.921 439.795C345.262 445.361 340.088 449.452 334.444 448.888L192.921 434.768C191.872 377.226 205.568 336.592 221.021 307.967Z" fill="white"/>
<path d="M17.4077 108.33C17.4077 74.2065 47.1125 46.5491 82.7595 46.5524C117.353 46.5556 144.653 72.7585 144.653 105.077C144.653 137.395 117.353 164.993 82.7595 166.766C47.1109 168.593 17.4077 142.454 17.4077 108.33Z" fill="url(#paint5_linear_668_1316)"/>
<path d="M21.2505 105.609C21.2505 71.4857 50.0961 43.8282 84.7104 43.8315C118.302 43.8348 144.814 70.0376 144.814 102.356C144.814 134.674 118.302 162.272 84.7104 164.045C50.0944 165.872 21.2505 139.731 21.2505 105.609Z" fill="url(#paint6_linear_668_1316)"/>
<g opacity="0.5">
<path opacity="0.5" d="M31.1255 105.348C31.1255 76.6792 55.3593 53.4414 84.4422 53.4463C112.664 53.4496 134.939 75.464 134.939 102.616C134.939 129.769 112.666 152.956 84.4422 154.445C55.3593 155.98 31.1255 134.018 31.1255 105.348Z" fill="white"/>
</g>
<path opacity="0.5" d="M82.441 57.8511C110.663 57.8544 132.938 79.8689 132.938 107.021C132.938 113.478 131.666 119.704 129.367 125.474C132.928 118.527 134.941 110.752 134.941 102.616C134.941 75.464 112.668 53.4496 84.4441 53.4463C62.0137 53.4446 42.4801 67.2725 34.7114 86.7484C43.5078 69.6259 61.7421 57.8495 82.441 57.8511Z" fill="white"/>
<path d="M60.3286 98.3316V123.354C60.3286 130.587 66.4018 136.294 73.8709 136.099L92.3916 135.615C99.7708 135.422 105.734 129.464 105.734 122.306V97.5477L60.3286 98.3316ZM77.3846 124.2L80.8262 113.749C79.3517 112.986 78.3534 111.484 78.3534 109.734C78.3534 107.166 80.5038 105.042 83.1517 104.993C85.7964 104.942 87.9386 106.979 87.9386 109.542C87.9386 111.289 86.9436 112.829 85.474 113.652L88.9025 123.931L77.3846 124.2Z" fill="white"/>
<path d="M100.469 95.3779C98.504 95.4107 96.91 93.8872 96.91 91.9734C96.91 84.6184 90.7485 78.7146 83.15 78.813C75.5254 78.9114 69.3017 85.0136 69.3017 92.4146C69.3017 94.3399 67.6864 95.9273 65.6915 95.9618C63.6949 95.9946 62.0747 94.4596 62.0747 92.531C62.0747 81.2663 71.5552 71.9942 83.1517 71.8646C94.686 71.7351 104.022 80.7055 104.022 91.8619C104.022 93.7708 102.433 95.3451 100.469 95.3779Z" fill="white"/>
<path d="M143.366 238.096C143.366 238.096 142.106 233.363 142.999 232.153C143.891 230.943 149.349 226.105 148.825 227.682C148.3 229.26 147.513 230.311 147.513 230.311C147.513 230.311 150.452 231.679 148.562 233.729C146.673 235.78 146.042 236.253 145.937 238.094C145.834 239.936 144.626 240.567 143.366 238.096Z" fill="url(#paint7_linear_668_1316)"/>
<path d="M90.9397 442.394C90.9397 442.394 90.272 446.487 90.3571 447.943C90.4422 449.399 106.575 450.144 106.737 449.053C106.899 447.963 104.071 446.226 102.08 445.614C100.088 445.001 94.2586 443.368 94.2586 443.368L90.9397 442.394Z" fill="url(#paint8_linear_668_1316)"/>
<path d="M94.8552 438.313L94.3413 443.404C94.3413 443.404 92.4675 444.645 90.8162 443.688L89.9897 438.148L94.8552 438.313Z" fill="url(#paint9_linear_668_1316)"/>
<path d="M62.1551 449.029C62.1551 449.029 61.4873 453.122 61.5724 454.578C61.6575 456.035 77.7905 456.779 77.9525 455.689C78.1162 454.598 75.2866 452.861 73.2949 452.25C71.3033 451.638 65.4739 450.003 65.4739 450.003L62.1551 449.029Z" fill="url(#paint10_linear_668_1316)"/>
<path d="M66.072 444.949L65.5581 450.039C65.5581 450.039 63.6843 451.28 62.033 450.323L61.2065 444.783L66.072 444.949Z" fill="url(#paint11_linear_668_1316)"/>
<path d="M91.9285 305.436C93.7925 309.225 95.6582 313.013 97.5222 316.801C99.0212 338.42 99.7675 361.93 99.288 387.072C98.9312 405.777 97.9346 423.497 96.501 440.129C93.9725 440.012 91.4441 439.896 88.9156 439.78C85.2596 432.508 80.9441 421.493 80.5464 407.894C80.1323 393.711 84.4233 391.826 84.1517 378.246C83.7982 360.643 76.4321 355.946 72.5077 334.773C71.007 326.675 69.9973 316.099 71.1969 303.268C78.108 303.992 85.0174 304.715 91.9285 305.436Z" fill="url(#paint12_linear_668_1316)"/>
<path opacity="0.3" d="M71.1981 303.268C74.9294 303.659 78.6607 304.049 82.3936 304.439C89.1116 316.153 90.9871 328.345 89.8071 333.738C88.1395 341.369 83.7274 343.812 83.9712 351.473C84.2118 359.052 88.6681 361.019 91.4944 369.951C93.4517 376.137 92.9346 381.824 91.8217 392.946C89.5797 415.35 84.1807 422.201 88.7025 429.546C89.9871 431.634 92.3028 434.119 96.8393 436.016C96.728 437.39 96.6184 438.768 96.5022 440.127C93.9737 440.012 91.4453 439.894 88.9168 439.78C85.2608 432.508 80.9453 421.493 80.5476 407.894C80.1336 393.711 84.4246 391.826 84.1529 378.246C83.7994 360.643 76.4334 355.948 72.5089 334.775C71.0082 326.677 69.9969 316.101 71.1981 303.268Z" fill="url(#paint13_linear_668_1316)"/>
<path d="M81.8942 312.257C78.3936 331.385 75.3022 351.856 72.8899 373.567C69.9769 399.782 68.4222 424.495 67.8118 447.44C65.0362 447.518 62.2623 447.597 59.4867 447.676C48.5514 425.998 47.8837 411.301 49.4597 401.732C50.0668 398.045 51.7181 390.815 52.0945 380.007C52.3563 372.475 51.8768 366.742 51.2779 359.851C49.9653 344.742 48.3714 341.444 48.1422 329.888C47.9262 319.041 47.882 313.554 50.9718 310.351C59.112 301.911 80.2887 311.509 81.8942 312.257Z" fill="url(#paint14_linear_668_1316)"/>
<path d="M141.915 237.366C143.761 237.237 145.606 237.109 147.452 236.979C151.805 254.61 148.682 271.711 138.857 278.001C123.504 287.827 94.9712 269.314 88.7884 249.154C86.075 240.305 86.692 227.537 92.1171 225.055C93.6227 224.367 95.9597 224.26 101.021 227.107C116.138 235.612 116.536 251.686 124.221 253.047C127.635 253.654 133.153 251.471 141.915 237.366Z" fill="url(#paint15_linear_668_1316)"/>
<path d="M99.6461 320.68C102.305 316.258 98.9652 311.994 98.2059 303.619C97.3451 294.126 100.995 292.545 104.603 276.813C107.004 266.35 109.307 256.306 106.557 244.547C105.24 238.913 103.004 229.355 95.1096 224.739C91.0362 222.356 85.4737 222.595 74.5171 223.169C60.9665 223.879 54.1929 224.234 49.1393 226.9C48.3996 227.29 33.0292 235.669 31.9704 249.326C30.8936 263.226 45.9988 265.094 48.0134 283.63C48.9184 291.951 47.3064 304.749 46.2606 313.049C45.2574 321.019 44.5652 323.059 46.1363 325.473C49.9199 331.29 61.5017 329.632 84.6652 326.318C93.7513 325.015 97.6609 323.979 99.6461 320.68Z" fill="url(#paint16_linear_668_1316)"/>
<path d="M64.4011 280.647C63.4209 284.26 59.899 286.958 57.4475 295.746C56.9189 297.644 53.1467 311.155 58.0383 314.481C60.8629 316.401 63.3996 312.762 70.2567 312.287C82.1379 311.463 87.7987 321.47 95.5608 318.736C96.9077 318.261 98.6849 317.251 100.461 314.928C100.814 317.021 100.754 318.84 99.6472 320.681C97.6637 323.981 93.7524 325.017 84.6664 326.318C61.5028 329.632 49.9211 331.29 46.1374 325.473C44.568 323.061 45.2586 321.019 46.2618 313.049C47.3075 304.748 48.9195 291.95 48.0145 283.63C45.9999 265.094 30.8931 263.226 31.9715 249.326C32.2596 245.61 33.6228 242.303 35.4475 239.421C54.6097 247.191 67.4795 269.294 64.4011 280.647Z" fill="url(#paint17_linear_668_1316)"/>
<path d="M40.1997 307.988L44.0341 310.441C44.7231 309.644 46.3171 308.037 48.8046 307.489C51.608 306.871 54.8271 307.758 54.9007 308.654C54.9613 309.372 53.0007 310.097 52.6979 310.208C50.2513 311.114 48.4364 310.361 47.4479 311.347C47.0977 311.694 46.6624 312.344 45.6592 312.944C45.3957 313.101 45.1208 313.241 44.9751 313.298C43.3419 313.934 40.5417 311.086 40.3012 310.837L40.1997 307.988Z" fill="url(#paint18_linear_668_1316)"/>
<path d="M51.5256 257.599C54.2996 250.943 56.2208 240.751 51.8398 225.616C22.9746 237.013 8.25397 264.033 14.0015 285.45C18.7393 303.108 35.9785 311.707 39.8244 313.518C40.7196 311.476 41.6148 309.436 42.5083 307.396C38.052 302.424 33.0295 295.07 33.7398 286.679C34.7249 275.045 45.9107 271.075 51.5256 257.599Z" fill="url(#paint19_linear_668_1316)"/>
<path d="M73.8066 209.476C73.8066 209.476 73.5792 214.535 72.0113 218.325C70.5941 221.749 63.1446 223.902 61.6341 224.666C60.1235 225.431 64.4636 227.666 68.8217 228.104C73.1798 228.543 85.6241 227.551 87.8677 225.896C90.1114 224.242 86.0643 224.366 82.9549 223.222C79.8438 222.077 78.0453 215.981 78.5951 213.215C79.145 210.446 73.8066 209.476 73.8066 209.476Z" fill="url(#paint20_linear_668_1316)"/>
<path d="M80.6994 207.641C82.9611 205.414 83.277 205.155 83.5225 204.385C84.5109 201.297 82.12 197.066 78.9844 196.025C78.8207 195.971 76.7178 195.297 75.9159 196.21C75.2334 196.986 76.2366 198.059 75.7604 199.556C75.3136 200.956 74.1026 201.061 71.8556 202.898C70.0047 204.41 68.8558 205.351 68.5907 206.675C68.0441 209.402 71.3385 213.354 74.2548 213.248C75.3038 213.208 75.5902 212.672 80.6994 207.641Z" fill="url(#paint21_linear_668_1316)"/>
<path d="M74.5416 213.669C74.5416 213.669 76.9457 216.396 80.6066 215.494C83.8846 214.687 83.0483 207.147 80.6492 205.943C79.8489 205.542 78.394 205.574 77.3008 206.102C76.6544 206.414 76.4744 206.739 75.409 207.227C74.4271 207.678 74.1145 207.616 73.851 207.934C73.5204 208.331 73.378 209.187 74.414 211.25C73.6677 210.72 72.8642 210.609 72.3716 210.96C72.293 211.016 72.0933 211.212 72.0066 211.47C71.694 212.403 72.6629 213.353 74.5416 213.669Z" fill="url(#paint22_linear_668_1316)"/>
<path d="M348.703 111.575L349.549 116.152L332.132 116.193L180.981 116.552C177.093 116.562 173.517 119.783 172.984 123.747L136.901 365.395C136.364 369.395 142.577 375.501 146.442 375.799L213.499 380.963V380.881L313.806 388.592C313.808 388.592 313.809 388.592 313.811 388.592L314.053 388.694C318.336 389.025 322.265 385.911 322.822 381.687C322.822 381.685 322.822 381.705 322.823 381.703L356.614 123.701C357.164 119.516 353.011 111.564 348.703 111.575Z" fill="url(#paint23_linear_668_1316)"/>
<path d="M319.404 376.659C318.851 380.885 314.924 384.044 310.641 383.714L142.857 370.804C138.993 370.508 136.304 367.024 136.841 363.025L169.642 118.806C170.174 114.842 173.749 111.622 177.635 111.61L346.366 111.144C350.672 111.133 353.726 114.516 353.179 118.701L319.404 376.659Z" fill="url(#paint24_linear_668_1316)"/>
<path d="M321.634 242.353C321.359 244.445 319.408 246.006 317.277 245.928L169.608 240.527C167.659 240.457 166.287 238.848 166.556 236.849L169.459 215.286C169.727 213.288 171.506 211.937 173.457 211.991L321.256 216.104C323.39 216.163 324.9 217.673 324.627 219.764L321.634 242.353Z" fill="white"/>
<path d="M315.916 286.167C315.641 288.264 313.688 290.053 311.557 289.947L163.999 282.643C162.052 282.546 160.697 280.678 160.965 278.677L163.891 256.697C164.16 254.698 165.955 252.985 167.904 253.063L315.552 259.031C317.683 259.118 319.19 261.05 318.915 263.144L315.916 286.167Z" fill="white"/>
<path opacity="0.1" d="M324.639 219.677C324.289 219.564 323.912 219.502 323.511 219.49L175.709 215.379C173.76 215.323 171.98 216.678 171.714 218.671L168.806 240.234C168.8 240.29 168.795 240.342 168.79 240.398C167.291 239.975 166.327 238.551 166.553 236.846L169.461 215.282C169.726 213.29 171.507 211.934 173.456 211.991L321.258 216.102C323.354 216.165 324.858 217.628 324.639 219.677Z" fill="url(#paint25_linear_668_1316)"/>
<path opacity="0.1" d="M318.947 262.658C318.592 262.517 318.209 262.432 317.803 262.416L170.158 256.446C168.209 256.368 166.41 258.085 166.145 260.084L163.214 282.065C163.198 282.206 163.186 282.342 163.186 282.483C161.687 281.998 160.735 280.383 160.961 278.677L163.892 256.696C164.157 254.696 165.954 252.979 167.905 253.058L315.55 259.027C317.522 259.113 318.952 260.761 318.947 262.658Z" fill="url(#paint26_linear_668_1316)"/>
<path d="M276.671 321.68C277.107 318.372 274.773 315.325 271.456 315.133L195.07 310.738C191.907 310.556 188.986 313.226 188.555 316.447L185.403 340.255C184.973 343.481 187.168 346.568 190.329 346.784L266.675 352.019C269.991 352.247 273.045 349.441 273.482 346.128L276.671 321.68Z" fill="url(#paint27_linear_668_1316)"/>
<path d="M282.441 161.273C281.434 168.884 277.533 175.754 271.985 180.806C266.006 186.256 258.131 189.572 249.942 189.413C241.794 189.255 234.935 185.688 230.531 180.117C226.469 174.983 224.479 168.141 225.476 160.658C227.55 145.09 241.823 132.505 257.487 132.543C273.299 132.577 284.532 145.439 282.441 161.273Z" fill="url(#paint28_linear_668_1316)"/>
<path d="M267.209 152.622C266.306 159.441 260.025 164.906 253.206 164.824C246.414 164.742 241.658 159.187 242.557 152.417C243.457 145.649 249.674 140.19 256.469 140.221C263.293 140.252 268.113 145.804 267.209 152.622Z" fill="white"/>
<path d="M271.986 180.807C266.008 186.256 258.133 189.572 249.944 189.413C241.795 189.255 234.937 185.689 230.533 180.118C235.573 173.081 243.887 168.4 252.716 168.515C261.593 168.63 268.747 173.56 271.986 180.807Z" fill="white"/>
<path opacity="0.4" d="M353.178 118.7L319.405 376.658C318.852 380.883 314.674 384.023 310.393 383.694L209.62 375.94C204.833 371.028 200.89 365.134 198.077 358.061C196.696 354.593 195.684 350.851 195.012 346.915C193.141 336.022 193.866 323.641 196.594 311.487C198.692 302.132 201.982 292.895 206.193 284.561C209.561 277.898 213.521 271.806 217.945 266.686C221.129 263.001 224.574 259.421 228.207 255.91C232.588 251.673 237.244 247.537 242.048 243.438C253.24 233.883 265.224 224.54 276.32 214.674C301.922 191.915 322.693 166.485 317.695 130.2C317.534 129.056 315.975 120.304 313.981 111.232L346.116 111.144C350.421 111.132 353.726 114.517 353.178 118.7Z" fill="white"/>
<defs>
<linearGradient id="paint0_linear_668_1316" x1="306.852" y1="331.588" x2="426.819" y2="8.25326" gradientUnits="userSpaceOnUse">
<stop offset="0.00359712" stop-color="#E38DDD"/>
<stop offset="1" stop-color="#9571F6"/>
</linearGradient>
<linearGradient id="paint1_linear_668_1316" x1="218.365" y1="299.652" x2="450.217" y2="299.652" gradientUnits="userSpaceOnUse">
<stop stop-color="#FF9085"/>
<stop offset="1" stop-color="#FB6FBB"/>
</linearGradient>
<linearGradient id="paint2_linear_668_1316" x1="277.864" y1="244.88" x2="346.304" y2="252.331" gradientUnits="userSpaceOnUse">
<stop stop-color="#444B8C"/>
<stop offset="0.9964" stop-color="#26264F"/>
</linearGradient>
<linearGradient id="paint3_linear_668_1316" x1="217.565" y1="72.0143" x2="387.436" y2="649.129" gradientUnits="userSpaceOnUse">
<stop stop-color="#444B8C"/>
<stop offset="0.9964" stop-color="#26264F"/>
</linearGradient>
<linearGradient id="paint4_linear_668_1316" x1="280.977" y1="57.7945" x2="480.588" y2="597.288" gradientUnits="userSpaceOnUse">
<stop stop-color="#FFC444"/>
<stop offset="0.9964" stop-color="#F36F56"/>
</linearGradient>
<linearGradient id="paint5_linear_668_1316" x1="-1456.62" y1="1559.61" x2="-1320.31" y2="1431.35" gradientUnits="userSpaceOnUse">
<stop stop-color="#311944"/>
<stop offset="1" stop-color="#893976"/>
</linearGradient>
<linearGradient id="paint6_linear_668_1316" x1="41.6865" y1="141.539" x2="150.902" y2="42.6335" gradientUnits="userSpaceOnUse">
<stop stop-color="#FF9085"/>
<stop offset="1" stop-color="#FB6FBB"/>
</linearGradient>
<linearGradient id="paint7_linear_668_1316" x1="152.134" y1="227.735" x2="130.487" y2="249.724" gradientUnits="userSpaceOnUse">
<stop stop-color="#FFC444"/>
<stop offset="0.9964" stop-color="#F36F56"/>
</linearGradient>
<linearGradient id="paint8_linear_668_1316" x1="98.5886" y1="437.029" x2="98.7714" y2="388.148" gradientUnits="userSpaceOnUse">
<stop stop-color="#AA80F9"/>
<stop offset="0.9964" stop-color="#6165D7"/>
</linearGradient>
<linearGradient id="paint9_linear_668_1316" x1="93.7569" y1="452.737" x2="91.4246" y2="427.479" gradientUnits="userSpaceOnUse">
<stop stop-color="#FFC444"/>
<stop offset="0.9964" stop-color="#F36F56"/>
</linearGradient>
<linearGradient id="paint10_linear_668_1316" x1="69.8302" y1="436.922" x2="70.0129" y2="388.04" gradientUnits="userSpaceOnUse">
<stop stop-color="#AA80F9"/>
<stop offset="0.9964" stop-color="#6165D7"/>
</linearGradient>
<linearGradient id="paint11_linear_668_1316" x1="64.6106" y1="455.427" x2="62.2784" y2="430.17" gradientUnits="userSpaceOnUse">
<stop stop-color="#FFC444"/>
<stop offset="0.9964" stop-color="#F36F56"/>
</linearGradient>
<linearGradient id="paint12_linear_668_1316" x1="92.8748" y1="325.466" x2="74.9236" y2="417.052" gradientUnits="userSpaceOnUse">
<stop stop-color="#311944"/>
<stop offset="1" stop-color="#893976"/>
</linearGradient>
<linearGradient id="paint13_linear_668_1316" x1="101.797" y1="370.258" x2="74.9343" y2="372.406" gradientUnits="userSpaceOnUse">
<stop stop-color="#311944"/>
<stop offset="1" stop-color="#893976"/>
</linearGradient>
<linearGradient id="paint14_linear_668_1316" x1="86.9392" y1="375.321" x2="46.1587" y2="378.583" gradientUnits="userSpaceOnUse">
<stop stop-color="#311944"/>
<stop offset="1" stop-color="#893976"/>
</linearGradient>
<linearGradient id="paint15_linear_668_1316" x1="119.151" y1="240.446" x2="88.858" y2="434.59" gradientUnits="userSpaceOnUse">
<stop stop-color="#AA80F9"/>
<stop offset="0.9964" stop-color="#6165D7"/>
</linearGradient>
<linearGradient id="paint16_linear_668_1316" x1="54.9826" y1="453.569" x2="40.33" y2="649.522" gradientUnits="userSpaceOnUse">
<stop stop-color="#AA80F9"/>
<stop offset="0.9964" stop-color="#6165D7"/>
</linearGradient>
<linearGradient id="paint17_linear_668_1316" x1="5.37078" y1="386.754" x2="86.1573" y2="248.66" gradientUnits="userSpaceOnUse">
<stop stop-color="#AA80F9"/>
<stop offset="0.9964" stop-color="#6165D7"/>
</linearGradient>
<linearGradient id="paint18_linear_668_1316" x1="33.9213" y1="291.172" x2="50.9527" y2="314.131" gradientUnits="userSpaceOnUse">
<stop stop-color="#FFC444"/>
<stop offset="0.9964" stop-color="#F36F56"/>
</linearGradient>
<linearGradient id="paint19_linear_668_1316" x1="19.3306" y1="450.903" x2="4.67796" y2="646.856" gradientUnits="userSpaceOnUse">
<stop stop-color="#AA80F9"/>
<stop offset="0.9964" stop-color="#6165D7"/>
</linearGradient>
<linearGradient id="paint20_linear_668_1316" x1="82.157" y1="233.875" x2="65.7637" y2="213.521" gradientUnits="userSpaceOnUse">
<stop stop-color="#FFC444"/>
<stop offset="0.9964" stop-color="#F36F56"/>
</linearGradient>
<linearGradient id="paint21_linear_668_1316" x1="69.7229" y1="226.387" x2="78.4227" y2="197.827" gradientUnits="userSpaceOnUse">
<stop stop-color="#444B8C"/>
<stop offset="0.9964" stop-color="#3E4177"/>
</linearGradient>
<linearGradient id="paint22_linear_668_1316" x1="91.826" y1="216.417" x2="67.4314" y2="205.581" gradientUnits="userSpaceOnUse">
<stop stop-color="#FFC444"/>
<stop offset="0.9964" stop-color="#F36F56"/>
</linearGradient>
<linearGradient id="paint23_linear_668_1316" x1="136.869" y1="250.147" x2="356.664" y2="250.147" gradientUnits="userSpaceOnUse">
<stop stop-color="#311944"/>
<stop offset="1" stop-color="#893976"/>
</linearGradient>
<linearGradient id="paint24_linear_668_1316" x1="270.498" y1="683.342" x2="244.181" y2="228.446" gradientUnits="userSpaceOnUse">
<stop offset="0.003597" stop-color="#F36F56"/>
<stop offset="1" stop-color="#FFC444"/>
</linearGradient>
<linearGradient id="paint25_linear_668_1316" x1="166.519" y1="226.195" x2="324.659" y2="226.195" gradientUnits="userSpaceOnUse">
<stop offset="0.003597" stop-color="#F36F56"/>
<stop offset="1" stop-color="#FFC444"/>
</linearGradient>
<linearGradient id="paint26_linear_668_1316" x1="160.929" y1="267.77" x2="318.947" y2="267.77" gradientUnits="userSpaceOnUse">
<stop offset="0.003597" stop-color="#F36F56"/>
<stop offset="1" stop-color="#FFC444"/>
</linearGradient>
<linearGradient id="paint27_linear_668_1316" x1="238.598" y1="283.121" x2="203.131" y2="507.569" gradientUnits="userSpaceOnUse">
<stop offset="0.003597" stop-color="#F36F56"/>
<stop offset="1" stop-color="#FFC444"/>
</linearGradient>
<linearGradient id="paint28_linear_668_1316" x1="250.218" y1="49.4055" x2="257.793" y2="274.515" gradientUnits="userSpaceOnUse">
<stop offset="0.003597" stop-color="#F36F56"/>
<stop offset="1" stop-color="#FFC444"/>
</linearGradient>
</defs>
</svg>
