<svg width="20" height="20" viewBox="0 0 20 20" fill="none" xmlns="http://www.w3.org/2000/svg">
<mask id="path-1-inside-1_668_1432" fill="white">
<path d="M9.00846 15.8919C9.00936 15.8919 9.01008 15.8926 9.01008 15.8935V16.6997C9.01008 16.914 8.92447 17.1195 8.77207 17.271C8.61968 17.4225 8.41298 17.5076 8.19746 17.5076H7.3801C6.93393 17.5076 6.57223 17.8693 6.57223 18.3155C6.57223 18.744 6.401 19.155 6.09621 19.458C5.79142 19.761 5.37803 19.9312 4.94699 19.9312H1.69652C1.26549 19.9312 0.8521 19.761 0.547309 19.458C0.242519 19.155 0.0712891 18.744 0.0712891 18.3155V16.2263C0.0713811 15.7978 0.242671 15.3869 0.547483 15.084L3.97271 11.6787C5.73711 9.92464 6.11076 7.20465 6.94114 4.85935C7.39441 3.57915 8.24156 2.47329 9.36247 1.69859C10.4834 0.923888 11.8212 0.519655 13.1861 0.54321C14.5511 0.566765 15.8739 1.01691 16.9671 1.82982C18.0603 2.64273 18.8683 3.77715 19.2766 5.07222C19.6849 6.36729 19.6728 7.75728 19.2419 9.0451C18.8111 10.3329 17.9833 11.4532 16.8761 12.2471C15.7689 13.041 14.4383 13.4683 13.0732 13.4682C12.1808 13.4682 11.4463 14.1916 11.4463 15.084C11.4463 15.2982 11.3607 15.5037 11.2083 15.6552C11.0559 15.8067 10.8492 15.8919 10.6337 15.8919H9.00846ZM-nan -nanL14.6984 7.00523C15.1294 7.00523 15.5428 6.835 15.8476 6.53199C16.1524 6.22898 16.3236 5.81801 16.3236 5.38948C16.3236 4.96096 16.1524 4.54999 15.8476 4.24698C15.5428 3.94397 15.1294 3.77374 14.6984 3.77374C14.2674 3.77374 13.854 3.94397 13.5492 4.24698C13.2444 4.54999 13.0732 4.96096 13.0732 5.38948C13.0732 5.81801 13.2444 6.22898 13.5492 6.53199C13.854 6.835 14.2674 7.00523 14.6984 7.00523L-nan -nanZ"/>
</mask>
<path d="M9.00846 15.8919C9.00936 15.8919 9.01008 15.8926 9.01008 15.8935V16.6997C9.01008 16.914 8.92447 17.1195 8.77207 17.271C8.61968 17.4225 8.41298 17.5076 8.19746 17.5076H7.3801C6.93393 17.5076 6.57223 17.8693 6.57223 18.3155C6.57223 18.744 6.401 19.155 6.09621 19.458C5.79142 19.761 5.37803 19.9312 4.94699 19.9312H1.69652C1.26549 19.9312 0.8521 19.761 0.547309 19.458C0.242519 19.155 0.0712891 18.744 0.0712891 18.3155V16.2263C0.0713811 15.7978 0.242671 15.3869 0.547483 15.084L3.97271 11.6787C5.73711 9.92464 6.11076 7.20465 6.94114 4.85935C7.39441 3.57915 8.24156 2.47329 9.36247 1.69859C10.4834 0.923888 11.8212 0.519655 13.1861 0.54321C14.5511 0.566765 15.8739 1.01691 16.9671 1.82982C18.0603 2.64273 18.8683 3.77715 19.2766 5.07222C19.6849 6.36729 19.6728 7.75728 19.2419 9.0451C18.8111 10.3329 17.9833 11.4532 16.8761 12.2471C15.7689 13.041 14.4383 13.4683 13.0732 13.4682C12.1808 13.4682 11.4463 14.1916 11.4463 15.084C11.4463 15.2982 11.3607 15.5037 11.2083 15.6552C11.0559 15.8067 10.8492 15.8919 10.6337 15.8919H9.00846ZM-nan -nanL14.6984 7.00523C15.1294 7.00523 15.5428 6.835 15.8476 6.53199C16.1524 6.22898 16.3236 5.81801 16.3236 5.38948C16.3236 4.96096 16.1524 4.54999 15.8476 4.24698C15.5428 3.94397 15.1294 3.77374 14.6984 3.77374C14.2674 3.77374 13.854 3.94397 13.5492 4.24698C13.2444 4.54999 13.0732 4.96096 13.0732 5.38948C13.0732 5.81801 13.2444 6.22898 13.5492 6.53199C13.854 6.835 14.2674 7.00523 14.6984 7.00523L-nan -nanZ" fill="black"/>
<path d="M0.0712891 18.3155H-0.928711H0.0712891ZM0.0712891 16.2263L-0.928711 16.2261V16.2263H0.0712891ZM0.547483 15.084L1.25241 15.7933L1.25252 15.7932L0.547483 15.084ZM15.8476 6.53199L16.5527 7.24116L15.8476 6.53199ZM15.8476 4.24698L16.5527 3.5378L15.8476 4.24698ZM14.6984 3.77374V2.77374V3.77374ZM3.97271 11.6787L4.67774 12.3879L3.97271 11.6787ZM8.01008 15.8935V16.6997H10.0101V15.8935H8.01008ZM8.01008 16.6997C8.01008 16.6469 8.03126 16.5974 8.06704 16.5618L9.47711 17.9802C9.81768 17.6416 10.0101 17.1811 10.0101 16.6997H8.01008ZM8.06704 16.5618C8.10262 16.5264 8.14965 16.5076 8.19746 16.5076V18.5076C8.67632 18.5076 9.13673 18.3185 9.47711 17.9802L8.06704 16.5618ZM8.19746 16.5076H7.3801V18.5076H8.19746V16.5076ZM5.57223 18.3155C5.57223 18.4769 5.50779 18.6329 5.39118 18.7488L6.80124 20.1672C7.29421 19.6771 7.57223 19.0111 7.57223 18.3155H5.57223ZM5.39118 18.7488C5.27436 18.8649 5.1147 18.9312 4.94699 18.9312V20.9312C5.64137 20.9312 6.30847 20.6571 6.80124 20.1672L5.39118 18.7488ZM4.94699 18.9312H1.69652V20.9312H4.94699V18.9312ZM1.69652 18.9312C1.52882 18.9312 1.36915 18.8649 1.25234 18.7488L-0.157725 20.1672C0.335046 20.6571 1.00215 20.9312 1.69652 20.9312V18.9312ZM1.25234 18.7488C1.13573 18.6329 1.07129 18.4769 1.07129 18.3155H-0.928711C-0.928711 19.0111 -0.650694 19.6771 -0.157725 20.1672L1.25234 18.7488ZM1.07129 18.3155V16.2263H-0.928711V18.3155H1.07129ZM1.07129 16.2265C1.07132 16.0651 1.13579 15.9092 1.25241 15.7933L-0.157444 14.3747C-0.650446 14.8647 -0.928562 15.5305 -0.928711 16.2261L1.07129 16.2265ZM1.25252 15.7932L4.67774 12.3879L3.26767 10.9696L-0.157551 14.3748L1.25252 15.7932ZM7.8838 5.19311C8.26663 4.11186 8.98251 3.17679 9.93103 2.52123L8.79391 0.875948C7.50062 1.76979 6.52219 3.04644 5.99848 4.52559L7.8838 5.19311ZM9.93103 2.52123C10.8796 1.86562 12.0125 1.52311 13.1689 1.54306L13.2034 -0.456641C11.6298 -0.483795 10.0871 -0.0178393 8.79391 0.875948L9.93103 2.52123ZM13.1689 1.54306C14.3252 1.56302 15.4454 1.9444 16.3704 2.63228L17.5638 1.02737C16.3025 0.0894228 14.7769 -0.429487 13.2034 -0.456641L13.1689 1.54306ZM16.3704 2.63228C17.2954 3.32009 17.9781 4.27918 18.3229 5.37291L20.2304 4.77153C19.7586 3.27512 18.8253 1.96538 17.5638 1.02737L16.3704 2.63228ZM18.3229 5.37291C18.6677 6.46657 18.6575 7.64023 18.2936 8.72781L20.1903 9.36239C20.6881 7.87432 20.7022 6.26801 20.2304 4.77153L18.3229 5.37291ZM18.2936 8.72781C17.9297 9.81545 17.2303 10.7627 16.2934 11.4344L17.4588 13.0598C18.7364 12.1438 19.6924 10.8504 20.1903 9.36239L18.2936 8.72781ZM16.2934 11.4344C15.3564 12.1063 14.2298 12.4683 13.0732 12.4682L13.0732 14.4682C14.6469 14.4683 16.1813 13.9758 17.4588 13.0598L16.2934 11.4344ZM10.4463 15.084C10.4463 15.0311 10.4675 14.9816 10.5033 14.9461L11.9133 16.3644C12.2539 16.0258 12.4463 15.5654 12.4463 15.084H10.4463ZM10.5033 14.9461C10.5389 14.9107 10.5859 14.8919 10.6337 14.8919V16.8919C11.1125 16.8919 11.573 16.7028 11.9133 16.3644L10.5033 14.9461ZM10.6337 14.8919H9.00846V16.8919H10.6337V14.8919ZM14.6984 8.00523C15.3928 8.00523 16.0599 7.73106 16.5527 7.24116L15.1426 5.82282C15.0258 5.93895 14.8661 6.00523 14.6984 6.00523V8.00523ZM16.5527 7.24116C17.0456 6.75107 17.3236 6.08512 17.3236 5.38948H15.3236C15.3236 5.5509 15.2592 5.70689 15.1426 5.82282L16.5527 7.24116ZM17.3236 5.38948C17.3236 4.69385 17.0456 4.0279 16.5527 3.5378L15.1426 4.95615C15.2592 5.07208 15.3236 5.22807 15.3236 5.38948H17.3236ZM16.5527 3.5378C16.0599 3.04791 15.3928 2.77374 14.6984 2.77374V4.77374C14.8661 4.77374 15.0258 4.84002 15.1426 4.95615L16.5527 3.5378ZM14.6984 2.77374C14.004 2.77374 13.3369 3.04791 12.8442 3.5378L14.2542 4.95615C14.371 4.84002 14.5307 4.77374 14.6984 4.77374V2.77374ZM12.8442 3.5378C12.3512 4.0279 12.0732 4.69385 12.0732 5.38948H14.0732C14.0732 5.22807 14.1376 5.07208 14.2542 4.95615L12.8442 3.5378ZM12.0732 5.38948C12.0732 6.08512 12.3512 6.75107 12.8442 7.24116L14.2542 5.82282C14.1376 5.70689 14.0732 5.5509 14.0732 5.38948H12.0732ZM12.8442 7.24116C13.3369 7.73106 14.004 8.00523 14.6984 8.00523V6.00523C14.5307 6.00523 14.371 5.93895 14.2542 5.82282L12.8442 7.24116ZM10.0101 15.8935C10.0101 15.3403 9.56164 14.8919 9.00846 14.8919V16.8919C8.45707 16.8919 8.01008 16.4449 8.01008 15.8935H10.0101ZM13.0732 12.4682C11.6375 12.4682 10.4463 13.6304 10.4463 15.084H12.4463C12.4463 14.7528 12.7242 14.4682 13.0732 14.4682V12.4682ZM4.67774 12.3879C5.71748 11.3543 6.31374 10.0693 6.75094 8.82139C6.96994 8.1963 7.15687 7.55603 7.33478 6.9488C7.51541 6.33229 7.68695 5.74907 7.8838 5.19311L5.99848 4.52559C5.78014 5.14227 5.59358 5.77854 5.41547 6.38647C5.23463 7.00366 5.06219 7.59278 4.86342 8.16011C4.4651 9.29705 3.99234 10.2491 3.26767 10.9696L4.67774 12.3879ZM7.3801 16.5076C6.38164 16.5076 5.57223 17.317 5.57223 18.3155H7.57223C7.57223 18.4216 7.48621 18.5076 7.3801 18.5076V16.5076Z" fill="#E6E5E5" mask="url(#path-1-inside-1_668_1432)"/>
</svg>
