<svg width="22" height="23" viewBox="0 0 22 23" fill="none" xmlns="http://www.w3.org/2000/svg">
<path d="M19.6429 0.5H2.35714C1.73199 0.5 1.13244 0.748341 0.690391 1.19039C0.248341 1.63244 0 2.23199 0 2.85714L0 20.1429C0 20.768 0.248341 21.3676 0.690391 21.8096C1.13244 22.2517 1.73199 22.5 2.35714 22.5H19.6429C20.268 22.5 20.8676 22.2517 21.3096 21.8096C21.7517 21.3676 22 20.768 22 20.1429V2.85714C22 2.23199 21.7517 1.63244 21.3096 1.19039C20.8676 0.748341 20.268 0.5 19.6429 0.5ZM18.838 15.5941L18.1014 18.786C18.064 18.9483 17.9727 19.0931 17.8424 19.1968C17.7121 19.3006 17.5505 19.3571 17.3839 19.3571C9.52679 19.3571 3.14286 12.9875 3.14286 5.11607C3.1487 4.9511 3.20734 4.79236 3.31015 4.6632C3.41296 4.53405 3.55451 4.44131 3.71397 4.39862L6.90594 3.66201C6.96039 3.65049 7.01579 3.64408 7.07143 3.64286C7.21387 3.65005 7.35179 3.69524 7.47088 3.77373C7.58996 3.85223 7.68586 3.96117 7.74862 4.08924L9.22183 7.52674C9.25791 7.61942 9.278 7.71756 9.28125 7.81696C9.26926 8.03502 9.1723 8.2397 9.01116 8.3871L7.15049 9.90942C8.2779 12.2989 10.2011 14.2221 12.5906 15.3495L14.1129 13.4888C14.2603 13.3277 14.465 13.2307 14.683 13.2188C14.7824 13.2219 14.8806 13.242 14.9733 13.2782L18.4108 14.7514C18.5389 14.8141 18.6479 14.9099 18.7264 15.029C18.8049 15.1481 18.8501 15.2861 18.8571 15.4286C18.8562 15.4842 18.8497 15.5397 18.838 15.5941Z" fill="black"/>
</svg>
