<svg width="909" height="160" viewBox="0 0 909 160" fill="none" xmlns="http://www.w3.org/2000/svg">
<path d="M42.2078 122.2C36.8745 122.2 31.9411 121.233 27.4078 119.3C22.9411 117.367 19.0078 114.667 15.6078 111.2C12.2745 107.733 9.67448 103.667 7.80781 99C5.94115 94.3333 5.00781 89.2333 5.00781 83.7C5.00781 78.1667 5.90781 73.0667 7.70781 68.4C9.57448 63.6667 12.1745 59.6 15.5078 56.2C18.9078 52.7333 22.8745 50.0667 27.4078 48.2C31.9411 46.2667 36.8745 45.3 42.2078 45.3C47.5411 45.3 52.3078 46.2 56.5078 48C60.7745 49.8 64.3745 52.2 67.3078 55.2C70.2411 58.1333 72.3411 61.3667 73.6078 64.9L61.4078 70.6C60.0078 66.8667 57.6412 63.8 54.3078 61.4C50.9745 58.9333 46.9411 57.7 42.2078 57.7C37.5411 57.7 33.4078 58.8 29.8078 61C26.2745 63.2 23.5078 66.2333 21.5078 70.1C19.5745 73.9667 18.6078 78.5 18.6078 83.7C18.6078 88.9 19.5745 93.4667 21.5078 97.4C23.5078 101.267 26.2745 104.3 29.8078 106.5C33.4078 108.7 37.5411 109.8 42.2078 109.8C46.9411 109.8 50.9745 108.6 54.3078 106.2C57.6412 103.733 60.0078 100.633 61.4078 96.9L73.6078 102.6C72.3411 106.133 70.2411 109.4 67.3078 112.4C64.3745 115.333 60.7745 117.7 56.5078 119.5C52.3078 121.3 47.5411 122.2 42.2078 122.2ZM102.949 122.2C98.7492 122.2 95.0826 121.267 91.9492 119.4C88.8826 117.533 86.5159 114.933 84.8492 111.6C83.2492 108.267 82.4492 104.367 82.4492 99.9V66.6H95.5492V98.8C95.5492 101.067 95.9826 103.067 96.8492 104.8C97.7826 106.467 99.0826 107.8 100.749 108.8C102.483 109.733 104.416 110.2 106.549 110.2C108.683 110.2 110.583 109.733 112.249 108.8C113.916 107.8 115.216 106.433 116.149 104.7C117.083 102.967 117.549 100.9 117.549 98.5V66.6H130.649V121H118.249V110.3L119.349 112.2C118.083 115.533 115.983 118.033 113.049 119.7C110.183 121.367 106.816 122.2 102.949 122.2ZM163.527 122.2C157.727 122.2 152.66 120.833 148.327 118.1C144.06 115.3 141.127 111.533 139.527 106.8L149.327 102.1C150.727 105.167 152.66 107.567 155.127 109.3C157.66 111.033 160.46 111.9 163.527 111.9C165.927 111.9 167.827 111.367 169.227 110.3C170.627 109.233 171.327 107.833 171.327 106.1C171.327 105.033 171.027 104.167 170.427 103.5C169.893 102.767 169.127 102.167 168.127 101.7C167.193 101.167 166.16 100.733 165.027 100.4L156.127 97.9C151.527 96.5667 148.027 94.5333 145.627 91.8C143.293 89.0667 142.127 85.8333 142.127 82.1C142.127 78.7667 142.96 75.8667 144.627 73.4C146.36 70.8667 148.727 68.9 151.727 67.5C154.793 66.1 158.293 65.4 162.227 65.4C167.36 65.4 171.893 66.6333 175.827 69.1C179.76 71.5667 182.56 75.0333 184.227 79.5L174.227 84.2C173.293 81.7333 171.727 79.7667 169.527 78.3C167.327 76.8333 164.86 76.1 162.127 76.1C159.927 76.1 158.193 76.6 156.927 77.6C155.66 78.6 155.027 79.9 155.027 81.5C155.027 82.5 155.293 83.3667 155.827 84.1C156.36 84.8333 157.093 85.4333 158.027 85.9C159.027 86.3667 160.16 86.8 161.427 87.2L170.127 89.8C174.593 91.1333 178.027 93.1333 180.427 95.8C182.893 98.4667 184.127 101.733 184.127 105.6C184.127 108.867 183.26 111.767 181.527 114.3C179.793 116.767 177.393 118.7 174.327 120.1C171.26 121.5 167.66 122.2 163.527 122.2ZM218.994 121.6C212.86 121.6 208.094 119.933 204.694 116.6C201.36 113.2 199.694 108.433 199.694 102.3V78.3H190.294V66.6H191.294C193.96 66.6 196.027 65.9 197.494 64.5C198.96 63.1 199.694 61.0667 199.694 58.4V54.2H212.794V66.6H225.294V78.3H212.794V101.6C212.794 103.4 213.094 104.933 213.694 106.2C214.36 107.467 215.36 108.433 216.694 109.1C218.094 109.767 219.86 110.1 221.994 110.1C222.46 110.1 222.994 110.067 223.594 110C224.26 109.933 224.894 109.867 225.494 109.8V121C224.56 121.133 223.494 121.267 222.294 121.4C221.094 121.533 219.994 121.6 218.994 121.6ZM261.614 122.2C256.281 122.2 251.414 120.967 247.014 118.5C242.681 116.033 239.214 112.667 236.614 108.4C234.081 104.133 232.814 99.2667 232.814 93.8C232.814 88.3333 234.081 83.4667 236.614 79.2C239.214 74.9333 242.681 71.5667 247.014 69.1C251.347 66.6333 256.214 65.4 261.614 65.4C266.947 65.4 271.781 66.6333 276.114 69.1C280.447 71.5667 283.881 74.9333 286.414 79.2C289.014 83.4 290.314 88.2667 290.314 93.8C290.314 99.2667 289.014 104.133 286.414 108.4C283.814 112.667 280.347 116.033 276.014 118.5C271.681 120.967 266.881 122.2 261.614 122.2ZM261.614 110.2C264.547 110.2 267.114 109.5 269.314 108.1C271.581 106.7 273.347 104.767 274.614 102.3C275.947 99.7667 276.614 96.9333 276.614 93.8C276.614 90.6 275.947 87.8 274.614 85.4C273.347 82.9333 271.581 81 269.314 79.6C267.114 78.1333 264.547 77.4 261.614 77.4C258.614 77.4 255.981 78.1333 253.714 79.6C251.447 81 249.647 82.9333 248.314 85.4C247.047 87.8 246.414 90.6 246.414 93.8C246.414 96.9333 247.047 99.7667 248.314 102.3C249.647 104.767 251.447 106.7 253.714 108.1C255.981 109.5 258.614 110.2 261.614 110.2ZM300.248 121V66.6H312.548V79.2L311.148 77.1C312.148 73.1667 314.148 70.2333 317.148 68.3C320.148 66.3667 323.682 65.4 327.748 65.4C332.215 65.4 336.148 66.5667 339.548 68.9C342.948 71.2333 345.148 74.3 346.148 78.1L342.448 78.4C344.115 74.0667 346.615 70.8333 349.948 68.7C353.282 66.5 357.115 65.4 361.448 65.4C365.315 65.4 368.748 66.2667 371.748 68C374.815 69.7333 377.215 72.1667 378.948 75.3C380.682 78.3667 381.548 81.9333 381.548 86V121H368.448V89.1C368.448 86.7 368.015 84.6333 367.148 82.9C366.282 81.1667 365.082 79.8333 363.548 78.9C362.015 77.9 360.148 77.4 357.948 77.4C355.882 77.4 354.048 77.9 352.448 78.9C350.848 79.8333 349.615 81.1667 348.748 82.9C347.882 84.6333 347.448 86.7 347.448 89.1V121H334.348V89.1C334.348 86.7 333.915 84.6333 333.048 82.9C332.182 81.1667 330.948 79.8333 329.348 78.9C327.815 77.9 325.982 77.4 323.848 77.4C321.782 77.4 319.948 77.9 318.348 78.9C316.748 79.8333 315.515 81.1667 314.648 82.9C313.782 84.6333 313.348 86.7 313.348 89.1V121H300.248ZM418.431 122.2C412.831 122.2 407.931 120.933 403.731 118.4C399.531 115.867 396.265 112.433 393.931 108.1C391.598 103.767 390.431 98.9667 390.431 93.7C390.431 88.2333 391.598 83.4 393.931 79.2C396.331 74.9333 399.565 71.5667 403.631 69.1C407.765 66.6333 412.365 65.4 417.431 65.4C421.698 65.4 425.431 66.1 428.631 67.5C431.898 68.9 434.665 70.8333 436.931 73.3C439.198 75.7667 440.931 78.6 442.131 81.8C443.331 84.9333 443.931 88.3333 443.931 92C443.931 92.9333 443.865 93.9 443.731 94.9C443.665 95.9 443.498 96.7667 443.231 97.5H401.231V87.5H435.831L429.631 92.2C430.231 89.1333 430.065 86.4 429.131 84C428.265 81.6 426.798 79.7 424.731 78.3C422.731 76.9 420.298 76.2 417.431 76.2C414.698 76.2 412.265 76.9 410.131 78.3C407.998 79.6333 406.365 81.6333 405.231 84.3C404.165 86.9 403.765 90.0667 404.031 93.8C403.765 97.1333 404.198 100.1 405.331 102.7C406.531 105.233 408.265 107.2 410.531 108.6C412.865 110 415.531 110.7 418.531 110.7C421.531 110.7 424.065 110.067 426.131 108.8C428.265 107.533 429.931 105.833 431.131 103.7L441.731 108.9C440.665 111.5 438.998 113.8 436.731 115.8C434.465 117.8 431.765 119.367 428.631 120.5C425.565 121.633 422.165 122.2 418.431 122.2ZM453.862 121V66.6H466.162V78.7L465.162 76.9C466.428 72.8333 468.395 70 471.062 68.4C473.795 66.8 477.062 66 480.862 66H484.062V77.6H479.362C475.628 77.6 472.628 78.7667 470.362 81.1C468.095 83.3667 466.962 86.5667 466.962 90.7V121H453.862ZM510.138 121V46.5H537.838C542.904 46.5 547.371 47.4333 551.238 49.3C555.171 51.1 558.238 53.7667 560.438 57.3C562.638 60.7667 563.738 65 563.738 70C563.738 75.1333 562.504 79.5 560.038 83.1C557.638 86.7 554.371 89.3667 550.238 91.1L567.338 121H551.938L533.638 88.3L542.438 93.5H523.738V121H510.138ZM523.738 81.5H538.038C540.504 81.5 542.638 81.0333 544.438 80.1C546.238 79.1 547.638 77.7333 548.638 76C549.638 74.2667 550.138 72.2667 550.138 70C550.138 67.6667 549.638 65.6667 548.638 64C547.638 62.2667 546.238 60.9333 544.438 60C542.638 59 540.504 58.5 538.038 58.5H523.738V81.5ZM597.923 122.2C592.323 122.2 587.423 120.933 583.223 118.4C579.023 115.867 575.757 112.433 573.423 108.1C571.09 103.767 569.923 98.9667 569.923 93.7C569.923 88.2333 571.09 83.4 573.423 79.2C575.823 74.9333 579.057 71.5667 583.123 69.1C587.257 66.6333 591.857 65.4 596.923 65.4C601.19 65.4 604.923 66.1 608.123 67.5C611.39 68.9 614.157 70.8333 616.423 73.3C618.69 75.7667 620.423 78.6 621.623 81.8C622.823 84.9333 623.423 88.3333 623.423 92C623.423 92.9333 623.357 93.9 623.223 94.9C623.157 95.9 622.99 96.7667 622.723 97.5H580.723V87.5H615.323L609.123 92.2C609.723 89.1333 609.557 86.4 608.623 84C607.757 81.6 606.29 79.7 604.223 78.3C602.223 76.9 599.79 76.2 596.923 76.2C594.19 76.2 591.757 76.9 589.623 78.3C587.49 79.6333 585.857 81.6333 584.723 84.3C583.657 86.9 583.257 90.0667 583.523 93.8C583.257 97.1333 583.69 100.1 584.823 102.7C586.023 105.233 587.757 107.2 590.023 108.6C592.357 110 595.023 110.7 598.023 110.7C601.023 110.7 603.557 110.067 605.623 108.8C607.757 107.533 609.423 105.833 610.623 103.7L621.223 108.9C620.157 111.5 618.49 113.8 616.223 115.8C613.957 117.8 611.257 119.367 608.123 120.5C605.057 121.633 601.657 122.2 597.923 122.2ZM648.777 121L627.377 66.6H641.677L657.177 109.4H651.877L667.477 66.6H681.777L660.377 121H648.777ZM689.018 121V66.6H702.118V121H689.018ZM689.018 60.5V46.5H702.118V60.5H689.018ZM740.013 122.2C734.413 122.2 729.513 120.933 725.313 118.4C721.113 115.867 717.847 112.433 715.513 108.1C713.18 103.767 712.013 98.9667 712.013 93.7C712.013 88.2333 713.18 83.4 715.513 79.2C717.913 74.9333 721.147 71.5667 725.213 69.1C729.347 66.6333 733.947 65.4 739.013 65.4C743.28 65.4 747.013 66.1 750.213 67.5C753.48 68.9 756.247 70.8333 758.513 73.3C760.78 75.7667 762.513 78.6 763.713 81.8C764.913 84.9333 765.513 88.3333 765.513 92C765.513 92.9333 765.447 93.9 765.313 94.9C765.247 95.9 765.08 96.7667 764.813 97.5H722.813V87.5H757.413L751.213 92.2C751.813 89.1333 751.647 86.4 750.713 84C749.847 81.6 748.38 79.7 746.313 78.3C744.313 76.9 741.88 76.2 739.013 76.2C736.28 76.2 733.847 76.9 731.713 78.3C729.58 79.6333 727.947 81.6333 726.813 84.3C725.747 86.9 725.347 90.0667 725.613 93.8C725.347 97.1333 725.78 100.1 726.913 102.7C728.113 105.233 729.847 107.2 732.113 108.6C734.447 110 737.113 110.7 740.113 110.7C743.113 110.7 745.647 110.067 747.713 108.8C749.847 107.533 751.513 105.833 752.713 103.7L763.313 108.9C762.247 111.5 760.58 113.8 758.313 115.8C756.047 117.8 753.347 119.367 750.213 120.5C747.147 121.633 743.747 122.2 740.013 122.2ZM789.144 121L770.444 66.6H784.244L797.944 107.9L793.144 107.8L807.744 66.6H819.344L833.844 107.8L829.044 107.9L842.744 66.6H856.544L837.844 121H826.144L811.344 77.9H815.744L800.744 121H789.144ZM884.425 122.2C878.625 122.2 873.558 120.833 869.225 118.1C864.958 115.3 862.025 111.533 860.425 106.8L870.225 102.1C871.625 105.167 873.558 107.567 876.025 109.3C878.558 111.033 881.358 111.9 884.425 111.9C886.825 111.9 888.725 111.367 890.125 110.3C891.525 109.233 892.225 107.833 892.225 106.1C892.225 105.033 891.925 104.167 891.325 103.5C890.792 102.767 890.025 102.167 889.025 101.7C888.092 101.167 887.058 100.733 885.925 100.4L877.025 97.9C872.425 96.5667 868.925 94.5333 866.525 91.8C864.192 89.0667 863.025 85.8333 863.025 82.1C863.025 78.7667 863.858 75.8667 865.525 73.4C867.258 70.8667 869.625 68.9 872.625 67.5C875.692 66.1 879.192 65.4 883.125 65.4C888.258 65.4 892.792 66.6333 896.725 69.1C900.658 71.5667 903.458 75.0333 905.125 79.5L895.125 84.2C894.192 81.7333 892.625 79.7667 890.425 78.3C888.225 76.8333 885.758 76.1 883.025 76.1C880.825 76.1 879.092 76.6 877.825 77.6C876.558 78.6 875.925 79.9 875.925 81.5C875.925 82.5 876.192 83.3667 876.725 84.1C877.258 84.8333 877.992 85.4333 878.925 85.9C879.925 86.3667 881.058 86.8 882.325 87.2L891.025 89.8C895.492 91.1333 898.925 93.1333 901.325 95.8C903.792 98.4667 905.025 101.733 905.025 105.6C905.025 108.867 904.158 111.767 902.425 114.3C900.692 116.767 898.292 118.7 895.225 120.1C892.158 121.5 888.558 122.2 884.425 122.2Z" fill="#04A42A" fill-opacity="0.05"/>
<path d="M206.625 64.72C203.425 64.72 200.465 64.14 197.745 62.98C195.065 61.82 192.705 60.2 190.665 58.12C188.665 56.04 187.105 53.6 185.985 50.8C184.865 48 184.305 44.94 184.305 41.62C184.305 38.3 184.845 35.24 185.925 32.44C187.045 29.6 188.605 27.16 190.605 25.12C192.645 23.04 195.025 21.44 197.745 20.32C200.465 19.16 203.425 18.58 206.625 18.58C209.825 18.58 212.685 19.12 215.205 20.2C217.765 21.28 219.925 22.72 221.685 24.52C223.445 26.28 224.705 28.22 225.465 30.34L218.145 33.76C217.305 31.52 215.885 29.68 213.885 28.24C211.885 26.76 209.465 26.02 206.625 26.02C203.825 26.02 201.345 26.68 199.185 28C197.065 29.32 195.405 31.14 194.205 33.46C193.045 35.78 192.465 38.5 192.465 41.62C192.465 44.74 193.045 47.48 194.205 49.84C195.405 52.16 197.065 53.98 199.185 55.3C201.345 56.62 203.825 57.28 206.625 57.28C209.465 57.28 211.885 56.56 213.885 55.12C215.885 53.64 217.305 51.78 218.145 49.54L225.465 52.96C224.705 55.08 223.445 57.04 221.685 58.84C219.925 60.6 217.765 62.02 215.205 63.1C212.685 64.18 209.825 64.72 206.625 64.72ZM243.07 64.72C240.55 64.72 238.35 64.16 236.47 63.04C234.63 61.92 233.21 60.36 232.21 58.36C231.25 56.36 230.77 54.02 230.77 51.34V31.36H238.63V50.68C238.63 52.04 238.89 53.24 239.41 54.28C239.97 55.28 240.75 56.08 241.75 56.68C242.79 57.24 243.95 57.52 245.23 57.52C246.51 57.52 247.65 57.24 248.65 56.68C249.65 56.08 250.43 55.26 250.99 54.22C251.55 53.18 251.83 51.94 251.83 50.5V31.36H259.69V64H252.25V57.58L252.91 58.72C252.15 60.72 250.89 62.22 249.13 63.22C247.41 64.22 245.39 64.72 243.07 64.72ZM279.416 64.72C275.936 64.72 272.896 63.9 270.296 62.26C267.736 60.58 265.976 58.32 265.016 55.48L270.896 52.66C271.736 54.5 272.896 55.94 274.376 56.98C275.896 58.02 277.576 58.54 279.416 58.54C280.856 58.54 281.996 58.22 282.836 57.58C283.676 56.94 284.096 56.1 284.096 55.06C284.096 54.42 283.916 53.9 283.556 53.5C283.236 53.06 282.776 52.7 282.176 52.42C281.616 52.1 280.996 51.84 280.316 51.64L274.976 50.14C272.216 49.34 270.116 48.12 268.676 46.48C267.276 44.84 266.576 42.9 266.576 40.66C266.576 38.66 267.076 36.92 268.076 35.44C269.116 33.92 270.536 32.74 272.336 31.9C274.176 31.06 276.276 30.64 278.636 30.64C281.716 30.64 284.436 31.38 286.796 32.86C289.156 34.34 290.836 36.42 291.836 39.1L285.836 41.92C285.276 40.44 284.336 39.26 283.016 38.38C281.696 37.5 280.216 37.06 278.576 37.06C277.256 37.06 276.216 37.36 275.456 37.96C274.696 38.56 274.316 39.34 274.316 40.3C274.316 40.9 274.476 41.42 274.796 41.86C275.116 42.3 275.556 42.66 276.116 42.94C276.716 43.22 277.396 43.48 278.156 43.72L283.376 45.28C286.056 46.08 288.116 47.28 289.556 48.88C291.036 50.48 291.776 52.44 291.776 54.76C291.776 56.72 291.256 58.46 290.216 59.98C289.176 61.46 287.736 62.62 285.896 63.46C284.056 64.3 281.896 64.72 279.416 64.72ZM312.696 64.36C309.016 64.36 306.156 63.36 304.116 61.36C302.116 59.32 301.116 56.46 301.116 52.78V38.38H295.476V31.36H296.076C297.676 31.36 298.916 30.94 299.796 30.1C300.676 29.26 301.116 28.04 301.116 26.44V23.92H308.976V31.36H316.476V38.38H308.976V52.36C308.976 53.44 309.156 54.36 309.516 55.12C309.916 55.88 310.516 56.46 311.316 56.86C312.156 57.26 313.216 57.46 314.496 57.46C314.776 57.46 315.096 57.44 315.456 57.4C315.856 57.36 316.236 57.32 316.596 57.28V64C316.036 64.08 315.396 64.16 314.676 64.24C313.956 64.32 313.296 64.36 312.696 64.36ZM338.268 64.72C335.068 64.72 332.148 63.98 329.508 62.5C326.908 61.02 324.828 59 323.268 56.44C321.748 53.88 320.988 50.96 320.988 47.68C320.988 44.4 321.748 41.48 323.268 38.92C324.828 36.36 326.908 34.34 329.508 32.86C332.108 31.38 335.028 30.64 338.268 30.64C341.468 30.64 344.368 31.38 346.968 32.86C349.568 34.34 351.628 36.36 353.148 38.92C354.708 41.44 355.488 44.36 355.488 47.68C355.488 50.96 354.708 53.88 353.148 56.44C351.588 59 349.508 61.02 346.908 62.5C344.308 63.98 341.428 64.72 338.268 64.72ZM338.268 57.52C340.028 57.52 341.568 57.1 342.888 56.26C344.248 55.42 345.308 54.26 346.068 52.78C346.868 51.26 347.268 49.56 347.268 47.68C347.268 45.76 346.868 44.08 346.068 42.64C345.308 41.16 344.248 40 342.888 39.16C341.568 38.28 340.028 37.84 338.268 37.84C336.468 37.84 334.888 38.28 333.528 39.16C332.168 40 331.088 41.16 330.288 42.64C329.528 44.08 329.148 45.76 329.148 47.68C329.148 49.56 329.528 51.26 330.288 52.78C331.088 54.26 332.168 55.42 333.528 56.26C334.888 57.1 336.468 57.52 338.268 57.52ZM361.449 64V31.36H368.829V38.92L367.989 37.66C368.589 35.3 369.789 33.54 371.589 32.38C373.389 31.22 375.509 30.64 377.949 30.64C380.629 30.64 382.989 31.34 385.029 32.74C387.069 34.14 388.389 35.98 388.989 38.26L386.769 38.44C387.769 35.84 389.269 33.9 391.269 32.62C393.269 31.3 395.569 30.64 398.169 30.64C400.489 30.64 402.549 31.16 404.349 32.2C406.189 33.24 407.629 34.7 408.669 36.58C409.709 38.42 410.229 40.56 410.229 43V64H402.369V44.86C402.369 43.42 402.109 42.18 401.589 41.14C401.069 40.1 400.349 39.3 399.429 38.74C398.509 38.14 397.389 37.84 396.069 37.84C394.829 37.84 393.729 38.14 392.769 38.74C391.809 39.3 391.069 40.1 390.549 41.14C390.029 42.18 389.769 43.42 389.769 44.86V64H381.909V44.86C381.909 43.42 381.649 42.18 381.129 41.14C380.609 40.1 379.869 39.3 378.909 38.74C377.989 38.14 376.889 37.84 375.609 37.84C374.369 37.84 373.269 38.14 372.309 38.74C371.349 39.3 370.609 40.1 370.089 41.14C369.569 42.18 369.309 43.42 369.309 44.86V64H361.449ZM432.359 64.72C428.999 64.72 426.059 63.96 423.539 62.44C421.019 60.92 419.059 58.86 417.659 56.26C416.259 53.66 415.559 50.78 415.559 47.62C415.559 44.34 416.259 41.44 417.659 38.92C419.099 36.36 421.039 34.34 423.479 32.86C425.959 31.38 428.719 30.64 431.759 30.64C434.319 30.64 436.559 31.06 438.479 31.9C440.439 32.74 442.099 33.9 443.459 35.38C444.819 36.86 445.859 38.56 446.579 40.48C447.299 42.36 447.659 44.4 447.659 46.6C447.659 47.16 447.619 47.74 447.539 48.34C447.499 48.94 447.399 49.46 447.239 49.9H422.039V43.9H442.799L439.079 46.72C439.439 44.88 439.339 43.24 438.779 41.8C438.259 40.36 437.379 39.22 436.139 38.38C434.939 37.54 433.479 37.12 431.759 37.12C430.119 37.12 428.659 37.54 427.379 38.38C426.099 39.18 425.119 40.38 424.439 41.98C423.799 43.54 423.559 45.44 423.719 47.68C423.559 49.68 423.819 51.46 424.499 53.02C425.219 54.54 426.259 55.72 427.619 56.56C429.019 57.4 430.619 57.82 432.419 57.82C434.219 57.82 435.739 57.44 436.979 56.68C438.259 55.92 439.259 54.9 439.979 53.62L446.339 56.74C445.699 58.3 444.699 59.68 443.339 60.88C441.979 62.08 440.359 63.02 438.479 63.7C436.639 64.38 434.599 64.72 432.359 64.72ZM453.617 64V31.36H460.997V38.62L460.397 37.54C461.157 35.1 462.337 33.4 463.937 32.44C465.577 31.48 467.537 31 469.817 31H471.737V37.96H468.917C466.677 37.96 464.877 38.66 463.517 40.06C462.157 41.42 461.477 43.34 461.477 45.82V64H453.617ZM487.383 64V19.3H504.003C507.043 19.3 509.723 19.86 512.043 20.98C514.403 22.06 516.243 23.66 517.563 25.78C518.883 27.86 519.543 30.4 519.543 33.4C519.543 36.48 518.803 39.1 517.323 41.26C515.883 43.42 513.923 45.02 511.443 46.06L521.703 64H512.463L501.483 44.38L506.763 47.5H495.543V64H487.383ZM495.543 40.3H504.123C505.603 40.3 506.883 40.02 507.963 39.46C509.043 38.86 509.883 38.04 510.483 37C511.083 35.96 511.383 34.76 511.383 33.4C511.383 32 511.083 30.8 510.483 29.8C509.883 28.76 509.043 27.96 507.963 27.4C506.883 26.8 505.603 26.5 504.123 26.5H495.543V40.3ZM540.054 64.72C536.694 64.72 533.754 63.96 531.234 62.44C528.714 60.92 526.754 58.86 525.354 56.26C523.954 53.66 523.254 50.78 523.254 47.62C523.254 44.34 523.954 41.44 525.354 38.92C526.794 36.36 528.734 34.34 531.174 32.86C533.654 31.38 536.414 30.64 539.454 30.64C542.014 30.64 544.254 31.06 546.174 31.9C548.134 32.74 549.794 33.9 551.154 35.38C552.514 36.86 553.554 38.56 554.274 40.48C554.994 42.36 555.354 44.4 555.354 46.6C555.354 47.16 555.314 47.74 555.234 48.34C555.194 48.94 555.094 49.46 554.934 49.9H529.734V43.9H550.494L546.774 46.72C547.134 44.88 547.034 43.24 546.474 41.8C545.954 40.36 545.074 39.22 543.834 38.38C542.634 37.54 541.174 37.12 539.454 37.12C537.814 37.12 536.354 37.54 535.074 38.38C533.794 39.18 532.814 40.38 532.134 41.98C531.494 43.54 531.254 45.44 531.414 47.68C531.254 49.68 531.514 51.46 532.194 53.02C532.914 54.54 533.954 55.72 535.314 56.56C536.714 57.4 538.314 57.82 540.114 57.82C541.914 57.82 543.434 57.44 544.674 56.68C545.954 55.92 546.954 54.9 547.674 53.62L554.034 56.74C553.394 58.3 552.394 59.68 551.034 60.88C549.674 62.08 548.054 63.02 546.174 63.7C544.334 64.38 542.294 64.72 540.054 64.72ZM570.566 64L557.726 31.36H566.306L575.606 57.04H572.426L581.786 31.36H590.366L577.526 64H570.566ZM594.711 64V31.36H602.571V64H594.711ZM594.711 27.7V19.3H602.571V27.7H594.711ZM625.308 64.72C621.948 64.72 619.008 63.96 616.488 62.44C613.968 60.92 612.008 58.86 610.608 56.26C609.208 53.66 608.508 50.78 608.508 47.62C608.508 44.34 609.208 41.44 610.608 38.92C612.048 36.36 613.988 34.34 616.428 32.86C618.908 31.38 621.668 30.64 624.708 30.64C627.268 30.64 629.508 31.06 631.428 31.9C633.388 32.74 635.048 33.9 636.408 35.38C637.768 36.86 638.808 38.56 639.528 40.48C640.248 42.36 640.608 44.4 640.608 46.6C640.608 47.16 640.568 47.74 640.488 48.34C640.448 48.94 640.348 49.46 640.188 49.9H614.988V43.9H635.748L632.028 46.72C632.388 44.88 632.288 43.24 631.728 41.8C631.208 40.36 630.328 39.22 629.088 38.38C627.888 37.54 626.428 37.12 624.708 37.12C623.068 37.12 621.608 37.54 620.328 38.38C619.048 39.18 618.068 40.38 617.388 41.98C616.748 43.54 616.508 45.44 616.668 47.68C616.508 49.68 616.768 51.46 617.448 53.02C618.168 54.54 619.208 55.72 620.568 56.56C621.968 57.4 623.568 57.82 625.368 57.82C627.168 57.82 628.688 57.44 629.928 56.68C631.208 55.92 632.208 54.9 632.928 53.62L639.288 56.74C638.648 58.3 637.648 59.68 636.288 60.88C634.928 62.08 633.308 63.02 631.428 63.7C629.588 64.38 627.548 64.72 625.308 64.72ZM654.786 64L643.566 31.36H651.846L660.066 56.14L657.186 56.08L665.946 31.36H672.906L681.606 56.08L678.726 56.14L686.946 31.36H695.226L684.006 64H676.986L668.106 38.14H670.746L661.746 64H654.786ZM711.955 64.72C708.475 64.72 705.435 63.9 702.835 62.26C700.275 60.58 698.515 58.32 697.555 55.48L703.435 52.66C704.275 54.5 705.435 55.94 706.915 56.98C708.435 58.02 710.115 58.54 711.955 58.54C713.395 58.54 714.535 58.22 715.375 57.58C716.215 56.94 716.635 56.1 716.635 55.06C716.635 54.42 716.455 53.9 716.095 53.5C715.775 53.06 715.315 52.7 714.715 52.42C714.155 52.1 713.535 51.84 712.855 51.64L707.515 50.14C704.755 49.34 702.655 48.12 701.215 46.48C699.815 44.84 699.115 42.9 699.115 40.66C699.115 38.66 699.615 36.92 700.615 35.44C701.655 33.92 703.075 32.74 704.875 31.9C706.715 31.06 708.815 30.64 711.175 30.64C714.255 30.64 716.975 31.38 719.335 32.86C721.695 34.34 723.375 36.42 724.375 39.1L718.375 41.92C717.815 40.44 716.875 39.26 715.555 38.38C714.235 37.5 712.755 37.06 711.115 37.06C709.795 37.06 708.755 37.36 707.995 37.96C707.235 38.56 706.855 39.34 706.855 40.3C706.855 40.9 707.015 41.42 707.335 41.86C707.655 42.3 708.095 42.66 708.655 42.94C709.255 43.22 709.935 43.48 710.695 43.72L715.915 45.28C718.595 46.08 720.655 47.28 722.095 48.88C723.575 50.48 724.315 52.44 724.315 54.76C724.315 56.72 723.795 58.46 722.755 59.98C721.715 61.46 720.275 62.62 718.435 63.46C716.595 64.3 714.435 64.72 711.955 64.72Z" fill="#04A42A"/>
</svg>
