<svg width="45" height="44" viewBox="0 0 45 44" fill="none" xmlns="http://www.w3.org/2000/svg">
<g filter="url(#filter0_d_1041_389)">
<path d="M2.64844 9C2.64844 4.85786 6.0063 1.5 10.1484 1.5H34.1484C38.2906 1.5 41.6484 4.85786 41.6484 9V33C41.6484 37.1421 38.2906 40.5 34.1484 40.5H10.1484C6.0063 40.5 2.64844 37.1421 2.64844 33V9Z" stroke="#E2EBF3" shape-rendering="crispEdges"/>
<g clip-path="url(#clip0_1041_389)">
<path d="M18.8152 24.3333L22.1485 21M22.1485 21L25.4819 24.3333M22.1485 21V28.5M28.8152 24.9524C29.8331 24.1117 30.4819 22.8399 30.4819 21.4167C30.4819 18.8854 28.4298 16.8333 25.8985 16.8333C25.7164 16.8333 25.5461 16.7383 25.4536 16.5814C24.3669 14.7374 22.3605 13.5 20.0652 13.5C16.6134 13.5 13.8152 16.2982 13.8152 19.75C13.8152 21.4718 14.5114 23.0309 15.6376 24.1613" stroke="#282828" stroke-width="1.66667" stroke-linecap="round" stroke-linejoin="round"/>
</g>
</g>
<defs>
<filter id="filter0_d_1041_389" x="0.148438" y="0" width="44" height="44" filterUnits="userSpaceOnUse" color-interpolation-filters="sRGB">
<feFlood flood-opacity="0" result="BackgroundImageFix"/>
<feColorMatrix in="SourceAlpha" type="matrix" values="0 0 0 0 0 0 0 0 0 0 0 0 0 0 0 0 0 0 127 0" result="hardAlpha"/>
<feOffset dy="1"/>
<feGaussianBlur stdDeviation="1"/>
<feComposite in2="hardAlpha" operator="out"/>
<feColorMatrix type="matrix" values="0 0 0 0 0.0627451 0 0 0 0 0.0941176 0 0 0 0 0.156863 0 0 0 0.05 0"/>
<feBlend mode="normal" in2="BackgroundImageFix" result="effect1_dropShadow_1041_389"/>
<feBlend mode="normal" in="SourceGraphic" in2="effect1_dropShadow_1041_389" result="shape"/>
</filter>
<clipPath id="clip0_1041_389">
<rect width="20" height="20" fill="white" transform="translate(12.1484 11)"/>
</clipPath>
</defs>
</svg>
