<svg width="24" height="24" viewBox="0 0 24 24" fill="none" xmlns="http://www.w3.org/2000/svg">
<path d="M12.75 4.49962C9.06563 4.49962 5.94844 6.91368 4.88906 10.2418C6.46406 9.44493 8.24063 8.99962 10.125 8.99962H14.25C14.6625 8.99962 15 9.33712 15 9.74962C15 10.1621 14.6625 10.4996 14.25 10.4996H10.125C9.34688 10.4996 8.59219 10.5887 7.86094 10.7527C6.64687 11.0293 5.52188 11.5215 4.51406 12.1918C1.79531 14.0059 0 17.1043 0 20.6246V21.3746C0 21.9981 0.501562 22.4996 1.125 22.4996C1.74844 22.4996 2.25 21.9981 2.25 21.3746V20.6246C2.25 18.3418 3.22031 16.2887 4.77188 14.8496C5.7 18.3887 8.92031 20.9996 12.75 20.9996H12.7969C18.9891 20.9668 24 14.8637 24 7.34025C24 5.34337 23.6484 3.44493 23.0109 1.734C22.8891 1.41056 22.4156 1.42462 22.2516 1.72931C21.3703 3.37931 19.6266 4.49962 17.625 4.49962H12.75Z" fill="#04A42A"/>
</svg>
