<svg width="149" height="54" viewBox="0 0 149 54" fill="none" xmlns="http://www.w3.org/2000/svg">
<path d="M75.25 4.5C71.5656 4.5 68.4484 6.91407 67.3891 10.2422C68.9641 9.44532 70.7406 9 72.625 9H76.75C77.1625 9 77.5 9.3375 77.5 9.75C77.5 10.1625 77.1625 10.5 76.75 10.5H72.625C71.8469 10.5 71.0922 10.5891 70.3609 10.7531C69.1469 11.0297 68.0219 11.5219 67.0141 12.1922C64.2953 14.0063 62.5 17.1047 62.5 20.625V21.375C62.5 21.9984 63.0016 22.5 63.625 22.5C64.2484 22.5 64.75 21.9984 64.75 21.375V20.625C64.75 18.3422 65.7203 16.2891 67.2719 14.85C68.2 18.3891 71.4203 21 75.25 21H75.2969C81.4891 20.9672 86.5 14.8641 86.5 7.34063C86.5 5.34375 86.1484 3.44532 85.5109 1.73438C85.3891 1.41094 84.9156 1.425 84.7516 1.72969C83.8703 3.37969 82.1266 4.5 80.125 4.5H75.25Z" fill="#04A42A"/>
<path d="M1.728 48V30.12H4.848L11.544 39.216H10.056L16.608 30.12H19.728V48H16.44V33.84L17.712 34.152L10.92 43.2H10.536L3.912 34.152L4.992 33.84V48H1.728ZM23.0359 48V34.944H26.1799V48H23.0359ZM23.0359 33.48V30.12H26.1799V33.48H23.0359ZM35.5207 48.288C34.2247 48.288 33.0567 47.992 32.0167 47.4C30.9927 46.792 30.1847 45.976 29.5927 44.952C29.0007 43.912 28.7047 42.744 28.7047 41.448C28.7047 40.152 29.0007 38.992 29.5927 37.968C30.1847 36.944 30.9927 36.136 32.0167 35.544C33.0567 34.952 34.2247 34.656 35.5207 34.656C36.4487 34.656 37.3127 34.824 38.1127 35.16C38.9128 35.48 39.6007 35.928 40.1767 36.504C40.7687 37.064 41.1927 37.736 41.4488 38.52L38.6887 39.72C38.4487 39.064 38.0407 38.536 37.4647 38.136C36.9047 37.736 36.2567 37.536 35.5207 37.536C34.8327 37.536 34.2167 37.704 33.6727 38.04C33.1447 38.376 32.7287 38.84 32.4247 39.432C32.1207 40.024 31.9687 40.704 31.9687 41.472C31.9687 42.24 32.1207 42.92 32.4247 43.512C32.7287 44.104 33.1447 44.568 33.6727 44.904C34.2167 45.24 34.8327 45.408 35.5207 45.408C36.2727 45.408 36.9287 45.208 37.4887 44.808C38.0487 44.408 38.4487 43.872 38.6887 43.2L41.4488 44.448C41.1927 45.184 40.7767 45.848 40.2007 46.44C39.6247 47.016 38.9367 47.472 38.1367 47.808C37.3367 48.128 36.4647 48.288 35.5207 48.288ZM43.9843 48V34.944H46.9363V37.848L46.6963 37.416C47.0003 36.44 47.4723 35.76 48.1123 35.376C48.7683 34.992 49.5523 34.8 50.4643 34.8H51.2323V37.584H50.1043C49.2083 37.584 48.4883 37.864 47.9443 38.424C47.4003 38.968 47.1283 39.736 47.1283 40.728V48H43.9843ZM59.4949 48.288C58.2149 48.288 57.0469 47.992 55.9909 47.4C54.9509 46.808 54.1189 46 53.4949 44.976C52.8869 43.952 52.5829 42.784 52.5829 41.472C52.5829 40.16 52.8869 38.992 53.4949 37.968C54.1189 36.944 54.9509 36.136 55.9909 35.544C57.0309 34.952 58.1989 34.656 59.4949 34.656C60.7749 34.656 61.9349 34.952 62.9749 35.544C64.0149 36.136 64.8389 36.944 65.4469 37.968C66.0709 38.976 66.3829 40.144 66.3829 41.472C66.3829 42.784 66.0709 43.952 65.4469 44.976C64.8229 46 63.9909 46.808 62.9509 47.4C61.9109 47.992 60.7589 48.288 59.4949 48.288ZM59.4949 45.408C60.1989 45.408 60.8149 45.24 61.3429 44.904C61.8869 44.568 62.3109 44.104 62.6149 43.512C62.9349 42.904 63.0949 42.224 63.0949 41.472C63.0949 40.704 62.9349 40.032 62.6149 39.456C62.3109 38.864 61.8869 38.4 61.3429 38.064C60.8149 37.712 60.1989 37.536 59.4949 37.536C58.7749 37.536 58.1429 37.712 57.5989 38.064C57.0549 38.4 56.6229 38.864 56.3029 39.456C55.9989 40.032 55.8469 40.704 55.8469 41.472C55.8469 42.224 55.9989 42.904 56.3029 43.512C56.6229 44.104 57.0549 44.568 57.5989 44.904C58.1429 45.24 58.7749 45.408 59.4949 45.408ZM75.2531 53.28C74.2771 53.28 73.3731 53.12 72.5411 52.8C71.7091 52.48 70.9891 52.032 70.3811 51.456C69.7891 50.896 69.3571 50.232 69.0851 49.464L72.0131 48.36C72.2051 48.968 72.5811 49.456 73.1411 49.824C73.7171 50.208 74.4211 50.4 75.2531 50.4C75.8931 50.4 76.4531 50.28 76.9331 50.04C77.4291 49.8 77.8131 49.448 78.0851 48.984C78.3571 48.536 78.4931 47.992 78.4931 47.352V44.376L79.0931 45.096C78.6451 45.88 78.0451 46.472 77.2931 46.872C76.5411 47.272 75.6851 47.472 74.7251 47.472C73.5091 47.472 72.4211 47.192 71.4611 46.632C70.5011 46.072 69.7491 45.304 69.2051 44.328C68.6611 43.352 68.3891 42.256 68.3891 41.04C68.3891 39.808 68.6611 38.712 69.2051 37.752C69.7491 36.792 70.4931 36.04 71.4371 35.496C72.3811 34.936 73.4531 34.656 74.6531 34.656C75.6291 34.656 76.4851 34.864 77.2211 35.28C77.9731 35.68 78.5971 36.264 79.0931 37.032L78.6611 37.824V34.944H81.6371V47.352C81.6371 48.488 81.3571 49.504 80.7971 50.4C80.2531 51.296 79.5011 52 78.5411 52.512C77.5971 53.024 76.5011 53.28 75.2531 53.28ZM75.1091 44.568C75.7811 44.568 76.3651 44.424 76.8611 44.136C77.3731 43.832 77.7731 43.416 78.0611 42.888C78.3491 42.36 78.4931 41.752 78.4931 41.064C78.4931 40.392 78.3411 39.792 78.0371 39.264C77.7491 38.72 77.3491 38.296 76.8371 37.992C76.3411 37.688 75.7651 37.536 75.1091 37.536C74.4531 37.536 73.8611 37.688 73.3331 37.992C72.8051 38.296 72.3891 38.72 72.0851 39.264C71.7971 39.792 71.6531 40.392 71.6531 41.064C71.6531 41.736 71.7971 42.336 72.0851 42.864C72.3891 43.392 72.7971 43.808 73.3091 44.112C73.8371 44.416 74.4371 44.568 75.1091 44.568ZM84.7234 48V34.944H87.6754V37.848L87.4354 37.416C87.7394 36.44 88.2114 35.76 88.8514 35.376C89.5074 34.992 90.2914 34.8 91.2034 34.8H91.9714V37.584H90.8434C89.9474 37.584 89.2274 37.864 88.6834 38.424C88.1394 38.968 87.8674 39.736 87.8674 40.728V48H84.7234ZM100.042 48.288C98.6979 48.288 97.5219 47.984 96.5139 47.376C95.5059 46.768 94.7219 45.944 94.1619 44.904C93.6019 43.864 93.3219 42.712 93.3219 41.448C93.3219 40.136 93.6019 38.976 94.1619 37.968C94.7379 36.944 95.5139 36.136 96.4899 35.544C97.4819 34.952 98.5859 34.656 99.8019 34.656C100.826 34.656 101.722 34.824 102.49 35.16C103.274 35.496 103.938 35.96 104.482 36.552C105.026 37.144 105.442 37.824 105.73 38.592C106.018 39.344 106.162 40.16 106.162 41.04C106.162 41.264 106.146 41.496 106.114 41.736C106.098 41.976 106.058 42.184 105.994 42.36H95.9139V39.96H104.218L102.73 41.088C102.874 40.352 102.834 39.696 102.61 39.12C102.402 38.544 102.05 38.088 101.554 37.752C101.074 37.416 100.49 37.248 99.8019 37.248C99.1459 37.248 98.5619 37.416 98.0499 37.752C97.5379 38.072 97.1459 38.552 96.8739 39.192C96.6179 39.816 96.5219 40.576 96.5859 41.472C96.5219 42.272 96.6259 42.984 96.8979 43.608C97.1859 44.216 97.6019 44.688 98.1459 45.024C98.7059 45.36 99.3459 45.528 100.066 45.528C100.786 45.528 101.394 45.376 101.89 45.072C102.402 44.768 102.802 44.36 103.09 43.848L105.634 45.096C105.378 45.72 104.978 46.272 104.434 46.752C103.89 47.232 103.242 47.608 102.49 47.88C101.754 48.152 100.938 48.288 100.042 48.288ZM114.887 48.288C113.543 48.288 112.367 47.984 111.359 47.376C110.351 46.768 109.567 45.944 109.007 44.904C108.447 43.864 108.167 42.712 108.167 41.448C108.167 40.136 108.447 38.976 109.007 37.968C109.583 36.944 110.359 36.136 111.335 35.544C112.327 34.952 113.431 34.656 114.647 34.656C115.671 34.656 116.567 34.824 117.335 35.16C118.119 35.496 118.783 35.96 119.327 36.552C119.871 37.144 120.287 37.824 120.575 38.592C120.863 39.344 121.007 40.16 121.007 41.04C121.007 41.264 120.991 41.496 120.959 41.736C120.943 41.976 120.903 42.184 120.839 42.36H110.759V39.96H119.063L117.575 41.088C117.719 40.352 117.679 39.696 117.455 39.12C117.247 38.544 116.895 38.088 116.399 37.752C115.919 37.416 115.335 37.248 114.647 37.248C113.991 37.248 113.407 37.416 112.895 37.752C112.383 38.072 111.991 38.552 111.719 39.192C111.463 39.816 111.367 40.576 111.431 41.472C111.367 42.272 111.471 42.984 111.743 43.608C112.031 44.216 112.447 44.688 112.991 45.024C113.551 45.36 114.191 45.528 114.911 45.528C115.631 45.528 116.239 45.376 116.735 45.072C117.247 44.768 117.647 44.36 117.935 43.848L120.479 45.096C120.223 45.72 119.823 46.272 119.279 46.752C118.735 47.232 118.087 47.608 117.335 47.88C116.599 48.152 115.783 48.288 114.887 48.288ZM123.541 48V34.944H126.493V37.512L126.253 37.056C126.557 36.272 127.053 35.68 127.741 35.28C128.445 34.864 129.261 34.656 130.189 34.656C131.149 34.656 131.997 34.864 132.733 35.28C133.485 35.696 134.069 36.28 134.485 37.032C134.901 37.768 135.109 38.624 135.109 39.6V48H131.965V40.344C131.965 39.768 131.853 39.272 131.629 38.856C131.405 38.44 131.093 38.12 130.693 37.896C130.309 37.656 129.853 37.536 129.325 37.536C128.813 37.536 128.357 37.656 127.957 37.896C127.557 38.12 127.245 38.44 127.021 38.856C126.797 39.272 126.685 39.768 126.685 40.344V48H123.541ZM142.885 48.288C141.493 48.288 140.277 47.96 139.237 47.304C138.213 46.632 137.509 45.728 137.125 44.592L139.477 43.464C139.813 44.2 140.277 44.776 140.869 45.192C141.477 45.608 142.149 45.816 142.885 45.816C143.461 45.816 143.917 45.688 144.253 45.432C144.589 45.176 144.757 44.84 144.757 44.424C144.757 44.168 144.685 43.96 144.541 43.8C144.413 43.624 144.229 43.48 143.989 43.368C143.765 43.24 143.517 43.136 143.245 43.056L141.109 42.456C140.005 42.136 139.165 41.648 138.589 40.992C138.029 40.336 137.749 39.56 137.749 38.664C137.749 37.864 137.949 37.168 138.349 36.576C138.765 35.968 139.333 35.496 140.053 35.16C140.789 34.824 141.629 34.656 142.573 34.656C143.805 34.656 144.893 34.952 145.837 35.544C146.781 36.136 147.453 36.968 147.853 38.04L145.453 39.168C145.229 38.576 144.853 38.104 144.325 37.752C143.797 37.4 143.205 37.224 142.549 37.224C142.021 37.224 141.605 37.344 141.301 37.584C140.997 37.824 140.845 38.136 140.845 38.52C140.845 38.76 140.909 38.968 141.037 39.144C141.165 39.32 141.341 39.464 141.565 39.576C141.805 39.688 142.077 39.792 142.381 39.888L144.469 40.512C145.541 40.832 146.365 41.312 146.941 41.952C147.533 42.592 147.829 43.376 147.829 44.304C147.829 45.088 147.621 45.784 147.205 46.392C146.789 46.984 146.213 47.448 145.477 47.784C144.741 48.12 143.877 48.288 142.885 48.288Z" fill="#04A42A"/>
</svg>
