<svg width="433" height="160" viewBox="0 0 433 160" fill="none" xmlns="http://www.w3.org/2000/svg">
<path d="M1.29141 121L26.9914 46.5H44.5914L70.2914 121H55.4914L50.1914 105H21.3914L15.9914 121H1.29141ZM25.2914 93H46.2914L33.8914 55.9H37.6914L25.2914 93ZM107.183 122.2C103.249 122.2 99.6161 121.433 96.2828 119.9C93.0161 118.3 90.4161 116.033 88.4828 113.1L89.7828 110.5V121H77.4828V45.3H90.5828V77.4L88.5828 74.7C90.4495 71.7667 92.9828 69.5 96.1828 67.9C99.3828 66.2333 103.083 65.4 107.283 65.4C112.416 65.4 117.049 66.6667 121.183 69.2C125.316 71.7333 128.583 75.1333 130.983 79.4C133.449 83.6667 134.683 88.4667 134.683 93.8C134.683 99.0667 133.483 103.867 131.083 108.2C128.683 112.533 125.416 115.967 121.283 118.5C117.149 120.967 112.449 122.2 107.183 122.2ZM105.683 110.2C108.683 110.2 111.349 109.5 113.683 108.1C116.016 106.7 117.816 104.767 119.083 102.3C120.416 99.8333 121.083 97 121.083 93.8C121.083 90.6 120.416 87.8 119.083 85.4C117.816 82.9333 116.016 81 113.683 79.6C111.349 78.1333 108.683 77.4 105.683 77.4C102.816 77.4 100.216 78.1 97.8828 79.5C95.6161 80.9 93.8161 82.8667 92.4828 85.4C91.2161 87.8667 90.5828 90.6667 90.5828 93.8C90.5828 97 91.2161 99.8333 92.4828 102.3C93.8161 104.767 95.6161 106.7 97.8828 108.1C100.216 109.5 102.816 110.2 105.683 110.2ZM171.27 122.2C165.937 122.2 161.07 120.967 156.67 118.5C152.337 116.033 148.87 112.667 146.27 108.4C143.737 104.133 142.47 99.2667 142.47 93.8C142.47 88.3333 143.737 83.4667 146.27 79.2C148.87 74.9333 152.337 71.5667 156.67 69.1C161.004 66.6333 165.87 65.4 171.27 65.4C176.604 65.4 181.437 66.6333 185.77 69.1C190.104 71.5667 193.537 74.9333 196.07 79.2C198.67 83.4 199.97 88.2667 199.97 93.8C199.97 99.2667 198.67 104.133 196.07 108.4C193.47 112.667 190.004 116.033 185.67 118.5C181.337 120.967 176.537 122.2 171.27 122.2ZM171.27 110.2C174.204 110.2 176.77 109.5 178.97 108.1C181.237 106.7 183.004 104.767 184.27 102.3C185.604 99.7667 186.27 96.9333 186.27 93.8C186.27 90.6 185.604 87.8 184.27 85.4C183.004 82.9333 181.237 81 178.97 79.6C176.77 78.1333 174.204 77.4 171.27 77.4C168.27 77.4 165.637 78.1333 163.37 79.6C161.104 81 159.304 82.9333 157.97 85.4C156.704 87.8 156.07 90.6 156.07 93.8C156.07 96.9333 156.704 99.7667 157.97 102.3C159.304 104.767 161.104 106.7 163.37 108.1C165.637 109.5 168.27 110.2 171.27 110.2ZM229.305 122.2C225.105 122.2 221.438 121.267 218.305 119.4C215.238 117.533 212.871 114.933 211.205 111.6C209.605 108.267 208.805 104.367 208.805 99.9V66.6H221.905V98.8C221.905 101.067 222.338 103.067 223.205 104.8C224.138 106.467 225.438 107.8 227.105 108.8C228.838 109.733 230.771 110.2 232.905 110.2C235.038 110.2 236.938 109.733 238.605 108.8C240.271 107.8 241.571 106.433 242.505 104.7C243.438 102.967 243.905 100.9 243.905 98.5V66.6H257.005V121H244.605V110.3L245.705 112.2C244.438 115.533 242.338 118.033 239.405 119.7C236.538 121.367 233.171 122.2 229.305 122.2ZM293.982 121.6C287.849 121.6 283.082 119.933 279.682 116.6C276.349 113.2 274.682 108.433 274.682 102.3V78.3H265.282V66.6H266.282C268.949 66.6 271.015 65.9 272.482 64.5C273.949 63.1 274.682 61.0667 274.682 58.4V54.2H287.782V66.6H300.282V78.3H287.782V101.6C287.782 103.4 288.082 104.933 288.682 106.2C289.349 107.467 290.349 108.433 291.682 109.1C293.082 109.767 294.849 110.1 296.982 110.1C297.449 110.1 297.982 110.067 298.582 110C299.249 109.933 299.882 109.867 300.482 109.8V121C299.549 121.133 298.482 121.267 297.282 121.4C296.082 121.533 294.982 121.6 293.982 121.6ZM347.664 122.2C343.464 122.2 339.797 121.267 336.664 119.4C333.597 117.533 331.231 114.933 329.564 111.6C327.964 108.267 327.164 104.367 327.164 99.9V66.6H340.264V98.8C340.264 101.067 340.697 103.067 341.564 104.8C342.497 106.467 343.797 107.8 345.464 108.8C347.197 109.733 349.131 110.2 351.264 110.2C353.397 110.2 355.297 109.733 356.964 108.8C358.631 107.8 359.931 106.433 360.864 104.7C361.797 102.967 362.264 100.9 362.264 98.5V66.6H375.364V121H362.964V110.3L364.064 112.2C362.797 115.533 360.697 118.033 357.764 119.7C354.897 121.367 351.531 122.2 347.664 122.2ZM408.241 122.2C402.441 122.2 397.375 120.833 393.041 118.1C388.775 115.3 385.841 111.533 384.241 106.8L394.041 102.1C395.441 105.167 397.375 107.567 399.841 109.3C402.375 111.033 405.175 111.9 408.241 111.9C410.641 111.9 412.541 111.367 413.941 110.3C415.341 109.233 416.041 107.833 416.041 106.1C416.041 105.033 415.741 104.167 415.141 103.5C414.608 102.767 413.841 102.167 412.841 101.7C411.908 101.167 410.875 100.733 409.741 100.4L400.841 97.9C396.241 96.5667 392.741 94.5333 390.341 91.8C388.008 89.0667 386.841 85.8333 386.841 82.1C386.841 78.7667 387.675 75.8667 389.341 73.4C391.075 70.8667 393.441 68.9 396.441 67.5C399.508 66.1 403.008 65.4 406.941 65.4C412.075 65.4 416.608 66.6333 420.541 69.1C424.475 71.5667 427.275 75.0333 428.941 79.5L418.941 84.2C418.008 81.7333 416.441 79.7667 414.241 78.3C412.041 76.8333 409.575 76.1 406.841 76.1C404.641 76.1 402.908 76.6 401.641 77.6C400.375 78.6 399.741 79.9 399.741 81.5C399.741 82.5 400.008 83.3667 400.541 84.1C401.075 84.8333 401.808 85.4333 402.741 85.9C403.741 86.3667 404.875 86.8 406.141 87.2L414.841 89.8C419.308 91.1333 422.741 93.1333 425.141 95.8C427.608 98.4667 428.841 101.733 428.841 105.6C428.841 108.867 427.975 111.767 426.241 114.3C424.508 116.767 422.108 118.7 419.041 120.1C415.975 121.5 412.375 122.2 408.241 122.2Z" fill="#04A42A" fill-opacity="0.05"/>
<path d="M86.8748 64L102.295 19.3H112.855L128.275 64H119.395L116.215 54.4H98.9348L95.6948 64H86.8748ZM101.275 47.2H113.875L106.435 24.94H108.715L101.275 47.2ZM150.41 64.72C148.05 64.72 145.87 64.26 143.87 63.34C141.91 62.38 140.35 61.02 139.19 59.26L139.97 57.7V64H132.59V18.58H140.45V37.84L139.25 36.22C140.37 34.46 141.89 33.1 143.81 32.14C145.73 31.14 147.95 30.64 150.47 30.64C153.55 30.64 156.33 31.4 158.81 32.92C161.29 34.44 163.25 36.48 164.69 39.04C166.17 41.6 166.91 44.48 166.91 47.68C166.91 50.84 166.19 53.72 164.75 56.32C163.31 58.92 161.35 60.98 158.87 62.5C156.39 63.98 153.57 64.72 150.41 64.72ZM149.51 57.52C151.31 57.52 152.91 57.1 154.31 56.26C155.71 55.42 156.79 54.26 157.55 52.78C158.35 51.3 158.75 49.6 158.75 47.68C158.75 45.76 158.35 44.08 157.55 42.64C156.79 41.16 155.71 40 154.31 39.16C152.91 38.28 151.31 37.84 149.51 37.84C147.79 37.84 146.23 38.26 144.83 39.1C143.47 39.94 142.39 41.12 141.59 42.64C140.83 44.12 140.45 45.8 140.45 47.68C140.45 49.6 140.83 51.3 141.59 52.78C142.39 54.26 143.47 55.42 144.83 56.26C146.23 57.1 147.79 57.52 149.51 57.52ZM188.862 64.72C185.662 64.72 182.742 63.98 180.102 62.5C177.502 61.02 175.422 59 173.862 56.44C172.342 53.88 171.582 50.96 171.582 47.68C171.582 44.4 172.342 41.48 173.862 38.92C175.422 36.36 177.502 34.34 180.102 32.86C182.702 31.38 185.622 30.64 188.862 30.64C192.062 30.64 194.962 31.38 197.562 32.86C200.162 34.34 202.222 36.36 203.742 38.92C205.302 41.44 206.082 44.36 206.082 47.68C206.082 50.96 205.302 53.88 203.742 56.44C202.182 59 200.102 61.02 197.502 62.5C194.902 63.98 192.022 64.72 188.862 64.72ZM188.862 57.52C190.622 57.52 192.162 57.1 193.482 56.26C194.842 55.42 195.902 54.26 196.662 52.78C197.462 51.26 197.862 49.56 197.862 47.68C197.862 45.76 197.462 44.08 196.662 42.64C195.902 41.16 194.842 40 193.482 39.16C192.162 38.28 190.622 37.84 188.862 37.84C187.062 37.84 185.482 38.28 184.122 39.16C182.762 40 181.682 41.16 180.882 42.64C180.122 44.08 179.742 45.76 179.742 47.68C179.742 49.56 180.122 51.26 180.882 52.78C181.682 54.26 182.762 55.42 184.122 56.26C185.482 57.1 187.062 57.52 188.862 57.52ZM223.683 64.72C221.163 64.72 218.963 64.16 217.083 63.04C215.243 61.92 213.823 60.36 212.823 58.36C211.863 56.36 211.383 54.02 211.383 51.34V31.36H219.243V50.68C219.243 52.04 219.503 53.24 220.023 54.28C220.583 55.28 221.363 56.08 222.363 56.68C223.403 57.24 224.563 57.52 225.843 57.52C227.123 57.52 228.263 57.24 229.263 56.68C230.263 56.08 231.043 55.26 231.603 54.22C232.163 53.18 232.443 51.94 232.443 50.5V31.36H240.303V64H232.863V57.58L233.523 58.72C232.763 60.72 231.503 62.22 229.743 63.22C228.023 64.22 226.003 64.72 223.683 64.72ZM262.489 64.36C258.809 64.36 255.949 63.36 253.909 61.36C251.909 59.32 250.909 56.46 250.909 52.78V38.38H245.269V31.36H245.869C247.469 31.36 248.709 30.94 249.589 30.1C250.469 29.26 250.909 28.04 250.909 26.44V23.92H258.769V31.36H266.269V38.38H258.769V52.36C258.769 53.44 258.949 54.36 259.309 55.12C259.709 55.88 260.309 56.46 261.109 56.86C261.949 57.26 263.009 57.46 264.289 57.46C264.569 57.46 264.889 57.44 265.249 57.4C265.649 57.36 266.029 57.32 266.389 57.28V64C265.829 64.08 265.189 64.16 264.469 64.24C263.749 64.32 263.089 64.36 262.489 64.36ZM294.698 64.72C292.178 64.72 289.978 64.16 288.098 63.04C286.258 61.92 284.838 60.36 283.838 58.36C282.878 56.36 282.398 54.02 282.398 51.34V31.36H290.258V50.68C290.258 52.04 290.518 53.24 291.038 54.28C291.598 55.28 292.378 56.08 293.378 56.68C294.418 57.24 295.578 57.52 296.858 57.52C298.138 57.52 299.278 57.24 300.278 56.68C301.278 56.08 302.058 55.26 302.618 54.22C303.178 53.18 303.458 51.94 303.458 50.5V31.36H311.318V64H303.878V57.58L304.538 58.72C303.778 60.72 302.518 62.22 300.758 63.22C299.038 64.22 297.018 64.72 294.698 64.72ZM331.045 64.72C327.565 64.72 324.525 63.9 321.925 62.26C319.365 60.58 317.605 58.32 316.645 55.48L322.525 52.66C323.365 54.5 324.525 55.94 326.005 56.98C327.525 58.02 329.205 58.54 331.045 58.54C332.485 58.54 333.625 58.22 334.465 57.58C335.305 56.94 335.725 56.1 335.725 55.06C335.725 54.42 335.545 53.9 335.185 53.5C334.865 53.06 334.405 52.7 333.805 52.42C333.245 52.1 332.625 51.84 331.945 51.64L326.605 50.14C323.845 49.34 321.745 48.12 320.305 46.48C318.905 44.84 318.205 42.9 318.205 40.66C318.205 38.66 318.705 36.92 319.705 35.44C320.745 33.92 322.165 32.74 323.965 31.9C325.805 31.06 327.905 30.64 330.265 30.64C333.345 30.64 336.065 31.38 338.425 32.86C340.785 34.34 342.465 36.42 343.465 39.1L337.465 41.92C336.905 40.44 335.965 39.26 334.645 38.38C333.325 37.5 331.845 37.06 330.205 37.06C328.885 37.06 327.845 37.36 327.085 37.96C326.325 38.56 325.945 39.34 325.945 40.3C325.945 40.9 326.105 41.42 326.425 41.86C326.745 42.3 327.185 42.66 327.745 42.94C328.345 43.22 329.025 43.48 329.785 43.72L335.005 45.28C337.685 46.08 339.745 47.28 341.185 48.88C342.665 50.48 343.405 52.44 343.405 54.76C343.405 56.72 342.885 58.46 341.845 59.98C340.805 61.46 339.365 62.62 337.525 63.46C335.685 64.3 333.525 64.72 331.045 64.72Z" fill="#04A42A"/>
</svg>
