<svg width="788" height="160" viewBox="0 0 788 160" fill="none" xmlns="http://www.w3.org/2000/svg">
<path d="M21.8383 121L1.83828 46.5H16.4383L32.1383 110H28.3383L44.7383 46.5H58.8383L75.1383 110H71.3383L87.0383 46.5H101.638L81.6383 121H66.0383L49.5383 59.2H53.9383L37.4383 121H21.8383ZM108.791 121V45.3H121.891V77.3L120.091 75.4C121.358 72.1333 123.425 69.6667 126.291 68C129.225 66.2667 132.625 65.4 136.491 65.4C140.491 65.4 144.025 66.2667 147.091 68C150.225 69.7333 152.658 72.1667 154.391 75.3C156.125 78.3667 156.991 81.9333 156.991 86V121H143.891V89.1C143.891 86.7 143.425 84.6333 142.491 82.9C141.558 81.1667 140.258 79.8333 138.591 78.9C136.991 77.9 135.091 77.4 132.891 77.4C130.758 77.4 128.858 77.9 127.191 78.9C125.525 79.8333 124.225 81.1667 123.291 82.9C122.358 84.6333 121.891 86.7 121.891 89.1V121H108.791ZM173.692 143C172.226 143 170.792 142.867 169.392 142.6C167.992 142.4 166.726 142 165.592 141.4V130.5C166.459 130.7 167.492 130.9 168.692 131.1C169.959 131.3 171.126 131.4 172.192 131.4C175.192 131.4 177.359 130.7 178.692 129.3C180.092 127.967 181.326 126.167 182.392 123.9L185.992 115.5L185.792 126.5L162.092 66.6H176.192L192.792 110.8H187.792L204.292 66.6H218.492L194.792 126.5C193.392 129.967 191.692 132.933 189.692 135.4C187.692 137.867 185.359 139.733 182.692 141C180.092 142.333 177.092 143 173.692 143ZM269.659 122.2C264.259 122.2 259.393 120.967 255.059 118.5C250.793 115.967 247.426 112.567 244.959 108.3C242.493 103.967 241.259 99.1 241.259 93.7C241.259 88.3 242.493 83.4667 244.959 79.2C247.426 74.9333 250.793 71.5667 255.059 69.1C259.393 66.6333 264.259 65.4 269.659 65.4C273.526 65.4 277.126 66.1 280.459 67.5C283.793 68.8333 286.659 70.7 289.059 73.1C291.526 75.4333 293.293 78.2333 294.359 81.5L282.859 86.5C281.859 83.7667 280.159 81.5667 277.759 79.9C275.426 78.2333 272.726 77.4 269.659 77.4C266.793 77.4 264.226 78.1 261.959 79.5C259.759 80.9 258.026 82.8333 256.759 85.3C255.493 87.7667 254.859 90.6 254.859 93.8C254.859 97 255.493 99.8333 256.759 102.3C258.026 104.767 259.759 106.7 261.959 108.1C264.226 109.5 266.793 110.2 269.659 110.2C272.793 110.2 275.526 109.367 277.859 107.7C280.193 106.033 281.859 103.8 282.859 101L294.359 106.2C293.293 109.267 291.559 112.033 289.159 114.5C286.759 116.9 283.893 118.8 280.559 120.2C277.226 121.533 273.593 122.2 269.659 122.2ZM304.299 121V45.3H317.399V77.3L315.599 75.4C316.866 72.1333 318.933 69.6667 321.799 68C324.733 66.2667 328.133 65.4 331.999 65.4C335.999 65.4 339.533 66.2667 342.599 68C345.733 69.7333 348.166 72.1667 349.899 75.3C351.633 78.3667 352.499 81.9333 352.499 86V121H339.399V89.1C339.399 86.7 338.933 84.6333 337.999 82.9C337.066 81.1667 335.766 79.8333 334.099 78.9C332.499 77.9 330.599 77.4 328.399 77.4C326.266 77.4 324.366 77.9 322.699 78.9C321.033 79.8333 319.733 81.1667 318.799 82.9C317.866 84.6333 317.399 86.7 317.399 89.1V121H304.299ZM390.177 122.2C384.843 122.2 379.977 120.967 375.577 118.5C371.243 116.033 367.777 112.667 365.177 108.4C362.643 104.133 361.377 99.2667 361.377 93.8C361.377 88.3333 362.643 83.4667 365.177 79.2C367.777 74.9333 371.243 71.5667 375.577 69.1C379.91 66.6333 384.777 65.4 390.177 65.4C395.51 65.4 400.343 66.6333 404.677 69.1C409.01 71.5667 412.443 74.9333 414.977 79.2C417.577 83.4 418.877 88.2667 418.877 93.8C418.877 99.2667 417.577 104.133 414.977 108.4C412.377 112.667 408.91 116.033 404.577 118.5C400.243 120.967 395.443 122.2 390.177 122.2ZM390.177 110.2C393.11 110.2 395.677 109.5 397.877 108.1C400.143 106.7 401.91 104.767 403.177 102.3C404.51 99.7667 405.177 96.9333 405.177 93.8C405.177 90.6 404.51 87.8 403.177 85.4C401.91 82.9333 400.143 81 397.877 79.6C395.677 78.1333 393.11 77.4 390.177 77.4C387.177 77.4 384.543 78.1333 382.277 79.6C380.01 81 378.21 82.9333 376.877 85.4C375.61 87.8 374.977 90.6 374.977 93.8C374.977 96.9333 375.61 99.7667 376.877 102.3C378.21 104.767 380.01 106.7 382.277 108.1C384.543 109.5 387.177 110.2 390.177 110.2ZM455.411 122.2C450.078 122.2 445.211 120.967 440.811 118.5C436.478 116.033 433.011 112.667 430.411 108.4C427.878 104.133 426.611 99.2667 426.611 93.8C426.611 88.3333 427.878 83.4667 430.411 79.2C433.011 74.9333 436.478 71.5667 440.811 69.1C445.144 66.6333 450.011 65.4 455.411 65.4C460.744 65.4 465.578 66.6333 469.911 69.1C474.244 71.5667 477.678 74.9333 480.211 79.2C482.811 83.4 484.111 88.2667 484.111 93.8C484.111 99.2667 482.811 104.133 480.211 108.4C477.611 112.667 474.144 116.033 469.811 118.5C465.478 120.967 460.678 122.2 455.411 122.2ZM455.411 110.2C458.344 110.2 460.911 109.5 463.111 108.1C465.378 106.7 467.144 104.767 468.411 102.3C469.744 99.7667 470.411 96.9333 470.411 93.8C470.411 90.6 469.744 87.8 468.411 85.4C467.144 82.9333 465.378 81 463.111 79.6C460.911 78.1333 458.344 77.4 455.411 77.4C452.411 77.4 449.778 78.1333 447.511 79.6C445.244 81 443.444 82.9333 442.111 85.4C440.844 87.8 440.211 90.6 440.211 93.8C440.211 96.9333 440.844 99.7667 442.111 102.3C443.444 104.767 445.244 106.7 447.511 108.1C449.778 109.5 452.411 110.2 455.411 110.2ZM514.745 122.2C508.945 122.2 503.879 120.833 499.545 118.1C495.279 115.3 492.345 111.533 490.745 106.8L500.545 102.1C501.945 105.167 503.879 107.567 506.345 109.3C508.879 111.033 511.679 111.9 514.745 111.9C517.145 111.9 519.045 111.367 520.445 110.3C521.845 109.233 522.545 107.833 522.545 106.1C522.545 105.033 522.245 104.167 521.645 103.5C521.112 102.767 520.345 102.167 519.345 101.7C518.412 101.167 517.379 100.733 516.245 100.4L507.345 97.9C502.745 96.5667 499.245 94.5333 496.845 91.8C494.512 89.0667 493.345 85.8333 493.345 82.1C493.345 78.7667 494.179 75.8667 495.845 73.4C497.579 70.8667 499.945 68.9 502.945 67.5C506.012 66.1 509.512 65.4 513.445 65.4C518.579 65.4 523.112 66.6333 527.045 69.1C530.979 71.5667 533.779 75.0333 535.445 79.5L525.445 84.2C524.512 81.7333 522.945 79.7667 520.745 78.3C518.545 76.8333 516.079 76.1 513.345 76.1C511.145 76.1 509.412 76.6 508.145 77.6C506.879 78.6 506.245 79.9 506.245 81.5C506.245 82.5 506.512 83.3667 507.045 84.1C507.579 84.8333 508.312 85.4333 509.245 85.9C510.245 86.3667 511.379 86.8 512.645 87.2L521.345 89.8C525.812 91.1333 529.245 93.1333 531.645 95.8C534.112 98.4667 535.345 101.733 535.345 105.6C535.345 108.867 534.479 111.767 532.745 114.3C531.012 116.767 528.612 118.7 525.545 120.1C522.479 121.5 518.879 122.2 514.745 122.2ZM571.213 122.2C565.613 122.2 560.713 120.933 556.513 118.4C552.313 115.867 549.046 112.433 546.713 108.1C544.379 103.767 543.213 98.9667 543.213 93.7C543.213 88.2333 544.379 83.4 546.713 79.2C549.113 74.9333 552.346 71.5667 556.413 69.1C560.546 66.6333 565.146 65.4 570.213 65.4C574.479 65.4 578.213 66.1 581.413 67.5C584.679 68.9 587.446 70.8333 589.713 73.3C591.979 75.7667 593.713 78.6 594.913 81.8C596.113 84.9333 596.713 88.3333 596.713 92C596.713 92.9333 596.646 93.9 596.513 94.9C596.446 95.9 596.279 96.7667 596.013 97.5H554.012V87.5H588.613L582.413 92.2C583.013 89.1333 582.846 86.4 581.913 84C581.046 81.6 579.579 79.7 577.513 78.3C575.513 76.9 573.079 76.2 570.213 76.2C567.479 76.2 565.046 76.9 562.913 78.3C560.779 79.6333 559.146 81.6333 558.013 84.3C556.946 86.9 556.546 90.0667 556.813 93.8C556.546 97.1333 556.979 100.1 558.113 102.7C559.313 105.233 561.046 107.2 563.313 108.6C565.646 110 568.313 110.7 571.313 110.7C574.313 110.7 576.846 110.067 578.913 108.8C581.046 107.533 582.713 105.833 583.913 103.7L594.513 108.9C593.446 111.5 591.779 113.8 589.513 115.8C587.246 117.8 584.546 119.367 581.413 120.5C578.346 121.633 574.946 122.2 571.213 122.2ZM643.816 122.2C639.616 122.2 635.95 121.267 632.816 119.4C629.75 117.533 627.383 114.933 625.716 111.6C624.116 108.267 623.316 104.367 623.316 99.9V66.6H636.416V98.8C636.416 101.067 636.85 103.067 637.716 104.8C638.65 106.467 639.95 107.8 641.616 108.8C643.35 109.733 645.283 110.2 647.416 110.2C649.55 110.2 651.45 109.733 653.116 108.8C654.783 107.8 656.083 106.433 657.016 104.7C657.95 102.967 658.416 100.9 658.416 98.5V66.6H671.516V121H659.116V110.3L660.216 112.2C658.95 115.533 656.85 118.033 653.916 119.7C651.05 121.367 647.683 122.2 643.816 122.2ZM704.394 122.2C698.594 122.2 693.527 120.833 689.194 118.1C684.927 115.3 681.994 111.533 680.394 106.8L690.194 102.1C691.594 105.167 693.527 107.567 695.994 109.3C698.527 111.033 701.327 111.9 704.394 111.9C706.794 111.9 708.694 111.367 710.094 110.3C711.494 109.233 712.194 107.833 712.194 106.1C712.194 105.033 711.894 104.167 711.294 103.5C710.76 102.767 709.994 102.167 708.994 101.7C708.06 101.167 707.027 100.733 705.894 100.4L696.994 97.9C692.394 96.5667 688.894 94.5333 686.494 91.8C684.16 89.0667 682.994 85.8333 682.994 82.1C682.994 78.7667 683.827 75.8667 685.494 73.4C687.227 70.8667 689.594 68.9 692.594 67.5C695.66 66.1 699.16 65.4 703.094 65.4C708.227 65.4 712.76 66.6333 716.694 69.1C720.627 71.5667 723.427 75.0333 725.094 79.5L715.094 84.2C714.16 81.7333 712.594 79.7667 710.394 78.3C708.194 76.8333 705.727 76.1 702.994 76.1C700.794 76.1 699.06 76.6 697.794 77.6C696.527 78.6 695.894 79.9 695.894 81.5C695.894 82.5 696.16 83.3667 696.694 84.1C697.227 84.8333 697.96 85.4333 698.894 85.9C699.894 86.3667 701.027 86.8 702.294 87.2L710.994 89.8C715.46 91.1333 718.894 93.1333 721.294 95.8C723.76 98.4667 724.994 101.733 724.994 105.6C724.994 108.867 724.127 111.767 722.394 114.3C720.66 116.767 718.26 118.7 715.194 120.1C712.127 121.5 708.527 122.2 704.394 122.2ZM750.061 98.4V96.4C750.061 93.4667 750.494 90.8667 751.361 88.6C752.294 86.3333 753.461 84.3333 754.861 82.6C756.261 80.8 757.728 79.1667 759.261 77.7C761.328 75.6333 763.161 73.7333 764.761 72C766.428 70.2 767.261 68.1 767.261 65.7C767.261 64.2333 766.894 62.8667 766.161 61.6C765.428 60.3333 764.328 59.3333 762.861 58.6C761.461 57.8667 759.728 57.5 757.661 57.5C754.861 57.5 752.428 58.3667 750.361 60.1C748.361 61.8333 747.128 64.1333 746.661 67L734.461 64C735.061 60.2667 736.394 57 738.461 54.2C740.594 51.4 743.328 49.2333 746.661 47.7C750.061 46.1 753.828 45.3 757.961 45.3C762.828 45.3 766.961 46.2667 770.361 48.2C773.828 50.1333 776.461 52.6333 778.261 55.7C780.061 58.7667 780.961 62 780.961 65.4C780.961 68.0667 780.428 70.4333 779.361 72.5C778.294 74.5667 776.961 76.4667 775.361 78.2C773.828 79.8667 772.228 81.5333 770.561 83.2C768.428 85.2 766.561 87.3 764.961 89.5C763.361 91.7 762.561 94.2667 762.561 97.2V98.4H750.061ZM749.761 121V107H763.061V121H749.761Z" fill="#04A42A" fill-opacity="0.05"/>
<path d="M170.203 64L158.203 19.3H166.963L176.383 57.4H174.103L183.943 19.3H192.403L202.183 57.4H199.903L209.323 19.3H218.083L206.083 64H196.723L186.823 26.92H189.463L179.563 64H170.203ZM222.375 64V18.58H230.235V37.78L229.155 36.64C229.915 34.68 231.155 33.2 232.875 32.2C234.635 31.16 236.675 30.64 238.995 30.64C241.395 30.64 243.515 31.16 245.355 32.2C247.235 33.24 248.695 34.7 249.735 36.58C250.775 38.42 251.295 40.56 251.295 43V64H243.435V44.86C243.435 43.42 243.155 42.18 242.595 41.14C242.035 40.1 241.255 39.3 240.255 38.74C239.295 38.14 238.155 37.84 236.835 37.84C235.555 37.84 234.415 38.14 233.415 38.74C232.415 39.3 231.635 40.1 231.075 41.14C230.515 42.18 230.235 43.42 230.235 44.86V64H222.375ZM261.315 77.2C260.435 77.2 259.575 77.12 258.735 76.96C257.895 76.84 257.135 76.6 256.455 76.24V69.7C256.975 69.82 257.595 69.94 258.315 70.06C259.075 70.18 259.775 70.24 260.415 70.24C262.215 70.24 263.515 69.82 264.315 68.98C265.155 68.18 265.895 67.1 266.535 65.74L268.695 60.7L268.575 67.3L254.355 31.36H262.815L272.775 57.88H269.775L279.675 31.36H288.195L273.975 67.3C273.135 69.38 272.115 71.16 270.915 72.64C269.715 74.12 268.315 75.24 266.715 76C265.155 76.8 263.355 77.2 261.315 77.2ZM318.896 64.72C315.656 64.72 312.736 63.98 310.136 62.5C307.576 60.98 305.556 58.94 304.076 56.38C302.596 53.78 301.856 50.86 301.856 47.62C301.856 44.38 302.596 41.48 304.076 38.92C305.556 36.36 307.576 34.34 310.136 32.86C312.736 31.38 315.656 30.64 318.896 30.64C321.216 30.64 323.376 31.06 325.376 31.9C327.376 32.7 329.096 33.82 330.536 35.26C332.016 36.66 333.076 38.34 333.716 40.3L326.816 43.3C326.216 41.66 325.196 40.34 323.756 39.34C322.356 38.34 320.736 37.84 318.896 37.84C317.176 37.84 315.636 38.26 314.276 39.1C312.956 39.94 311.916 41.1 311.156 42.58C310.396 44.06 310.016 45.76 310.016 47.68C310.016 49.6 310.396 51.3 311.156 52.78C311.916 54.26 312.956 55.42 314.276 56.26C315.636 57.1 317.176 57.52 318.896 57.52C320.776 57.52 322.416 57.02 323.816 56.02C325.216 55.02 326.216 53.68 326.816 52L333.716 55.12C333.076 56.96 332.036 58.62 330.596 60.1C329.156 61.54 327.436 62.68 325.436 63.52C323.436 64.32 321.256 64.72 318.896 64.72ZM339.68 64V18.58H347.54V37.78L346.46 36.64C347.22 34.68 348.46 33.2 350.18 32.2C351.94 31.16 353.98 30.64 356.3 30.64C358.7 30.64 360.82 31.16 362.66 32.2C364.54 33.24 366 34.7 367.04 36.58C368.08 38.42 368.6 40.56 368.6 43V64H360.74V44.86C360.74 43.42 360.46 42.18 359.9 41.14C359.34 40.1 358.56 39.3 357.56 38.74C356.6 38.14 355.46 37.84 354.14 37.84C352.86 37.84 351.72 38.14 350.72 38.74C349.72 39.3 348.94 40.1 348.38 41.14C347.82 42.18 347.54 43.42 347.54 44.86V64H339.68ZM391.206 64.72C388.006 64.72 385.086 63.98 382.446 62.5C379.846 61.02 377.766 59 376.206 56.44C374.686 53.88 373.926 50.96 373.926 47.68C373.926 44.4 374.686 41.48 376.206 38.92C377.766 36.36 379.846 34.34 382.446 32.86C385.046 31.38 387.966 30.64 391.206 30.64C394.406 30.64 397.306 31.38 399.906 32.86C402.506 34.34 404.566 36.36 406.086 38.92C407.646 41.44 408.426 44.36 408.426 47.68C408.426 50.96 407.646 53.88 406.086 56.44C404.526 59 402.446 61.02 399.846 62.5C397.246 63.98 394.366 64.72 391.206 64.72ZM391.206 57.52C392.966 57.52 394.506 57.1 395.826 56.26C397.186 55.42 398.246 54.26 399.006 52.78C399.806 51.26 400.206 49.56 400.206 47.68C400.206 45.76 399.806 44.08 399.006 42.64C398.246 41.16 397.186 40 395.826 39.16C394.506 38.28 392.966 37.84 391.206 37.84C389.406 37.84 387.826 38.28 386.466 39.16C385.106 40 384.026 41.16 383.226 42.64C382.466 44.08 382.086 45.76 382.086 47.68C382.086 49.56 382.466 51.26 383.226 52.78C384.026 54.26 385.106 55.42 386.466 56.26C387.826 57.1 389.406 57.52 391.206 57.52ZM430.347 64.72C427.147 64.72 424.227 63.98 421.587 62.5C418.987 61.02 416.907 59 415.347 56.44C413.827 53.88 413.067 50.96 413.067 47.68C413.067 44.4 413.827 41.48 415.347 38.92C416.907 36.36 418.987 34.34 421.587 32.86C424.187 31.38 427.107 30.64 430.347 30.64C433.547 30.64 436.447 31.38 439.047 32.86C441.647 34.34 443.707 36.36 445.227 38.92C446.787 41.44 447.567 44.36 447.567 47.68C447.567 50.96 446.787 53.88 445.227 56.44C443.667 59 441.587 61.02 438.987 62.5C436.387 63.98 433.507 64.72 430.347 64.72ZM430.347 57.52C432.107 57.52 433.647 57.1 434.967 56.26C436.327 55.42 437.387 54.26 438.147 52.78C438.947 51.26 439.347 49.56 439.347 47.68C439.347 45.76 438.947 44.08 438.147 42.64C437.387 41.16 436.327 40 434.967 39.16C433.647 38.28 432.107 37.84 430.347 37.84C428.547 37.84 426.967 38.28 425.607 39.16C424.247 40 423.167 41.16 422.367 42.64C421.607 44.08 421.227 45.76 421.227 47.68C421.227 49.56 421.607 51.26 422.367 52.78C423.167 54.26 424.247 55.42 425.607 56.26C426.967 57.1 428.547 57.52 430.347 57.52ZM465.947 64.72C462.467 64.72 459.427 63.9 456.827 62.26C454.267 60.58 452.507 58.32 451.547 55.48L457.427 52.66C458.267 54.5 459.427 55.94 460.907 56.98C462.427 58.02 464.107 58.54 465.947 58.54C467.387 58.54 468.527 58.22 469.367 57.58C470.207 56.94 470.627 56.1 470.627 55.06C470.627 54.42 470.447 53.9 470.087 53.5C469.767 53.06 469.307 52.7 468.707 52.42C468.147 52.1 467.527 51.84 466.847 51.64L461.507 50.14C458.747 49.34 456.647 48.12 455.207 46.48C453.807 44.84 453.107 42.9 453.107 40.66C453.107 38.66 453.607 36.92 454.607 35.44C455.647 33.92 457.067 32.74 458.867 31.9C460.707 31.06 462.807 30.64 465.167 30.64C468.247 30.64 470.967 31.38 473.327 32.86C475.687 34.34 477.367 36.42 478.367 39.1L472.367 41.92C471.807 40.44 470.867 39.26 469.547 38.38C468.227 37.5 466.747 37.06 465.107 37.06C463.787 37.06 462.747 37.36 461.987 37.96C461.227 38.56 460.847 39.34 460.847 40.3C460.847 40.9 461.007 41.42 461.327 41.86C461.647 42.3 462.087 42.66 462.647 42.94C463.247 43.22 463.927 43.48 464.687 43.72L469.907 45.28C472.587 46.08 474.647 47.28 476.087 48.88C477.567 50.48 478.307 52.44 478.307 54.76C478.307 56.72 477.787 58.46 476.747 59.98C475.707 61.46 474.267 62.62 472.427 63.46C470.587 64.3 468.427 64.72 465.947 64.72ZM499.828 64.72C496.468 64.72 493.528 63.96 491.008 62.44C488.488 60.92 486.528 58.86 485.128 56.26C483.728 53.66 483.028 50.78 483.028 47.62C483.028 44.34 483.728 41.44 485.128 38.92C486.568 36.36 488.508 34.34 490.948 32.86C493.428 31.38 496.188 30.64 499.228 30.64C501.788 30.64 504.028 31.06 505.948 31.9C507.908 32.74 509.568 33.9 510.928 35.38C512.288 36.86 513.328 38.56 514.048 40.48C514.768 42.36 515.128 44.4 515.128 46.6C515.128 47.16 515.088 47.74 515.008 48.34C514.968 48.94 514.868 49.46 514.708 49.9H489.507V43.9H510.268L506.548 46.72C506.908 44.88 506.808 43.24 506.248 41.8C505.728 40.36 504.848 39.22 503.608 38.38C502.408 37.54 500.948 37.12 499.228 37.12C497.588 37.12 496.128 37.54 494.848 38.38C493.568 39.18 492.588 40.38 491.908 41.98C491.268 43.54 491.028 45.44 491.188 47.68C491.028 49.68 491.288 51.46 491.968 53.02C492.688 54.54 493.728 55.72 495.088 56.56C496.488 57.4 498.088 57.82 499.888 57.82C501.688 57.82 503.208 57.44 504.448 56.68C505.728 55.92 506.728 54.9 507.448 53.62L513.808 56.74C513.168 58.3 512.168 59.68 510.808 60.88C509.448 62.08 507.828 63.02 505.948 63.7C504.108 64.38 502.068 64.72 499.828 64.72ZM543.39 64.72C540.87 64.72 538.67 64.16 536.79 63.04C534.95 61.92 533.53 60.36 532.53 58.36C531.57 56.36 531.09 54.02 531.09 51.34V31.36H538.95V50.68C538.95 52.04 539.21 53.24 539.73 54.28C540.29 55.28 541.07 56.08 542.07 56.68C543.11 57.24 544.27 57.52 545.55 57.52C546.83 57.52 547.97 57.24 548.97 56.68C549.97 56.08 550.75 55.26 551.31 54.22C551.87 53.18 552.15 51.94 552.15 50.5V31.36H560.01V64H552.57V57.58L553.23 58.72C552.47 60.72 551.21 62.22 549.45 63.22C547.73 64.22 545.71 64.72 543.39 64.72ZM579.736 64.72C576.256 64.72 573.216 63.9 570.616 62.26C568.056 60.58 566.296 58.32 565.336 55.48L571.216 52.66C572.056 54.5 573.216 55.94 574.696 56.98C576.216 58.02 577.896 58.54 579.736 58.54C581.176 58.54 582.316 58.22 583.156 57.58C583.996 56.94 584.416 56.1 584.416 55.06C584.416 54.42 584.236 53.9 583.876 53.5C583.556 53.06 583.096 52.7 582.496 52.42C581.936 52.1 581.316 51.84 580.636 51.64L575.296 50.14C572.536 49.34 570.436 48.12 568.996 46.48C567.596 44.84 566.896 42.9 566.896 40.66C566.896 38.66 567.396 36.92 568.396 35.44C569.436 33.92 570.856 32.74 572.656 31.9C574.496 31.06 576.596 30.64 578.956 30.64C582.036 30.64 584.756 31.38 587.116 32.86C589.476 34.34 591.156 36.42 592.156 39.1L586.156 41.92C585.596 40.44 584.656 39.26 583.336 38.38C582.016 37.5 580.536 37.06 578.896 37.06C577.576 37.06 576.536 37.36 575.776 37.96C575.016 38.56 574.636 39.34 574.636 40.3C574.636 40.9 574.796 41.42 575.116 41.86C575.436 42.3 575.876 42.66 576.436 42.94C577.036 43.22 577.716 43.48 578.476 43.72L583.696 45.28C586.376 46.08 588.436 47.28 589.876 48.88C591.356 50.48 592.096 52.44 592.096 54.76C592.096 56.72 591.576 58.46 590.536 59.98C589.496 61.46 588.056 62.62 586.216 63.46C584.376 64.3 582.216 64.72 579.736 64.72ZM607.137 50.44V49.24C607.137 47.48 607.397 45.92 607.917 44.56C608.477 43.2 609.177 42 610.017 40.96C610.857 39.88 611.737 38.9 612.657 38.02C613.897 36.78 614.997 35.64 615.957 34.6C616.957 33.52 617.457 32.26 617.457 30.82C617.457 29.94 617.237 29.12 616.797 28.36C616.357 27.6 615.697 27 614.817 26.56C613.977 26.12 612.937 25.9 611.697 25.9C610.017 25.9 608.557 26.42 607.317 27.46C606.117 28.5 605.377 29.88 605.097 31.6L597.777 29.8C598.137 27.56 598.937 25.6 600.177 23.92C601.457 22.24 603.097 20.94 605.097 20.02C607.137 19.06 609.397 18.58 611.877 18.58C614.797 18.58 617.277 19.16 619.317 20.32C621.397 21.48 622.977 22.98 624.057 24.82C625.137 26.66 625.677 28.6 625.677 30.64C625.677 32.24 625.357 33.66 624.717 34.9C624.077 36.14 623.277 37.28 622.317 38.32C621.397 39.32 620.437 40.32 619.437 41.32C618.157 42.52 617.037 43.78 616.077 45.1C615.117 46.42 614.637 47.96 614.637 49.72V50.44H607.137ZM606.957 64V55.6H614.937V64H606.957Z" fill="#04A42A"/>
</svg>
